ZillaSlab-Italic.ufo
<glyph name="quotedbl" format="1">
  <advance width="366"/>
  <unicode hex="0022"/>
  <outline>
    <contour>
      <point x="136" y="377" type="line"/>
      <point x="169" y="650" type="line"/>
      <point x="99" y="650" type="line"/>
      <point x="74" y="377" type="line"/>
    </contour>
    <contour>
      <point x="312" y="377" type="line"/>
      <point x="345" y="650" type="line"/>
      <point x="275" y="650" type="line"/>
      <point x="250" y="377" type="line"/>
    </contour>
  </outline>
</glyph>
<glyph name="numbersign" format="1">
  <advance width="579"/>
  <unicode hex="0023"/>
  <outline>
    <contour>
      <point x="509" y="521" type="line"/>
      <point x="474" y="403" type="line"/>
      <point x="554" y="403" type="line"/>
      <point x="547" y="346" type="line"/>
      <point x="457" y="346" type="line"/>
      <point x="409" y="182" type="line"/>
      <point x="501" y="182" type="line"/>
      <point x="494" y="125" type="line"/>
      <point x="392" y="125" type="line"/>
      <point x="356" y="0" type="line"/>
      <point x="294" y="0" type="line"/>
      <point x="330" y="125" type="line"/>
      <point x="158" y="125" type="line"/>
      <point x="122" y="0" type="line"/>
      <point x="60" y="0" type="line"/>
      <point x="96" y="125" type="line"/>
      <point x="22" y="125" type="line"/>
      <point x="28" y="182" type="line"/>
      <point x="113" y="182" type="line"/>
      <point x="161" y="346" type="line"/>
      <point x="74" y="346" type="line"/>
      <point x="81" y="403" type="line"/>
      <point x="178" y="403" type="line"/>
      <point x="213" y="521" type="line"/>
      <point x="275" y="521" type="line"/>
      <point x="240" y="403" type="line"/>
      <point x="412" y="403" type="line"/>
      <point x="447" y="521" type="line"/>
    </contour>
    <contour>
      <point x="175" y="182" type="line"/>
      <point x="347" y="182" type="line"/>
      <point x="395" y="346" type="line"/>
      <point x="223" y="346" type="line"/>
    </contour>
  </outline>
</glyph>
<glyph name="dollar" format="1">
  <advance width="463"/>
  <unicode hex="0024"/>
  <outline>
    <contour>
      <point x="406" y="159" type="curve" smooth="yes"/>
      <point x="406" y="59"/>
      <point x="334" y="-1"/>
      <point x="223" y="-7" type="curve"/>
      <point x="217" y="-65" type="line"/>
      <point x="177" y="-65" type="line"/>
      <point x="183" y="-7" type="line"/>
      <point x="115" y="-3"/>
      <point x="54" y="20"/>
      <point x="24" y="42" type="curve"/>
      <point x="47" y="156" type="line"/>
      <point x="106" y="151" type="line"/>
      <point x="96" y="78" type="line"/>
      <point x="122" y="64"/>
      <point x="156" y="54"/>
      <point x="189" y="51" type="curve"/>
      <point x="209" y="246" type="line"/>
      <point x="128" y="264"/>
      <point x="64" y="292"/>
      <point x="64" y="373" type="curve" smooth="yes"/>
      <point x="64" y="472"/>
      <point x="142" y="523"/>
      <point x="239" y="528" type="curve"/>
      <point x="246" y="593" type="line"/>
      <point x="286" y="593" type="line"/>
      <point x="279" y="528" type="line"/>
      <point x="333" y="524"/>
      <point x="382" y="507"/>
      <point x="416" y="481" type="curve"/>
      <point x="411" y="366" type="line"/>
      <point x="352" y="362" type="line"/>
      <point x="351" y="446" type="line"/>
      <point x="326" y="463"/>
      <point x="299" y="470"/>
      <point x="273" y="472" type="curve"/>
      <point x="255" y="302" type="line"/>
      <point x="323" y="286"/>
      <point x="406" y="259"/>
    </contour>
    <contour>
      <point x="332" y="148" type="curve" smooth="yes"/>
      <point x="332" y="201"/>
      <point x="298" y="222"/>
      <point x="248" y="236" type="curve"/>
      <point x="229" y="51" type="line"/>
      <point x="288" y="56"/>
      <point x="332" y="88"/>
    </contour>
    <contour>
      <point x="139" y="386" type="curve" smooth="yes"/>
      <point x="139" y="339"/>
      <point x="171" y="323"/>
      <point x="216" y="311" type="curve"/>
      <point x="233" y="472" type="line"/>
      <point x="175" y="466"/>
      <point x="139" y="435"/>
    </contour>
  </outline>
</glyph>
<glyph name="percent" format="1">
  <advance width="675"/>
  <unicode hex="0025"/>
  <outline>
    <contour>
      <point x="596" y="521" type="line"/>
      <point x="372" y="267" type="line"/>
      <point x="146" y="0" type="line"/>
      <point x="72" y="0" type="line"/>
      <point x="328" y="287" type="line"/>
      <point x="523" y="521" type="line"/>
    </contour>
    <contour>
      <point x="170" y="243" type="curve" smooth="yes"/>
      <point x="269" y="243"/>
      <point x="330" y="310"/>
      <point x="330" y="406" type="curve" smooth="yes"/>
      <point x="330" y="488"/>
      <point x="282" y="530"/>
      <point x="208" y="530" type="curve" smooth="yes"/>
      <point x="116" y="530"/>
      <point x="47" y="469"/>
      <point x="47" y="367" type="curve" smooth="yes"/>
      <point x="47" y="286"/>
      <point x="94" y="243"/>
    </contour>
    <contour>
      <point x="176" y="294" type="curve" smooth="yes"/>
      <point x="128" y="294"/>
      <point x="106" y="317"/>
      <point x="106" y="372" type="curve" smooth="yes"/>
      <point x="106" y="444"/>
      <point x="143" y="479"/>
      <point x="201" y="479" type="curve" smooth="yes"/>
      <point x="249" y="479"/>
      <point x="271" y="455"/>
      <point x="271" y="401" type="curve" smooth="yes"/>
      <point x="271" y="338"/>
      <point x="241" y="294"/>
    </contour>
    <contour>
      <point x="467" y="-10" type="curve" smooth="yes"/>
      <point x="567" y="-10"/>
      <point x="627" y="57"/>
      <point x="627" y="152" type="curve" smooth="yes"/>
      <point x="627" y="233"/>
      <point x="579" y="277"/>
      <point x="506" y="277" type="curve" smooth="yes"/>
      <point x="413" y="277"/>
      <point x="344" y="217"/>
      <point x="344" y="115" type="curve" smooth="yes"/>
      <point x="344" y="28"/>
      <point x="392" y="-10"/>
    </contour>
    <contour>
      <point x="473" y="40" type="curve" smooth="yes"/>
      <point x="426" y="40"/>
      <point x="403" y="64"/>
      <point x="403" y="119" type="curve" smooth="yes"/>
      <point x="403" y="191"/>
      <point x="440" y="227"/>
      <point x="498" y="227" type="curve" smooth="yes"/>
      <point x="547" y="227"/>
      <point x="569" y="202"/>
      <point x="569" y="148" type="curve" smooth="yes"/>
      <point x="569" y="85"/>
      <point x="538" y="40"/>
    </contour>
  </outline>
</glyph>
<glyph name="ampersand" format="1">
  <advance width="716"/>
  <unicode hex="0026"/>
  <outline>
    <contour>
      <point x="429" y="362" type="line"/>
      <point x="702" y="362" type="line"/>
      <point x="695" y="299" type="line"/>
      <point x="593" y="299" type="line"/>
      <point x="563" y="237"/>
      <point x="508" y="160"/>
      <point x="440" y="98" type="curve"/>
      <point x="480" y="73"/>
      <point x="523" y="58"/>
      <point x="566" y="58" type="curve" smooth="yes"/>
      <point x="596" y="58"/>
      <point x="624" y="66"/>
      <point x="648" y="79" type="curve"/>
      <point x="659" y="18" type="line"/>
      <point x="624" y="-1"/>
      <point x="587" y="-10"/>
      <point x="551" y="-10" type="curve" smooth="yes"/>
      <point x="491" y="-10"/>
      <point x="433" y="13"/>
      <point x="380" y="51" type="curve"/>
      <point x="326" y="14"/>
      <point x="267" y="-10"/>
      <point x="206" y="-10" type="curve" smooth="yes"/>
      <point x="111" y="-10"/>
      <point x="33" y="48"/>
      <point x="33" y="145" type="curve" smooth="yes"/>
      <point x="33" y="232"/>
      <point x="100" y="283"/>
      <point x="178" y="325" type="curve"/>
      <point x="163" y="369"/>
      <point x="155" y="413"/>
      <point x="155" y="453" type="curve" smooth="yes"/>
      <point x="155" y="574"/>
      <point x="234" y="660"/>
      <point x="349" y="660" type="curve" smooth="yes"/>
      <point x="437" y="660"/>
      <point x="497" y="610"/>
      <point x="497" y="533" type="curve" smooth="yes"/>
      <point x="497" y="424"/>
      <point x="368" y="373"/>
      <point x="259" y="320" type="curve"/>
      <point x="290" y="248"/>
      <point x="341" y="177"/>
      <point x="400" y="127" type="curve"/>
      <point x="451" y="173"/>
      <point x="492" y="235"/>
      <point x="517" y="299" type="curve"/>
      <point x="422" y="299" type="line"/>
    </contour>
    <contour>
      <point x="424" y="529" type="curve" smooth="yes"/>
      <point x="424" y="567"/>
      <point x="399" y="602"/>
      <point x="344" y="602" type="curve" smooth="yes"/>
      <point x="274" y="602"/>
      <point x="227" y="548"/>
      <point x="227" y="463" type="curve" smooth="yes"/>
      <point x="227" y="430"/>
      <point x="233" y="394"/>
      <point x="245" y="357" type="curve"/>
      <point x="339" y="405"/>
      <point x="424" y="457"/>
    </contour>
    <contour>
      <point x="194" y="286" type="curve"/>
      <point x="141" y="254"/>
      <point x="104" y="216"/>
      <point x="104" y="156" type="curve" smooth="yes"/>
      <point x="104" y="82"/>
      <point x="158" y="52"/>
      <point x="224" y="52" type="curve" smooth="yes"/>
      <point x="264" y="52"/>
      <point x="303" y="63"/>
      <point x="339" y="83" type="curve"/>
      <point x="278" y="138"/>
      <point x="227" y="211"/>
    </contour>
  </outline>
</glyph>
<glyph name="comma" format="1">
  <advance width="200"/>
  <unicode hex="002C"/>
  <outline>
    <contour>
      <point x="-15" y="-102" type="line"/>
      <point x="53" y="-102" type="line"/>
      <point x="127" y="114" type="line"/>
      <point x="59" y="114" type="line"/>
    </contour>
  </outline>
</glyph>
<glyph name="hyphen" format="1">
  <advance width="342"/>
  <unicode hex="002D"/>
  <outline>
    <contour>
      <point x="55" y="261" type="line"/>
      <point x="283" y="261" type="line"/>
      <point x="277" y="200" type="line"/>
      <point x="49" y="200" type="line"/>
    </contour>
  </outline>
</glyph>
<glyph name="period" format="1">
  <advance width="208"/>
  <unicode hex="002E"/>
  <outline>
    <contour>
      <point x="30" y="0" type="line"/>
      <point x="123" y="0" type="line"/>
      <point x="133" y="101" type="line"/>
      <point x="40" y="101" type="line"/>
    </contour>
  </outline>
</glyph>
<glyph name="one" format="1">
  <advance width="375"/>
  <unicode hex="0031"/>
  <outline>
    <contour>
      <point x="29" y="64" type="line"/>
      <point x="149" y="64" type="line"/>
      <point x="190" y="457" type="line"/>
      <point x="71" y="457" type="line"/>
      <point x="77" y="521" type="line"/>
      <point x="268" y="521" type="line"/>
      <point x="220" y="64" type="line"/>
      <point x="335" y="64" type="line"/>
      <point x="328" y="0" type="line"/>
      <point x="22" y="0" type="line"/>
    </contour>
  </outline>
</glyph>
<glyph name="two" format="1">
  <advance width="505"/>
  <unicode hex="0032"/>
  <outline>
    <contour>
      <point x="122" y="362" type="line"/>
      <point x="147" y="445" type="line"/>
      <point x="182" y="460"/>
      <point x="226" y="468"/>
      <point x="253" y="468" type="curve" smooth="yes"/>
      <point x="323" y="468"/>
      <point x="361" y="435"/>
      <point x="361" y="379" type="curve" smooth="yes"/>
      <point x="361" y="274"/>
      <point x="232" y="191"/>
      <point x="24" y="57" type="curve"/>
      <point x="25" y="0" type="line"/>
      <point x="423" y="0" type="line"/>
      <point x="447" y="142" type="line"/>
      <point x="389" y="147" type="line"/>
      <point x="371" y="64" type="line"/>
      <point x="118" y="64" type="line"/>
      <point x="235" y="131"/>
      <point x="439" y="244"/>
      <point x="439" y="390" type="curve" smooth="yes"/>
      <point x="439" y="459"/>
      <point x="396" y="531"/>
      <point x="277" y="531" type="curve" smooth="yes"/>
      <point x="218" y="531"/>
      <point x="146" y="515"/>
      <point x="95" y="487" type="curve"/>
      <point x="66" y="369" type="line"/>
    </contour>
  </outline>
</glyph>
<glyph name="five" format="1">
  <advance width="503"/>
  <unicode hex="0035"/>
  <outline>
    <contour>
      <point x="440" y="79" type="curve" smooth="yes"/>
      <point x="440" y="234"/>
      <point x="324" y="268"/>
      <point x="191" y="268" type="curve" smooth="yes"/>
      <point x="176" y="268"/>
      <point x="158" y="268"/>
      <point x="142" y="267" type="curve"/>
      <point x="163" y="458" type="line"/>
      <point x="388" y="458" type="line"/>
      <point x="391" y="377" type="line"/>
      <point x="452" y="383" type="line"/>
      <point x="457" y="521" type="line"/>
      <point x="103" y="521" type="line"/>
      <point x="71" y="227" type="line"/>
      <point x="93" y="203" type="line"/>
      <point x="121" y="205"/>
      <point x="151" y="206"/>
      <point x="176" y="206" type="curve" smooth="yes"/>
      <point x="280" y="206"/>
      <point x="363" y="184"/>
      <point x="363" y="71" type="curve" smooth="yes"/>
      <point x="363" y="-16"/>
      <point x="313" y="-78"/>
      <point x="213" y="-78" type="curve" smooth="yes"/>
      <point x="136" y="-78"/>
      <point x="98" y="-39"/>
      <point x="86" y="20" type="curve"/>
      <point x="28" y="0" type="line"/>
      <point x="35" y="-79"/>
      <point x="94" y="-140"/>
      <point x="213" y="-140" type="curve" smooth="yes"/>
      <point x="355" y="-140"/>
      <point x="440" y="-53"/>
    </contour>
  </outline>
</glyph>
<glyph name="six" format="1">
  <advance width="526"/>
  <unicode hex="0036"/>
  <outline>
    <contour>
      <point x="472" y="229" type="curve" smooth="yes"/>
      <point x="472" y="328"/>
      <point x="428" y="403"/>
      <point x="311" y="403" type="curve" smooth="yes"/>
      <point x="209" y="403"/>
      <point x="148" y="345"/>
      <point x="124" y="291" type="curve"/>
      <point x="135" y="482"/>
      <point x="195" y="597"/>
      <point x="317" y="597" type="curve" smooth="yes"/>
      <point x="376" y="597"/>
      <point x="422" y="570"/>
      <point x="451" y="528" type="curve"/>
      <point x="499" y="572" type="line"/>
      <point x="459" y="629"/>
      <point x="405" y="660"/>
      <point x="326" y="660" type="curve" smooth="yes"/>
      <point x="118" y="660"/>
      <point x="49" y="452"/>
      <point x="49" y="255" type="curve" smooth="yes"/>
      <point x="49" y="93"/>
      <point x="96" y="-10"/>
      <point x="245" y="-10" type="curve" smooth="yes"/>
      <point x="404" y="-10"/>
      <point x="472" y="107"/>
    </contour>
    <contour>
      <point x="399" y="219" type="curve" smooth="yes"/>
      <point x="399" y="128"/>
      <point x="357" y="56"/>
      <point x="251" y="56" type="curve" smooth="yes"/>
      <point x="153" y="56"/>
      <point x="125" y="116"/>
      <point x="123" y="200" type="curve"/>
      <point x="135" y="261"/>
      <point x="180" y="340"/>
      <point x="288" y="340" type="curve" smooth="yes"/>
      <point x="368" y="340"/>
      <point x="399" y="298"/>
    </contour>
  </outline>
</glyph>
<glyph name="seven" format="1">
  <advance width="463"/>
  <unicode hex="0037"/>
  <outline>
    <contour>
      <point x="59" y="521" type="line"/>
      <point x="40" y="347" type="line"/>
      <point x="105" y="347" type="line"/>
      <point x="117" y="458" type="line"/>
      <point x="389" y="458" type="line"/>
      <point x="89" y="-130" type="line"/>
      <point x="165" y="-130" type="line"/>
      <point x="468" y="479" type="line"/>
      <point x="462" y="521" type="line"/>
    </contour>
  </outline>
</glyph>
<glyph name="nine" format="1">
  <advance width="525"/>
  <unicode hex="0039"/>
  <outline>
    <contour>
      <point x="50" y="291" type="curve" smooth="yes"/>
      <point x="50" y="192"/>
      <point x="94" y="117"/>
      <point x="211" y="117" type="curve" smooth="yes"/>
      <point x="313" y="117"/>
      <point x="374" y="175"/>
      <point x="398" y="229" type="curve"/>
      <point x="387" y="38"/>
      <point x="327" y="-77"/>
      <point x="205" y="-77" type="curve" smooth="yes"/>
      <point x="146" y="-77"/>
      <point x="100" y="-50"/>
      <point x="71" y="-8" type="curve"/>
      <point x="23" y="-52" type="line"/>
      <point x="63" y="-109"/>
      <point x="117" y="-140"/>
      <point x="196" y="-140" type="curve" smooth="yes"/>
      <point x="404" y="-140"/>
      <point x="473" y="68"/>
      <point x="473" y="265" type="curve" smooth="yes"/>
      <point x="473" y="427"/>
      <point x="426" y="530"/>
      <point x="277" y="530" type="curve" smooth="yes"/>
      <point x="118" y="530"/>
      <point x="50" y="413"/>
    </contour>
    <contour>
      <point x="123" y="301" type="curve" smooth="yes"/>
      <point x="123" y="392"/>
      <point x="165" y="464"/>
      <point x="271" y="464" type="curve" smooth="yes"/>
      <point x="369" y="464"/>
      <point x="397" y="404"/>
      <point x="399" y="320" type="curve"/>
      <point x="387" y="259"/>
      <point x="342" y="180"/>
      <point x="234" y="180" type="curve" smooth="yes"/>
      <point x="154" y="180"/>
      <point x="123" y="222"/>
    </contour>
  </outline>
</glyph>
<glyph name="colon" format="1">
  <advance width="220"/>
  <unicode hex="003A"/>
  <outline>
    <contour>
      <point x="85" y="445" type="line"/>
      <point x="175" y="445" type="line"/>
      <point x="164" y="344" type="line"/>
      <point x="75" y="344" type="line"/>
    </contour>
    <contour>
      <point x="49" y="100" type="line"/>
      <point x="138" y="100" type="line"/>
      <point x="128" y="0" type="line"/>
      <point x="38" y="0" type="line"/>
    </contour>
  </outline>
</glyph>
<glyph name="less" format="1">
  <advance width="397"/>
  <unicode hex="003C"/>
  <outline>
    <contour>
      <point x="314" y="14" type="line"/>
      <point x="321" y="83" type="line"/>
      <point x="105" y="280" type="line"/>
      <point x="361" y="480" type="line"/>
      <point x="370" y="549" type="line"/>
      <point x="30" y="289" type="line"/>
      <point x="28" y="269" type="line"/>
    </contour>
  </outline>
</glyph>
<glyph name="equal" format="1">
  <advance width="565"/>
  <unicode hex="003D"/>
  <outline>
    <contour>
      <point x="68" y="364" type="line"/>
      <point x="516" y="364" type="line"/>
      <point x="522" y="418" type="line"/>
      <point x="74" y="418" type="line"/>
    </contour>
    <contour>
      <point x="45" y="144" type="line"/>
      <point x="493" y="144" type="line"/>
      <point x="499" y="196" type="line"/>
      <point x="51" y="196" type="line"/>
    </contour>
  </outline>
</glyph>
<glyph name="greater" format="1">
  <advance width="398"/>
  <unicode hex="003E"/>
  <outline>
    <contour>
      <point x="368" y="269" type="line"/>
      <point x="371" y="289" type="line"/>
      <point x="86" y="549" type="line"/>
      <point x="78" y="480" type="line"/>
      <point x="295" y="280" type="line"/>
      <point x="37" y="83" type="line"/>
      <point x="30" y="14" type="line"/>
    </contour>
  </outline>
</glyph>
<glyph name="question" format="1">
  <advance width="438"/>
  <unicode hex="003F"/>
  <outline>
    <contour>
      <point x="118" y="460" type="line"/>
      <point x="141" y="556" type="line"/>
      <point x="173" y="581"/>
      <point x="208" y="595"/>
      <point x="251" y="595" type="curve" smooth="yes"/>
      <point x="317" y="595"/>
      <point x="355" y="565"/>
      <point x="355" y="519" type="curve" smooth="yes"/>
      <point x="355" y="409"/>
      <point x="131" y="386"/>
      <point x="131" y="259" type="curve" smooth="yes"/>
      <point x="131" y="213"/>
      <point x="161" y="176"/>
      <point x="249" y="181" type="curve"/>
      <point x="254" y="231" type="line"/>
      <point x="221" y="231"/>
      <point x="206" y="244"/>
      <point x="206" y="268" type="curve" smooth="yes"/>
      <point x="206" y="358"/>
      <point x="433" y="393"/>
      <point x="433" y="532" type="curve" smooth="yes"/>
      <point x="433" y="615"/>
      <point x="354" y="660"/>
      <point x="265" y="660" type="curve" smooth="yes"/>
      <point x="192" y="660"/>
      <point x="125" y="625"/>
      <point x="82" y="585" type="curve"/>
      <point x="61" y="465" type="line"/>
    </contour>
    <contour>
      <point x="133" y="0" type="line"/>
      <point x="220" y="0" type="line"/>
      <point x="230" y="97" type="line"/>
      <point x="143" y="97" type="line"/>
    </contour>
  </outline>
</glyph>
<glyph name="F" format="1">
  <advance width="544"/>
  <unicode hex="0046"/>
  <outline>
    <contour>
      <point x="537" y="462" type="line"/>
      <point x="536" y="650" type="line"/>
      <point x="80" y="650" type="line"/>
      <point x="73" y="586" type="line"/>
      <point x="153" y="586" type="line"/>
      <point x="98" y="64" type="line"/>
      <point x="19" y="64" type="line"/>
      <point x="12" y="0" type="line"/>
      <point x="275" y="0" type="line"/>
      <point x="282" y="64" type="line"/>
      <point x="169" y="64" type="line"/>
      <point x="190" y="269" type="line"/>
      <point x="483" y="269" type="line"/>
      <point x="490" y="333" type="line"/>
      <point x="197" y="333" type="line"/>
      <point x="224" y="586" type="line"/>
      <point x="466" y="586" type="line"/>
      <point x="472" y="456" type="line"/>
    </contour>
  </outline>
</glyph>
<glyph name="H" format="1">
  <advance width="733"/>
  <unicode hex="0048"/>
  <outline>
    <contour>
      <point x="19" y="64" type="line"/>
      <point x="98" y="64" type="line"/>
      <point x="153" y="586" type="line"/>
      <point x="74" y="586" type="line"/>
      <point x="81" y="650" type="line"/>
      <point x="310" y="650" type="line"/>
      <point x="303" y="586" type="line"/>
      <point x="223" y="586" type="line"/>
      <point x="200" y="362" type="line"/>
      <point x="551" y="362" type="line"/>
      <point x="574" y="586" type="line"/>
      <point x="495" y="586" type="line"/>
      <point x="502" y="650" type="line"/>
      <point x="731" y="650" type="line"/>
      <point x="724" y="586" type="line"/>
      <point x="645" y="586" type="line"/>
      <point x="590" y="64" type="line"/>
      <point x="670" y="64" type="line"/>
      <point x="663" y="0" type="line"/>
      <point x="434" y="0" type="line"/>
      <point x="441" y="64" type="line"/>
      <point x="519" y="64" type="line"/>
      <point x="544" y="300" type="line"/>
      <point x="193" y="300" type="line"/>
      <point x="168" y="64" type="line"/>
      <point x="248" y="64" type="line"/>
      <point x="242" y="0" type="line"/>
      <point x="13" y="0" type="line"/>
    </contour>
  </outline>
</glyph>
<glyph name="J" format="1">
  <advance width="442"/>
  <unicode hex="004A"/>
  <outline>
    <contour>
      <point x="179" y="650" type="line"/>
      <point x="445" y="650" type="line"/>
      <point x="439" y="586" type="line"/>
      <point x="369" y="586" type="line"/>
      <point x="325" y="166" type="line" smooth="yes"/>
      <point x="313" y="48"/>
      <point x="245" y="-10"/>
      <point x="144" y="-10" type="curve" smooth="yes"/>
      <point x="60" y="-10"/>
      <point x="18" y="30"/>
      <point x="-3" y="89" type="curve"/>
      <point x="52" y="129" type="line"/>
      <point x="74" y="75"/>
      <point x="102" y="59"/>
      <point x="145" y="59" type="curve" smooth="yes"/>
      <point x="213" y="59"/>
      <point x="247" y="101"/>
      <point x="254" y="166" type="curve" smooth="yes"/>
      <point x="298" y="586" type="line"/>
      <point x="173" y="586" type="line"/>
    </contour>
  </outline>
</glyph>
<glyph name="L" format="1">
  <advance width="528"/>
  <unicode hex="004C"/>
  <outline>
    <contour>
      <point x="468" y="0" type="line"/>
      <point x="509" y="208" type="line"/>
      <point x="446" y="213" type="line"/>
      <point x="411" y="64" type="line"/>
      <point x="169" y="64" type="line"/>
      <point x="224" y="586" type="line"/>
      <point x="331" y="586" type="line"/>
      <point x="337" y="650" type="line"/>
      <point x="80" y="650" type="line"/>
      <point x="73" y="586" type="line"/>
      <point x="153" y="586" type="line"/>
      <point x="98" y="64" type="line"/>
      <point x="18" y="64" type="line"/>
      <point x="12" y="0" type="line"/>
    </contour>
  </outline>
</glyph>
<glyph name="N" format="1">
  <advance width="715"/>
  <unicode hex="004E"/>
  <outline>
    <contour>
      <point x="25" y="64" type="line"/>
      <point x="98" y="64" type="line"/>
      <point x="153" y="586" type="line"/>
      <point x="70" y="586" type="line"/>
      <point x="77" y="650" type="line"/>
      <point x="211" y="650" type="line"/>
      <point x="520" y="148" type="line"/>
      <point x="523" y="148" type="line"/>
      <point x="568" y="586" type="line"/>
      <point x="474" y="586" type="line"/>
      <point x="480" y="650" type="line"/>
      <point x="722" y="650" type="line"/>
      <point x="716" y="586" type="line"/>
      <point x="636" y="586" type="line"/>
      <point x="575" y="0" type="line"/>
      <point x="530" y="0" type="line"/>
      <point x="216" y="512" type="line"/>
      <point x="213" y="512" type="line"/>
      <point x="165" y="64" type="line"/>
      <point x="267" y="64" type="line"/>
      <point x="261" y="0" type="line"/>
      <point x="18" y="0" type="line"/>
    </contour>
    <contour>
      <point x="309" y="727" type="move" name="top"/>
    </contour>
  </outline>
</glyph>
<glyph name="P" format="1">
  <advance width="561"/>
  <unicode hex="0050"/>
  <outline>
    <contour>
      <point x="19" y="64" type="line"/>
      <point x="98" y="64" type="line"/>
      <point x="153" y="586" type="line"/>
      <point x="74" y="586" type="line"/>
      <point x="81" y="650" type="line"/>
      <point x="342" y="650" type="line" smooth="yes"/>
      <point x="485" y="650"/>
      <point x="548" y="568"/>
      <point x="548" y="469" type="curve" smooth="yes"/>
      <point x="548" y="324"/>
      <point x="450" y="242"/>
      <point x="311" y="242" type="curve" smooth="yes"/>
      <point x="187" y="242" type="line"/>
      <point x="168" y="64" type="line"/>
      <point x="278" y="64" type="line"/>
      <point x="271" y="0" type="line"/>
      <point x="13" y="0" type="line"/>
    </contour>
    <contour>
      <point x="308" y="306" type="line" smooth="yes"/>
      <point x="414" y="306"/>
      <point x="473" y="366"/>
      <point x="473" y="466" type="curve" smooth="yes"/>
      <point x="473" y="540"/>
      <point x="426" y="586"/>
      <point x="330" y="586" type="curve" smooth="yes"/>
      <point x="223" y="586" type="line"/>
      <point x="194" y="306" type="line"/>
    </contour>
  </outline>
</glyph>
<glyph name="Q" format="1">
  <advance width="720"/>
  <unicode hex="0051"/>
  <outline>
    <contour>
      <point x="393" y="660" type="curve" smooth="yes"/>
      <point x="194" y="660"/>
      <point x="42" y="494"/>
      <point x="42" y="291" type="curve" smooth="yes"/>
      <point x="42" y="125"/>
      <point x="148" y="-10"/>
      <point x="325" y="-10" type="curve" smooth="yes"/>
      <point x="397" y="-10"/>
      <point x="462" y="11"/>
      <point x="516" y="47" type="curve"/>
      <point x="602" y="-47" type="line"/>
      <point x="649" y="-3" type="line"/>
      <point x="566" y="88" type="line"/>
      <point x="636" y="156"/>
      <point x="678" y="253"/>
      <point x="678" y="359" type="curve" smooth="yes"/>
      <point x="678" y="526"/>
      <point x="569" y="660"/>
    </contour>
    <contour>
      <point x="378" y="200" type="line"/>
      <point x="473" y="95" type="line"/>
      <point x="435" y="70"/>
      <point x="388" y="56"/>
      <point x="336" y="56" type="curve" smooth="yes"/>
      <point x="187" y="56"/>
      <point x="118" y="167"/>
      <point x="118" y="297" type="curve" smooth="yes"/>
      <point x="118" y="458"/>
      <point x="226" y="594"/>
      <point x="385" y="594" type="curve" smooth="yes"/>
      <point x="524" y="594"/>
      <point x="602" y="494"/>
      <point x="602" y="354" type="curve" smooth="yes"/>
      <point x="602" y="270"/>
      <point x="573" y="192"/>
      <point x="522" y="136" type="curve"/>
      <point x="425" y="244" type="line"/>
    </contour>
  </outline>
</glyph>
<glyph name="R" format="1">
  <advance width="599"/>
  <unicode hex="0052"/>
  <outline>
    <contour>
      <point x="19" y="64" type="line"/>
      <point x="98" y="64" type="line"/>
      <point x="153" y="586" type="line"/>
      <point x="74" y="586" type="line"/>
      <point x="81" y="650" type="line"/>
      <point x="346" y="650" type="line" smooth="yes"/>
      <point x="489" y="650"/>
      <point x="554" y="580"/>
      <point x="554" y="485" type="curve" smooth="yes"/>
      <point x="554" y="384"/>
      <point x="501" y="315"/>
      <point x="397" y="288" type="curve"/>
      <point x="488" y="64" type="line"/>
      <point x="568" y="64" type="line"/>
      <point x="560" y="0" type="line"/>
      <point x="434" y="0" type="line"/>
      <point x="328" y="272" type="line"/>
      <point x="190" y="272" type="line"/>
      <point x="168" y="64" type="line"/>
      <point x="254" y="64" type="line"/>
      <point x="248" y="0" type="line"/>
      <point x="13" y="0" type="line"/>
    </contour>
    <contour>
      <point x="312" y="333" type="line" smooth="yes"/>
      <point x="432" y="333"/>
      <point x="479" y="396"/>
      <point x="479" y="479" type="curve" smooth="yes"/>
      <point x="479" y="552"/>
      <point x="431" y="586"/>
      <point x="330" y="586" type="curve" smooth="yes"/>
      <point x="223" y="586" type="line"/>
      <point x="197" y="333" type="line"/>
    </contour>
  </outline>
</glyph>
<glyph name="T" format="1">
  <advance width="605"/>
  <unicode hex="0054"/>
  <outline>
    <contour>
      <point x="599" y="452" type="line"/>
      <point x="601" y="650" type="line"/>
      <point x="81" y="650" type="line"/>
      <point x="42" y="452" type="line"/>
      <point x="105" y="447" type="line"/>
      <point x="139" y="586" type="line"/>
      <point x="300" y="586" type="line"/>
      <point x="245" y="64" type="line"/>
      <point x="136" y="64" type="line"/>
      <point x="129" y="0" type="line"/>
      <point x="422" y="0" type="line"/>
      <point x="428" y="64" type="line"/>
      <point x="316" y="64" type="line"/>
      <point x="371" y="586" type="line"/>
      <point x="530" y="586" type="line"/>
      <point x="535" y="447" type="line"/>
    </contour>
  </outline>
</glyph>
<glyph name="bracketleft" format="1">
  <advance width="279"/>
  <unicode hex="005B"/>
  <outline>
    <contour>
      <point x="33" y="-213" type="line"/>
      <point x="205" y="-213" type="line"/>
      <point x="211" y="-161" type="line"/>
      <point x="99" y="-161" type="line"/>
      <point x="189" y="698" type="line"/>
      <point x="301" y="698" type="line"/>
      <point x="307" y="750" type="line"/>
      <point x="135" y="750" type="line"/>
    </contour>
  </outline>
</glyph>
<glyph name="bracketright" format="1">
  <advance width="279"/>
  <unicode hex="005D"/>
  <outline>
    <contour>
      <point x="244" y="750" type="line"/>
      <point x="72" y="750" type="line"/>
      <point x="66" y="698" type="line"/>
      <point x="178" y="698" type="line"/>
      <point x="88" y="-161" type="line"/>
      <point x="-24" y="-161" type="line"/>
      <point x="-30" y="-213" type="line"/>
      <point x="142" y="-213" type="line"/>
    </contour>
  </outline>
</glyph>
<glyph name="asciicircum" format="1">
  <advance width="445"/>
  <unicode hex="005E"/>
  <outline>
    <contour>
      <point x="240" y="656" type="line"/>
      <point x="52" y="373" type="line"/>
      <point x="116" y="373" type="line"/>
      <point x="255" y="587" type="line"/>
      <point x="352" y="373" type="line"/>
      <point x="416" y="373" type="line"/>
      <point x="285" y="656" type="line"/>
    </contour>
  </outline>
</glyph>
<glyph name="underscore" format="1">
  <advance width="527"/>
  <unicode hex="005F"/>
  <outline>
    <contour>
      <point x="16" y="-74" type="line"/>
      <point x="440" y="-74" type="line"/>
      <point x="435" y="-125" type="line"/>
      <point x="11" y="-125" type="line"/>
    </contour>
  </outline>
</glyph>
<glyph name="grave" format="1">
  <advance width="431"/>
  <unicode hex="0060"/>
  <outline>
    <contour>
      <point x="393" y="520" type="line"/>
      <point x="412" y="551" type="line"/>
      <point x="246" y="683" type="line"/>
      <point x="211" y="624" type="line"/>
    </contour>
  </outline>
</glyph>
<glyph name="g" format="1">
  <advance width="513"/>
  <unicode hex="0067"/>
  <outline>
    <contour>
      <point x="392" y="445" type="line"/>
      <point x="519" y="445" type="line"/>
      <point x="515" y="406" type="line"/>
      <point x="493" y="388" type="line"/>
      <point x="442" y="388" type="line"/>
      <point x="395" y="6" type="line" smooth="yes"/>
      <point x="378" y="-127"/>
      <point x="315" y="-223"/>
      <point x="179" y="-223" type="curve" smooth="yes"/>
      <point x="90" y="-223"/>
      <point x="17" y="-178"/>
      <point x="4" y="-90" type="curve"/>
      <point x="56" y="-64" type="line"/>
      <point x="70" y="-134"/>
      <point x="126" y="-162"/>
      <point x="184" y="-162" type="curve" smooth="yes"/>
      <point x="266" y="-162"/>
      <point x="314" y="-104"/>
      <point x="327" y="9" type="curve" smooth="yes"/>
      <point x="336" y="87" type="line"/>
      <point x="305" y="34"/>
      <point x="256" y="-10"/>
      <point x="180" y="-10" type="curve" smooth="yes"/>
      <point x="83" y="-10"/>
      <point x="31" y="64"/>
      <point x="31" y="175" type="curve" smooth="yes"/>
      <point x="31" y="293"/>
      <point x="89" y="454"/>
      <point x="243" y="454" type="curve" smooth="yes"/>
      <point x="307" y="454"/>
      <point x="355" y="425"/>
      <point x="375" y="373" type="curve"/>
    </contour>
    <contour>
      <point x="249" y="397" type="curve" smooth="yes"/>
      <point x="142" y="397"/>
      <point x="104" y="278"/>
      <point x="104" y="185" type="curve" smooth="yes"/>
      <point x="104" y="97"/>
      <point x="136" y="47"/>
      <point x="200" y="47" type="curve" smooth="yes"/>
      <point x="276" y="47"/>
      <point x="333" y="122"/>
      <point x="348" y="184" type="curve"/>
      <point x="360" y="276" type="line"/>
      <point x="361" y="345"/>
      <point x="318" y="397"/>
    </contour>
    <contour>
      <point x="180" y="566" type="move" name="top"/>
    </contour>
  </outline>
</glyph>
<glyph name="v" format="1">
  <advance width="469"/>
  <unicode hex="0076"/>
  <outline>
    <contour>
      <point x="225" y="406" type="line"/>
      <point x="204" y="388" type="line"/>
      <point x="141" y="388" type="line"/>
      <point x="231" y="82" type="line"/>
      <point x="237" y="82" type="line"/>
      <point x="322" y="178"/>
      <point x="366" y="263"/>
      <point x="366" y="352" type="curve" smooth="yes"/>
      <point x="366" y="382"/>
      <point x="362" y="413"/>
      <point x="349" y="445" type="curve"/>
      <point x="428" y="445" type="line"/>
      <point x="448" y="361"/>
      <point x="436" y="275"/>
      <point x="380" y="185" type="curve" smooth="yes"/>
      <point x="346" y="131"/>
      <point x="284" y="58"/>
      <point x="224" y="0" type="curve"/>
      <point x="186" y="0" type="line"/>
      <point x="69" y="388" type="line"/>
      <point x="13" y="388" type="line"/>
      <point x="18" y="426" type="line"/>
      <point x="39" y="445" type="line"/>
      <point x="230" y="445" type="line"/>
    </contour>
  </outline>
</glyph>
<glyph name="x" format="1">
  <advance width="477"/>
  <unicode hex="0078"/>
  <outline>
    <contour>
      <point x="449" y="18" type="line"/>
      <point x="428" y="0" type="line"/>
      <point x="242" y="0" type="line"/>
      <point x="246" y="38" type="line"/>
      <point x="267" y="57" type="line"/>
      <point x="313" y="57" type="line"/>
      <point x="221" y="197" type="line"/>
      <point x="124" y="136"/>
      <point x="85" y="74"/>
      <point x="104" y="0" type="curve"/>
      <point x="26" y="0" type="line"/>
      <point x="2" y="95"/>
      <point x="99" y="167"/>
      <point x="194" y="229" type="curve"/>
      <point x="84" y="388" type="line"/>
      <point x="21" y="388" type="line"/>
      <point x="26" y="426" type="line"/>
      <point x="47" y="445" type="line"/>
      <point x="234" y="445" type="line"/>
      <point x="229" y="406" type="line"/>
      <point x="208" y="388" type="line"/>
      <point x="160" y="388" type="line"/>
      <point x="244" y="261" type="line"/>
      <point x="333" y="322"/>
      <point x="369" y="387"/>
      <point x="352" y="445" type="curve"/>
      <point x="428" y="445" type="line"/>
      <point x="458" y="367"/>
      <point x="358" y="289"/>
      <point x="271" y="229" type="curve"/>
      <point x="388" y="57" type="line"/>
      <point x="454" y="57" type="line"/>
    </contour>
  </outline>
</glyph>
<glyph name="z" format="1">
  <advance width="448"/>
  <unicode hex="007A"/>
  <outline>
    <contour>
      <point x="372" y="0" type="line"/>
      <point x="410" y="138" type="line"/>
      <point x="355" y="147" type="line"/>
      <point x="322" y="57" type="line"/>
      <point x="100" y="57" type="line"/>
      <point x="414" y="403" type="line"/>
      <point x="401" y="445" type="line"/>
      <point x="73" y="445" type="line"/>
      <point x="46" y="306" type="line"/>
      <point x="101" y="299" type="line"/>
      <point x="123" y="388" type="line"/>
      <point x="325" y="388" type="line"/>
      <point x="7" y="43" type="line"/>
      <point x="16" y="0" type="line"/>
    </contour>
    <contour>
      <point x="154" y="505" type="move" name="top"/>
    </contour>
  </outline>
</glyph>
<glyph name="braceleft" format="1">
  <advance width="277"/>
  <unicode hex="007B"/>
  <outline>
    <contour>
      <point x="108" y="267" type="curve"/>
      <point x="186" y="279"/>
      <point x="213" y="318"/>
      <point x="213" y="358" type="curve" smooth="yes"/>
      <point x="213" y="421"/>
      <point x="157" y="538"/>
      <point x="157" y="620" type="curve" smooth="yes"/>
      <point x="157" y="674"/>
      <point x="181" y="698"/>
      <point x="227" y="698" type="curve" smooth="yes"/>
      <point x="290" y="698" type="line"/>
      <point x="295" y="750" type="line"/>
      <point x="232" y="750" type="line" smooth="yes"/>
      <point x="146" y="750"/>
      <point x="99" y="699"/>
      <point x="99" y="617" type="curve" smooth="yes"/>
      <point x="99" y="526"/>
      <point x="153" y="412"/>
      <point x="153" y="355" type="curve" smooth="yes"/>
      <point x="153" y="297"/>
      <point x="82" y="287"/>
      <point x="50" y="287" type="curve" smooth="yes"/>
      <point x="32" y="287" type="line"/>
      <point x="28" y="247" type="line"/>
      <point x="46" y="247" type="line" smooth="yes"/>
      <point x="76" y="247"/>
      <point x="136" y="238"/>
      <point x="136" y="190" type="curve" smooth="yes"/>
      <point x="136" y="128"/>
      <point x="22" y="-5"/>
      <point x="22" y="-111" type="curve" smooth="yes"/>
      <point x="22" y="-171"/>
      <point x="59" y="-212"/>
      <point x="131" y="-212" type="curve" smooth="yes"/>
      <point x="194" y="-212" type="line"/>
      <point x="200" y="-160" type="line"/>
      <point x="137" y="-160" type="line" smooth="yes"/>
      <point x="100" y="-160"/>
      <point x="81" y="-143"/>
      <point x="81" y="-106" type="curve" smooth="yes"/>
      <point x="81" y="-14"/>
      <point x="196" y="120"/>
      <point x="196" y="189" type="curve" smooth="yes"/>
      <point x="196" y="224"/>
      <point x="172" y="256"/>
    </contour>
  </outline>
</glyph>
<glyph name="bar" format="1">
  <advance width="230"/>
  <unicode hex="007C"/>
  <outline>
    <contour>
      <point x="193" y="730" type="line"/>
      <point x="108" y="-80" type="line"/>
      <point x="47" y="-80" type="line"/>
      <point x="132" y="730" type="line"/>
    </contour>
  </outline>
</glyph>
<glyph name="braceright" format="1">
  <advance width="277"/>
  <unicode hex="007D"/>
  <outline>
    <contour>
      <point x="168" y="271" type="curve"/>
      <point x="90" y="259"/>
      <point x="63" y="220"/>
      <point x="63" y="180" type="curve" smooth="yes"/>
      <point x="63" y="117"/>
      <point x="119" y="0"/>
      <point x="119" y="-82" type="curve" smooth="yes"/>
      <point x="119" y="-136"/>
      <point x="95" y="-160"/>
      <point x="49" y="-160" type="curve" smooth="yes"/>
      <point x="-14" y="-160" type="line"/>
      <point x="-19" y="-212" type="line"/>
      <point x="44" y="-212" type="line" smooth="yes"/>
      <point x="130" y="-212"/>
      <point x="177" y="-161"/>
      <point x="177" y="-79" type="curve" smooth="yes"/>
      <point x="177" y="12"/>
      <point x="123" y="126"/>
      <point x="123" y="183" type="curve" smooth="yes"/>
      <point x="123" y="241"/>
      <point x="194" y="251"/>
      <point x="226" y="251" type="curve" smooth="yes"/>
      <point x="244" y="251" type="line"/>
      <point x="248" y="291" type="line"/>
      <point x="230" y="291" type="line" smooth="yes"/>
      <point x="200" y="291"/>
      <point x="140" y="300"/>
      <point x="140" y="348" type="curve" smooth="yes"/>
      <point x="140" y="410"/>
      <point x="254" y="543"/>
      <point x="254" y="649" type="curve" smooth="yes"/>
      <point x="254" y="709"/>
      <point x="217" y="750"/>
      <point x="145" y="750" type="curve" smooth="yes"/>
      <point x="82" y="750" type="line"/>
      <point x="76" y="698" type="line"/>
      <point x="139" y="698" type="line" smooth="yes"/>
      <point x="176" y="698"/>
      <point x="195" y="681"/>
      <point x="195" y="644" type="curve" smooth="yes"/>
      <point x="195" y="552"/>
      <point x="80" y="418"/>
      <point x="80" y="349" type="curve" smooth="yes"/>
      <point x="80" y="314"/>
      <point x="104" y="282"/>
    </contour>
  </outline>
</glyph>
<glyph name="cent" format="1">
  <advance width="450"/>
  <unicode hex="00A2"/>
  <outline>
    <contour>
      <point x="170" y="-84" type="line"/>
      <point x="178" y="-8" type="line"/>
      <point x="87" y="3"/>
      <point x="35" y="73"/>
      <point x="35" y="186" type="curve" smooth="yes"/>
      <point x="35" y="297"/>
      <point x="87" y="436"/>
      <point x="226" y="452" type="curve"/>
      <point x="234" y="529" type="line"/>
      <point x="280" y="529" type="line"/>
      <point x="272" y="453" type="line"/>
      <point x="320" y="451"/>
      <point x="359" y="437"/>
      <point x="396" y="409" type="curve"/>
      <point x="402" y="302" type="line"/>
      <point x="343" y="295" type="line"/>
      <point x="334" y="371" type="line"/>
      <point x="312" y="387"/>
      <point x="290" y="394"/>
      <point x="266" y="396" type="curve"/>
      <point x="230" y="48" type="line"/>
      <point x="283" y="54"/>
      <point x="318" y="93"/>
      <point x="339" y="163" type="curve"/>
      <point x="394" y="150" type="line"/>
      <point x="376" y="75"/>
      <point x="325" y="0"/>
      <point x="224" y="-9" type="curve"/>
      <point x="216" y="-84" type="line"/>
    </contour>
    <contour>
      <point x="108" y="190" type="curve" smooth="yes"/>
      <point x="108" y="114"/>
      <point x="130" y="63"/>
      <point x="184" y="50" type="curve"/>
      <point x="220" y="393" type="line"/>
      <point x="138" y="373"/>
      <point x="108" y="280"/>
    </contour>
  </outline>
</glyph>
<glyph name="currency" format="1">
  <advance width="503"/>
  <unicode hex="00A4"/>
  <outline>
    <contour>
      <point x="103" y="256" type="curve" smooth="yes"/>
      <point x="103" y="229"/>
      <point x="110" y="203"/>
      <point x="123" y="182" type="curve"/>
      <point x="19" y="87" type="line"/>
      <point x="45" y="56" type="line"/>
      <point x="149" y="151" type="line"/>
      <point x="172" y="131"/>
      <point x="201" y="119"/>
      <point x="236" y="119" type="curve" smooth="yes"/>
      <point x="269" y="119"/>
      <point x="302" y="130"/>
      <point x="329" y="149" type="curve"/>
      <point x="411" y="56" type="line"/>
      <point x="444" y="87" type="line"/>
      <point x="362" y="181" type="line"/>
      <point x="385" y="209"/>
      <point x="400" y="245"/>
      <point x="400" y="283" type="curve" smooth="yes"/>
      <point x="400" y="310"/>
      <point x="392" y="335"/>
      <point x="380" y="356" type="curve"/>
      <point x="483" y="451" type="line"/>
      <point x="457" y="481" type="line"/>
      <point x="354" y="388" type="line"/>
      <point x="331" y="408"/>
      <point x="300" y="421"/>
      <point x="266" y="421" type="curve" smooth="yes"/>
      <point x="231" y="421"/>
      <point x="198" y="409"/>
      <point x="171" y="389" type="curve"/>
      <point x="91" y="481" type="line"/>
      <point x="58" y="451" type="line"/>
      <point x="139" y="357" type="line"/>
      <point x="116" y="329"/>
      <point x="103" y="294"/>
    </contour>
    <contour>
      <point x="163" y="263" type="curve" smooth="yes"/>
      <point x="164" y="323"/>
      <point x="211" y="364"/>
      <point x="261" y="364" type="curve" smooth="yes"/>
      <point x="306" y="364"/>
      <point x="339" y="331"/>
      <point x="339" y="280" type="curve" smooth="yes"/>
      <point x="339" y="219"/>
      <point x="295" y="176"/>
      <point x="242" y="176" type="curve" smooth="yes"/>
      <point x="196" y="176"/>
      <point x="162" y="210"/>
    </contour>
  </outline>
</glyph>
<glyph name="yen" format="1">
  <advance width="577"/>
  <unicode hex="00A5"/>
  <outline>
    <contour>
      <point x="143" y="56" type="line"/>
      <point x="233" y="56" type="line"/>
      <point x="239" y="110" type="line"/>
      <point x="105" y="110" type="line"/>
      <point x="109" y="152" type="line"/>
      <point x="243" y="152" type="line"/>
      <point x="247" y="202" type="line"/>
      <point x="245" y="206" type="line"/>
      <point x="115" y="206" type="line"/>
      <point x="119" y="249" type="line"/>
      <point x="222" y="249" type="line"/>
      <point x="104" y="465" type="line"/>
      <point x="53" y="465" type="line"/>
      <point x="59" y="521" type="line"/>
      <point x="258" y="521" type="line"/>
      <point x="252" y="465" type="line"/>
      <point x="182" y="465" type="line"/>
      <point x="290" y="259" type="line"/>
      <point x="295" y="259" type="line"/>
      <point x="440" y="465" type="line"/>
      <point x="369" y="465" type="line"/>
      <point x="375" y="521" type="line"/>
      <point x="567" y="521" type="line"/>
      <point x="561" y="465" type="line"/>
      <point x="511" y="465" type="line"/>
      <point x="354" y="249" type="line"/>
      <point x="455" y="249" type="line"/>
      <point x="451" y="206" type="line"/>
      <point x="322" y="206" type="line"/>
      <point x="317" y="198" type="line"/>
      <point x="312" y="152" type="line"/>
      <point x="445" y="152" type="line"/>
      <point x="441" y="110" type="line"/>
      <point x="308" y="110" type="line"/>
      <point x="302" y="56" type="line"/>
      <point x="396" y="56" type="line"/>
      <point x="390" y="0" type="line"/>
      <point x="136" y="0" type="line"/>
    </contour>
  </outline>
</glyph>
<glyph name="section" format="1">
  <advance width="578"/>
  <unicode hex="00A7"/>
  <outline>
    <contour>
      <point x="478" y="148" type="curve" smooth="yes"/>
      <point x="478" y="171"/>
      <point x="472" y="188"/>
      <point x="462" y="202" type="curve"/>
      <point x="512" y="226"/>
      <point x="545" y="262"/>
      <point x="545" y="310" type="curve" smooth="yes"/>
      <point x="545" y="407"/>
      <point x="409" y="418"/>
      <point x="305" y="437" type="curve" smooth="yes"/>
      <point x="233" y="450"/>
      <point x="178" y="466"/>
      <point x="178" y="522" type="curve" smooth="yes"/>
      <point x="178" y="580"/>
      <point x="237" y="607"/>
      <point x="312" y="607" type="curve" smooth="yes"/>
      <point x="352" y="607"/>
      <point x="399" y="598"/>
      <point x="437" y="580" type="curve"/>
      <point x="437" y="487" type="line"/>
      <point x="496" y="493" type="line"/>
      <point x="502" y="620" type="line"/>
      <point x="446" y="649"/>
      <point x="377" y="660"/>
      <point x="321" y="660" type="curve" smooth="yes"/>
      <point x="193" y="660"/>
      <point x="107" y="605"/>
      <point x="107" y="513" type="curve" smooth="yes"/>
      <point x="107" y="481"/>
      <point x="118" y="460"/>
      <point x="134" y="443" type="curve"/>
      <point x="80" y="422"/>
      <point x="44" y="386"/>
      <point x="44" y="339" type="curve" smooth="yes"/>
      <point x="44" y="254"/>
      <point x="160" y="235"/>
      <point x="257" y="222" type="curve"/>
      <point x="351" y="207"/>
      <point x="408" y="199"/>
      <point x="408" y="138" type="curve" smooth="yes"/>
      <point x="408" y="71"/>
      <point x="342" y="44"/>
      <point x="267" y="44" type="curve" smooth="yes"/>
      <point x="222" y="44"/>
      <point x="161" y="53"/>
      <point x="120" y="75" type="curve"/>
      <point x="132" y="151" type="line"/>
      <point x="76" y="157" type="line"/>
      <point x="52" y="47" type="line"/>
      <point x="104" y="11"/>
      <point x="192" y="-10"/>
      <point x="266" y="-10" type="curve" smooth="yes"/>
      <point x="394" y="-10"/>
      <point x="478" y="51"/>
    </contour>
    <contour>
      <point x="478" y="296" type="curve" smooth="yes"/>
      <point x="478" y="271"/>
      <point x="460" y="253"/>
      <point x="424" y="239" type="curve"/>
      <point x="388" y="257"/>
      <point x="344" y="265"/>
      <point x="288" y="274" type="curve" smooth="yes"/>
      <point x="169" y="294"/>
      <point x="112" y="305"/>
      <point x="112" y="350" type="curve" smooth="yes"/>
      <point x="112" y="380"/>
      <point x="136" y="401"/>
      <point x="171" y="414" type="curve"/>
      <point x="200" y="400"/>
      <point x="237" y="392"/>
      <point x="274" y="385" type="curve" smooth="yes"/>
      <point x="363" y="370"/>
      <point x="478" y="359"/>
    </contour>
  </outline>
</glyph>
<glyph name="dieresis" format="1">
  <advance width="387"/>
  <unicode hex="00A8"/>
  <outline>
    <contour>
      <point x="119" y="555" type="line"/>
      <point x="198" y="555" type="line"/>
      <point x="206" y="640" type="line"/>
      <point x="128" y="640" type="line"/>
    </contour>
    <contour>
      <point x="287" y="555" type="line"/>
      <point x="366" y="555" type="line"/>
      <point x="375" y="640" type="line"/>
      <point x="295" y="640" type="line"/>
    </contour>
  </outline>
</glyph>
<glyph name="copyright" format="1">
  <advance width="612"/>
  <unicode hex="00A9"/>
  <outline>
    <contour>
      <point x="597" y="285" type="curve" smooth="yes"/>
      <point x="597" y="421"/>
      <point x="501" y="529"/>
      <point x="361" y="529" type="curve" smooth="yes"/>
      <point x="206" y="529"/>
      <point x="69" y="396"/>
      <point x="69" y="236" type="curve" smooth="yes"/>
      <point x="69" y="99"/>
      <point x="169" y="-7"/>
      <point x="307" y="-7" type="curve" smooth="yes"/>
      <point x="459" y="-7"/>
      <point x="597" y="123"/>
    </contour>
    <contour>
      <point x="555" y="283" type="curve" smooth="yes"/>
      <point x="555" y="146"/>
      <point x="444" y="34"/>
      <point x="310" y="34" type="curve" smooth="yes"/>
      <point x="191" y="34"/>
      <point x="111" y="123"/>
      <point x="111" y="239" type="curve" smooth="yes"/>
      <point x="111" y="374"/>
      <point x="220" y="487"/>
      <point x="357" y="487" type="curve" smooth="yes"/>
      <point x="479" y="487"/>
      <point x="555" y="397"/>
    </contour>
    <contour>
      <point x="433" y="122" type="curve"/>
      <point x="449" y="187" type="line"/>
      <point x="414" y="191" type="line"/>
      <point x="400" y="140" type="line"/>
      <point x="378" y="129"/>
      <point x="357" y="127"/>
      <point x="337" y="127" type="curve" smooth="yes"/>
      <point x="254" y="127"/>
      <point x="220" y="172"/>
      <point x="220" y="245" type="curve" smooth="yes"/>
      <point x="220" y="334"/>
      <point x="271" y="399"/>
      <point x="355" y="399" type="curve" smooth="yes"/>
      <point x="390" y="399"/>
      <point x="411" y="389"/>
      <point x="427" y="377" type="curve"/>
      <point x="431" y="327" type="line"/>
      <point x="467" y="331" type="line"/>
      <point x="464" y="396" type="line"/>
      <point x="438" y="422"/>
      <point x="398" y="434"/>
      <point x="357" y="434" type="curve" smooth="yes"/>
      <point x="251" y="434"/>
      <point x="176" y="349"/>
      <point x="176" y="242" type="curve" smooth="yes"/>
      <point x="176" y="152"/>
      <point x="230" y="91"/>
      <point x="326" y="91" type="curve" smooth="yes"/>
      <point x="363" y="91"/>
      <point x="406" y="101"/>
    </contour>
  </outline>
</glyph>
<glyph name="ordfeminine" format="1">
  <advance width="385"/>
  <unicode hex="00AA"/>
  <outline>
    <contour>
      <point x="360" y="695" type="line"/>
      <point x="350" y="664"/>
      <point x="341" y="633"/>
      <point x="338" y="601" type="curve"/>
      <point x="318" y="450" type="line"/>
      <point x="361" y="450" type="line"/>
      <point x="359" y="418" type="line"/>
      <point x="343" y="405" type="line"/>
      <point x="268" y="405" type="line"/>
      <point x="269" y="465" type="line"/>
      <point x="250" y="429"/>
      <point x="219" y="398"/>
      <point x="168" y="398" type="curve" smooth="yes"/>
      <point x="102" y="398"/>
      <point x="68" y="448"/>
      <point x="68" y="521" type="curve" smooth="yes"/>
      <point x="68" y="597"/>
      <point x="104" y="701"/>
      <point x="206" y="701" type="curve" smooth="yes"/>
      <point x="250" y="701"/>
      <point x="282" y="680"/>
      <point x="294" y="645" type="curve"/>
      <point x="298" y="662"/>
      <point x="303" y="678"/>
      <point x="308" y="695" type="curve"/>
    </contour>
    <contour>
      <point x="213" y="657" type="curve" smooth="yes"/>
      <point x="145" y="657"/>
      <point x="125" y="586"/>
      <point x="125" y="529" type="curve" smooth="yes"/>
      <point x="125" y="473"/>
      <point x="146" y="443"/>
      <point x="185" y="443" type="curve" smooth="yes"/>
      <point x="238" y="443"/>
      <point x="272" y="497"/>
      <point x="276" y="538" type="curve"/>
      <point x="276" y="537" type="line"/>
      <point x="282" y="587" type="line"/>
      <point x="282" y="630"/>
      <point x="253" y="657"/>
    </contour>
  </outline>
</glyph>
<glyph name="logicalnot" format="1">
  <advance width="591"/>
  <unicode hex="00AC"/>
  <outline>
    <contour>
      <point x="461" y="99" type="line"/>
      <point x="512" y="99" type="line"/>
      <point x="534" y="308" type="line"/>
      <point x="63" y="308" type="line"/>
      <point x="58" y="256" type="line"/>
      <point x="477" y="256" type="line"/>
    </contour>
  </outline>
</glyph>
<glyph name="registered" format="1">
  <advance width="591"/>
  <unicode hex="00AE"/>
  <outline>
    <contour>
      <point x="296" y="159" type="curve" smooth="yes"/>
      <point x="435" y="159"/>
      <point x="547" y="270"/>
      <point x="547" y="409" type="curve" smooth="yes"/>
      <point x="547" y="548"/>
      <point x="437" y="660"/>
      <point x="297" y="660" type="curve" smooth="yes"/>
      <point x="157" y="660"/>
      <point x="46" y="548"/>
      <point x="46" y="409" type="curve" smooth="yes"/>
      <point x="46" y="269"/>
      <point x="158" y="159"/>
    </contour>
    <contour>
      <point x="297" y="200" type="curve" smooth="yes"/>
      <point x="176" y="200"/>
      <point x="88" y="293"/>
      <point x="88" y="409" type="curve" smooth="yes"/>
      <point x="88" y="525"/>
      <point x="175" y="619"/>
      <point x="297" y="619" type="curve" smooth="yes"/>
      <point x="418" y="619"/>
      <point x="504" y="525"/>
      <point x="504" y="409" type="curve" smooth="yes"/>
      <point x="504" y="294"/>
      <point x="416" y="200"/>
    </contour>
    <contour>
      <point x="177" y="308" type="line"/>
      <point x="213" y="308" type="line"/>
      <point x="213" y="528" type="line"/>
      <point x="177" y="528" type="line"/>
      <point x="177" y="559" type="line"/>
      <point x="306" y="559" type="line" smooth="yes"/>
      <point x="378" y="559"/>
      <point x="410" y="526"/>
      <point x="410" y="479" type="curve" smooth="yes"/>
      <point x="410" y="441"/>
      <point x="387" y="412"/>
      <point x="347" y="400" type="curve"/>
      <point x="398" y="308" type="line"/>
      <point x="434" y="308" type="line"/>
      <point x="434" y="277" type="line"/>
      <point x="371" y="277" type="line"/>
      <point x="309" y="393" type="line"/>
      <point x="252" y="393" type="line"/>
      <point x="252" y="308" type="line"/>
      <point x="290" y="308" type="line"/>
      <point x="290" y="277" type="line"/>
      <point x="177" y="277" type="line"/>
    </contour>
    <contour>
      <point x="299" y="423" type="line" smooth="yes"/>
      <point x="349" y="423"/>
      <point x="367" y="443"/>
      <point x="367" y="478" type="curve" smooth="yes"/>
      <point x="367" y="512"/>
      <point x="347" y="528"/>
      <point x="299" y="528" type="curve" smooth="yes"/>
      <point x="252" y="528" type="line"/>
      <point x="252" y="423" type="line"/>
    </contour>
  </outline>
</glyph>
<glyph name="macron" format="1">
  <advance width="328"/>
  <unicode hex="00AF"/>
  <outline>
    <contour>
      <point x="106" y="621" type="line"/>
      <point x="346" y="621" type="line"/>
      <point x="340" y="564" type="line"/>
      <point x="100" y="564" type="line"/>
    </contour>
  </outline>
</glyph>
<glyph name="acute" format="1">
  <advance width="431"/>
  <unicode hex="00B4"/>
  <outline>
    <contour>
      <point x="424" y="624" type="line"/>
      <point x="389" y="683" type="line"/>
      <point x="224" y="551" type="line"/>
      <point x="242" y="520" type="line"/>
    </contour>
  </outline>
</glyph>
<glyph name="mu" format="1">
  <advance width="558"/>
  <unicode hex="00B5"/>
  <outline>
    <contour>
      <point x="514" y="0" type="line"/>
      <point x="367" y="0" type="line"/>
      <point x="375" y="82" type="line"/>
      <point x="342" y="26"/>
      <point x="283" y="-10"/>
      <point x="214" y="-10" type="curve" smooth="yes"/>
      <point x="182" y="-10"/>
      <point x="155" y="-2"/>
      <point x="134" y="14" type="curve"/>
      <point x="111" y="-213" type="line"/>
      <point x="41" y="-213" type="line"/>
      <point x="105" y="388" type="line"/>
      <point x="29" y="388" type="line"/>
      <point x="35" y="445" type="line"/>
      <point x="181" y="445" type="line"/>
      <point x="152" y="177" type="line"/>
      <point x="143" y="83"/>
      <point x="181" y="47"/>
      <point x="242" y="47" type="curve" smooth="yes"/>
      <point x="316" y="47"/>
      <point x="373" y="109"/>
      <point x="384" y="171" type="curve"/>
      <point x="407" y="388" type="line"/>
      <point x="317" y="388" type="line"/>
      <point x="323" y="445" type="line"/>
      <point x="482" y="445" type="line"/>
      <point x="442" y="57" type="line"/>
      <point x="521" y="57" type="line"/>
    </contour>
  </outline>
</glyph>
<glyph name="cedilla" format="1">
  <advance width="251"/>
  <unicode hex="00B8"/>
  <outline>
    <contour>
      <point x="160" y="6" type="line"/>
      <point x="154" y="-47" type="line"/>
      <point x="162" y="-47" type="line" smooth="yes"/>
      <point x="217" y="-47"/>
      <point x="241" y="-76"/>
      <point x="241" y="-119" type="curve" smooth="yes"/>
      <point x="241" y="-181"/>
      <point x="186" y="-209"/>
      <point x="125" y="-209" type="curve" smooth="yes"/>
      <point x="89" y="-209"/>
      <point x="56" y="-199"/>
      <point x="35" y="-179" type="curve"/>
      <point x="56" y="-138" type="line"/>
      <point x="71" y="-151"/>
      <point x="97" y="-161"/>
      <point x="126" y="-161" type="curve" smooth="yes"/>
      <point x="159" y="-161"/>
      <point x="181" y="-148"/>
      <point x="181" y="-117" type="curve" smooth="yes"/>
      <point x="181" y="-87"/>
      <point x="160" y="-80"/>
      <point x="128" y="-80" type="curve" smooth="yes"/>
      <point x="99" y="-80" type="line"/>
      <point x="110" y="6" type="line"/>
    </contour>
  </outline>
</glyph>
<glyph name="ordmasculine" format="1">
  <advance width="354"/>
  <unicode hex="00BA"/>
  <outline>
    <contour>
      <point x="67" y="528" type="curve" smooth="yes"/>
      <point x="67" y="619"/>
      <point x="118" y="701"/>
      <point x="221" y="701" type="curve" smooth="yes"/>
      <point x="308" y="701"/>
      <point x="344" y="643"/>
      <point x="344" y="569" type="curve" smooth="yes"/>
      <point x="344" y="471"/>
      <point x="284" y="398"/>
      <point x="187" y="398" type="curve" smooth="yes"/>
      <point x="106" y="398"/>
      <point x="67" y="449"/>
    </contour>
    <contour>
      <point x="124" y="532" type="curve" smooth="yes"/>
      <point x="124" y="479"/>
      <point x="140" y="443"/>
      <point x="192" y="443" type="curve" smooth="yes"/>
      <point x="259" y="443"/>
      <point x="286" y="500"/>
      <point x="286" y="567" type="curve" smooth="yes"/>
      <point x="286" y="622"/>
      <point x="269" y="657"/>
      <point x="216" y="657" type="curve" smooth="yes"/>
      <point x="154" y="657"/>
      <point x="124" y="607"/>
    </contour>
    <contour>
      <point x="157" y="338" type="move" name="top"/>
    </contour>
  </outline>
</glyph>
<glyph name="onehalf" format="1">
  <advance width="731"/>
  <unicode hex="00BD"/>
  <outline>
    <contour>
      <point x="475" y="252" type="line"/>
      <point x="495" y="308" type="line"/>
      <point x="513" y="320"/>
      <point x="530" y="325"/>
      <point x="552" y="325" type="curve" smooth="yes"/>
      <point x="599" y="325"/>
      <point x="615" y="303"/>
      <point x="615" y="275" type="curve" smooth="yes"/>
      <point x="615" y="197"/>
      <point x="494" y="113"/>
      <point x="401" y="41" type="curve"/>
      <point x="402" y="0" type="line"/>
      <point x="670" y="0" type="line"/>
      <point x="688" y="93" type="line"/>
      <point x="640" y="98" type="line"/>
      <point x="628" y="45" type="line"/>
      <point x="474" y="45" type="line"/>
      <point x="530" y="87"/>
      <point x="679" y="183"/>
      <point x="679" y="280" type="curve" smooth="yes"/>
      <point x="679" y="328"/>
      <point x="643" y="370"/>
      <point x="565" y="370" type="curve" smooth="yes"/>
      <point x="524" y="370"/>
      <point x="482" y="358"/>
      <point x="451" y="333" type="curve"/>
      <point x="432" y="257" type="line"/>
    </contour>
    <contour>
      <point x="588" y="650" type="line"/>
      <point x="369" y="325" type="line"/>
      <point x="156" y="0" type="line"/>
      <point x="104" y="0" type="line"/>
      <point x="331" y="337" type="line"/>
      <point x="537" y="650" type="line"/>
    </contour>
    <contour>
      <point x="45" y="331" type="line"/>
      <point x="117" y="331" type="line"/>
      <point x="146" y="605" type="line"/>
      <point x="73" y="605" type="line"/>
      <point x="77" y="650" type="line"/>
      <point x="208" y="650" type="line"/>
      <point x="174" y="331" type="line"/>
      <point x="246" y="331" type="line"/>
      <point x="241" y="286" type="line"/>
      <point x="39" y="286" type="line"/>
    </contour>
  </outline>
</glyph>
<glyph name="threequarters" format="1">
  <advance width="718"/>
  <unicode hex="00BE"/>
  <outline>
    <contour>
      <point x="542" y="0" type="line"/>
      <point x="598" y="0" type="line"/>
      <point x="608" y="94" type="line"/>
      <point x="664" y="94" type="line"/>
      <point x="674" y="136" type="line"/>
      <point x="612" y="136" type="line"/>
      <point x="636" y="364" type="line"/>
      <point x="525" y="364" type="line"/>
      <point x="374" y="138" type="line"/>
      <point x="375" y="94" type="line"/>
      <point x="552" y="94" type="line"/>
    </contour>
    <contour>
      <point x="122" y="549" type="line"/>
      <point x="139" y="599" type="line"/>
      <point x="159" y="610"/>
      <point x="177" y="615"/>
      <point x="198" y="615" type="curve" smooth="yes"/>
      <point x="236" y="615"/>
      <point x="256" y="598"/>
      <point x="256" y="567" type="curve" smooth="yes"/>
      <point x="256" y="531"/>
      <point x="228" y="502"/>
      <point x="161" y="499" type="curve"/>
      <point x="157" y="461" type="line"/>
      <point x="228" y="459"/>
      <point x="253" y="439"/>
      <point x="253" y="401" type="curve" smooth="yes"/>
      <point x="253" y="362"/>
      <point x="225" y="329"/>
      <point x="172" y="329" type="curve" smooth="yes"/>
      <point x="121" y="329"/>
      <point x="96" y="361"/>
      <point x="93" y="393" type="curve"/>
      <point x="50" y="381" type="line"/>
      <point x="53" y="318"/>
      <point x="103" y="284"/>
      <point x="172" y="284" type="curve" smooth="yes"/>
      <point x="250" y="284"/>
      <point x="315" y="326"/>
      <point x="315" y="399" type="curve" smooth="yes"/>
      <point x="315" y="439"/>
      <point x="294" y="474"/>
      <point x="236" y="483" type="curve"/>
      <point x="236" y="485" type="line"/>
      <point x="295" y="502"/>
      <point x="318" y="540"/>
      <point x="318" y="577" type="curve" smooth="yes"/>
      <point x="318" y="629"/>
      <point x="273" y="660"/>
      <point x="210" y="660" type="curve" smooth="yes"/>
      <point x="172" y="660"/>
      <point x="127" y="649"/>
      <point x="95" y="623" type="curve"/>
      <point x="79" y="554" type="line"/>
    </contour>
    <contour>
      <point x="620" y="650" type="line"/>
      <point x="401" y="325" type="line"/>
      <point x="188" y="0" type="line"/>
      <point x="136" y="0" type="line"/>
      <point x="363" y="337" type="line"/>
      <point x="569" y="650" type="line"/>
    </contour>
    <contour>
      <point x="547" y="319" type="line"/>
      <point x="576" y="319" type="line"/>
      <point x="556" y="136" type="line"/>
      <point x="425" y="136" type="line"/>
    </contour>
  </outline>
</glyph>
<glyph name="Aacute" format="1">
  <advance width="633"/>
  <unicode hex="00C1"/>
  <outline>
    <contour>
      <point x="-18" y="64" type="line"/>
      <point x="42" y="64" type="line"/>
      <point x="304" y="586" type="line"/>
      <point x="203" y="586" type="line"/>
      <point x="209" y="650" type="line"/>
      <point x="389" y="650" type="line"/>
      <point x="556" y="64" type="line"/>
      <point x="618" y="64" type="line"/>
      <point x="611" y="0" type="line"/>
      <point x="388" y="0" type="line"/>
      <point x="394" y="64" type="line"/>
      <point x="479" y="64" type="line"/>
      <point x="446" y="189" type="line"/>
      <point x="176" y="189" type="line"/>
      <point x="115" y="64" type="line"/>
      <point x="205" y="64" type="line"/>
      <point x="199" y="0" type="line"/>
      <point x="-23" y="0" type="line"/>
    </contour>
    <contour>
      <point x="349" y="544" type="line"/>
      <point x="204" y="246" type="line"/>
      <point x="431" y="246" type="line"/>
      <point x="353" y="544" type="line"/>
    </contour>
    <contour>
      <point x="530" y="745" type="line"/>
      <point x="514" y="813" type="line"/>
      <point x="319" y="740" type="line"/>
      <point x="328" y="703" type="line"/>
    </contour>
  </outline>
</glyph>
<glyph name="Eacute" format="1">
  <advance width="573"/>
  <unicode hex="00C9"/>
  <outline>
    <contour>
      <point x="500" y="745" type="line"/>
      <point x="484" y="813" type="line"/>
      <point x="289" y="740" type="line"/>
      <point x="298" y="703" type="line"/>
    </contour>
    <contour>
      <point x="481" y="0" type="line"/>
      <point x="12" y="0" type="line"/>
      <point x="18" y="64" type="line"/>
      <point x="98" y="64" type="line"/>
      <point x="154" y="586" type="line"/>
      <point x="73" y="586" type="line"/>
      <point x="80" y="650" type="line"/>
      <point x="545" y="650" type="line"/>
      <point x="545" y="466" type="line"/>
      <point x="482" y="459" type="line"/>
      <point x="476" y="586" type="line"/>
      <point x="225" y="586" type="line"/>
      <point x="200" y="362" type="line"/>
      <point x="502" y="362" type="line"/>
      <point x="496" y="298" type="line"/>
      <point x="194" y="298" type="line"/>
      <point x="169" y="64" type="line"/>
      <point x="425" y="64" type="line"/>
      <point x="458" y="191" type="line"/>
      <point x="519" y="184" type="line"/>
    </contour>
  </outline>
</glyph>
<glyph name="Idieresis" format="1">
  <advance width="311"/>
  <unicode hex="00CF"/>
  <outline>
    <contour>
      <point x="19" y="64" type="line"/>
      <point x="98" y="64" type="line"/>
      <point x="153" y="586" type="line"/>
      <point x="73" y="586" type="line"/>
      <point x="80" y="650" type="line"/>
      <point x="309" y="650" type="line"/>
      <point x="303" y="586" type="line"/>
      <point x="222" y="586" type="line"/>
      <point x="167" y="64" type="line"/>
      <point x="248" y="64" type="line"/>
      <point x="241" y="0" type="line"/>
      <point x="12" y="0" type="line"/>
    </contour>
    <contour>
      <point x="246" y="718" type="line"/>
      <point x="326" y="718" type="line"/>
      <point x="334" y="803" type="line"/>
      <point x="255" y="803" type="line"/>
    </contour>
    <contour>
      <point x="79" y="718" type="line"/>
      <point x="157" y="718" type="line"/>
      <point x="166" y="803" type="line"/>
      <point x="87" y="803" type="line"/>
    </contour>
  </outline>
</glyph>
<glyph name="Ntilde" format="1">
  <advance width="715"/>
  <unicode hex="00D1"/>
  <outline>
    <contour>
      <point x="25" y="64" type="line"/>
      <point x="98" y="64" type="line"/>
      <point x="153" y="586" type="line"/>
      <point x="70" y="586" type="line"/>
      <point x="77" y="650" type="line"/>
      <point x="211" y="650" type="line"/>
      <point x="520" y="148" type="line"/>
      <point x="523" y="148" type="line"/>
      <point x="568" y="586" type="line"/>
      <point x="474" y="586" type="line"/>
      <point x="480" y="650" type="line"/>
      <point x="722" y="650" type="line"/>
      <point x="716" y="586" type="line"/>
      <point x="636" y="586" type="line"/>
      <point x="575" y="0" type="line"/>
      <point x="530" y="0" type="line"/>
      <point x="216" y="512" type="line"/>
      <point x="213" y="512" type="line"/>
      <point x="165" y="64" type="line"/>
      <point x="267" y="64" type="line"/>
      <point x="261" y="0" type="line"/>
      <point x="18" y="0" type="line"/>
    </contour>
    <contour>
      <point x="284" y="705" type="line"/>
      <point x="298" y="737"/>
      <point x="320" y="744"/>
      <point x="338" y="744" type="curve" smooth="yes"/>
      <point x="376" y="744"/>
      <point x="406" y="709"/>
      <point x="455" y="709" type="curve" smooth="yes"/>
      <point x="501" y="709"/>
      <point x="526" y="744"/>
      <point x="540" y="798" type="curve"/>
      <point x="506" y="807" type="line"/>
      <point x="491" y="770"/>
      <point x="473" y="765"/>
      <point x="456" y="765" type="curve" smooth="yes"/>
      <point x="409" y="765"/>
      <point x="386" y="800"/>
      <point x="342" y="800" type="curve" smooth="yes"/>
      <point x="292" y="800"/>
      <point x="262" y="752"/>
      <point x="253" y="718" type="curve"/>
    </contour>
  </outline>
</glyph>
<glyph name="Oacute" format="1">
  <advance width="710"/>
  <unicode hex="00D3"/>
  <outline>
    <contour>
      <point x="549" y="745" type="line"/>
      <point x="533" y="813" type="line"/>
      <point x="338" y="740" type="line"/>
      <point x="347" y="703" type="line"/>
    </contour>
    <contour>
      <point x="393" y="660" type="curve" smooth="yes"/>
      <point x="194" y="660"/>
      <point x="42" y="494"/>
      <point x="42" y="291" type="curve" smooth="yes"/>
      <point x="42" y="125"/>
      <point x="148" y="-10"/>
      <point x="325" y="-10" type="curve" smooth="yes"/>
      <point x="529" y="-10"/>
      <point x="678" y="159"/>
      <point x="678" y="359" type="curve" smooth="yes"/>
      <point x="678" y="526"/>
      <point x="569" y="660"/>
    </contour>
    <contour>
      <point x="336" y="56" type="curve" smooth="yes"/>
      <point x="187" y="56"/>
      <point x="118" y="167"/>
      <point x="118" y="297" type="curve" smooth="yes"/>
      <point x="118" y="458"/>
      <point x="226" y="594"/>
      <point x="385" y="594" type="curve" smooth="yes"/>
      <point x="524" y="594"/>
      <point x="602" y="494"/>
      <point x="602" y="354" type="curve" smooth="yes"/>
      <point x="602" y="196"/>
      <point x="500" y="56"/>
    </contour>
  </outline>
</glyph>
<glyph name="Otilde" format="1">
  <advance width="710"/>
  <unicode hex="00D5"/>
  <outline>
    <contour>
      <point x="296" y="705" type="line"/>
      <point x="310" y="737"/>
      <point x="332" y="744"/>
      <point x="350" y="744" type="curve" smooth="yes"/>
      <point x="388" y="744"/>
      <point x="418" y="709"/>
      <point x="467" y="709" type="curve" smooth="yes"/>
      <point x="513" y="709"/>
      <point x="538" y="744"/>
      <point x="552" y="798" type="curve"/>
      <point x="518" y="807" type="line"/>
      <point x="503" y="770"/>
      <point x="485" y="765"/>
      <point x="468" y="765" type="curve" smooth="yes"/>
      <point x="421" y="765"/>
      <point x="398" y="800"/>
      <point x="354" y="800" type="curve" smooth="yes"/>
      <point x="304" y="800"/>
      <point x="274" y="752"/>
      <point x="265" y="718" type="curve"/>
    </contour>
    <contour>
      <point x="393" y="660" type="curve" smooth="yes"/>
      <point x="194" y="660"/>
      <point x="42" y="494"/>
      <point x="42" y="291" type="curve" smooth="yes"/>
      <point x="42" y="125"/>
      <point x="148" y="-10"/>
      <point x="325" y="-10" type="curve" smooth="yes"/>
      <point x="529" y="-10"/>
      <point x="678" y="159"/>
      <point x="678" y="359" type="curve" smooth="yes"/>
      <point x="678" y="526"/>
      <point x="569" y="660"/>
    </contour>
    <contour>
      <point x="336" y="56" type="curve" smooth="yes"/>
      <point x="187" y="56"/>
      <point x="118" y="167"/>
      <point x="118" y="297" type="curve" smooth="yes"/>
      <point x="118" y="458"/>
      <point x="226" y="594"/>
      <point x="385" y="594" type="curve" smooth="yes"/>
      <point x="524" y="594"/>
      <point x="602" y="494"/>
      <point x="602" y="354" type="curve" smooth="yes"/>
      <point x="602" y="196"/>
      <point x="500" y="56"/>
    </contour>
  </outline>
</glyph>
<glyph name="Odieresis" format="1">
  <advance width="710"/>
  <unicode hex="00D6"/>
  <outline>
    <contour>
      <point x="284" y="718" type="line"/>
      <point x="362" y="718" type="line"/>
      <point x="371" y="803" type="line"/>
      <point x="292" y="803" type="line"/>
    </contour>
    <contour>
      <point x="451" y="718" type="line"/>
      <point x="531" y="718" type="line"/>
      <point x="539" y="803" type="line"/>
      <point x="460" y="803" type="line"/>
    </contour>
    <contour>
      <point x="393" y="660" type="curve" smooth="yes"/>
      <point x="194" y="660"/>
      <point x="42" y="494"/>
      <point x="42" y="291" type="curve" smooth="yes"/>
      <point x="42" y="125"/>
      <point x="148" y="-10"/>
      <point x="325" y="-10" type="curve" smooth="yes"/>
      <point x="529" y="-10"/>
      <point x="678" y="159"/>
      <point x="678" y="359" type="curve" smooth="yes"/>
      <point x="678" y="526"/>
      <point x="569" y="660"/>
    </contour>
    <contour>
      <point x="336" y="56" type="curve" smooth="yes"/>
      <point x="187" y="56"/>
      <point x="118" y="167"/>
      <point x="118" y="297" type="curve" smooth="yes"/>
      <point x="118" y="458"/>
      <point x="226" y="594"/>
      <point x="385" y="594" type="curve" smooth="yes"/>
      <point x="524" y="594"/>
      <point x="602" y="494"/>
      <point x="602" y="354" type="curve" smooth="yes"/>
      <point x="602" y="196"/>
      <point x="500" y="56"/>
    </contour>
  </outline>
</glyph>
<glyph name="multiply" format="1">
  <advance width="381"/>
  <unicode hex="00D7"/>
  <outline>
    <contour>
      <point x="72" y="131" type="line"/>
      <point x="187" y="237" type="line"/>
      <point x="278" y="133" type="line"/>
      <point x="318" y="172" type="line"/>
      <point x="228" y="275" type="line"/>
      <point x="338" y="377" type="line"/>
      <point x="306" y="415" type="line"/>
      <point x="195" y="312" type="line"/>
      <point x="104" y="417" type="line"/>
      <point x="64" y="379" type="line"/>
      <point x="154" y="275" type="line"/>
      <point x="40" y="169" type="line"/>
    </contour>
  </outline>
</glyph>
<glyph name="Thorn" format="1">
  <advance width="556"/>
  <unicode hex="00DE"/>
  <outline>
    <contour>
      <point x="19" y="64" type="line"/>
      <point x="98" y="64" type="line"/>
      <point x="153" y="586" type="line"/>
      <point x="73" y="586" type="line"/>
      <point x="80" y="650" type="line"/>
      <point x="309" y="650" type="line"/>
      <point x="303" y="586" type="line"/>
      <point x="222" y="586" type="line"/>
      <point x="216" y="525" type="line"/>
      <point x="336" y="525" type="line" smooth="yes"/>
      <point x="480" y="525"/>
      <point x="539" y="456"/>
      <point x="539" y="356" type="curve" smooth="yes"/>
      <point x="539" y="218"/>
      <point x="439" y="143"/>
      <point x="301" y="143" type="curve" smooth="yes"/>
      <point x="176" y="143" type="line"/>
      <point x="167" y="64" type="line"/>
      <point x="248" y="64" type="line"/>
      <point x="241" y="0" type="line"/>
      <point x="12" y="0" type="line"/>
    </contour>
    <contour>
      <point x="297" y="194" type="line" smooth="yes"/>
      <point x="404" y="194"/>
      <point x="462" y="256"/>
      <point x="462" y="352" type="curve" smooth="yes"/>
      <point x="462" y="430"/>
      <point x="421" y="474"/>
      <point x="325" y="474" type="curve" smooth="yes"/>
      <point x="210" y="474" type="line"/>
      <point x="181" y="194" type="line"/>
    </contour>
  </outline>
</glyph>
<glyph name="aring" format="1">
  <advance width="504"/>
  <unicode hex="00E5"/>
  <outline>
    <contour>
      <point x="456" y="445" type="line"/>
      <point x="443" y="399"/>
      <point x="431" y="353"/>
      <point x="426" y="307" type="curve"/>
      <point x="394" y="57" type="line"/>
      <point x="461" y="57" type="line"/>
      <point x="457" y="17" type="line"/>
      <point x="436" y="0" type="line"/>
      <point x="331" y="0" type="line"/>
      <point x="333" y="90" type="line"/>
      <point x="304" y="36"/>
      <point x="259" y="-10"/>
      <point x="181" y="-10" type="curve" smooth="yes"/>
      <point x="84" y="-10"/>
      <point x="32" y="63"/>
      <point x="32" y="178" type="curve" smooth="yes"/>
      <point x="32" y="292"/>
      <point x="84" y="454"/>
      <point x="238" y="454" type="curve" smooth="yes"/>
      <point x="303" y="454"/>
      <point x="351" y="424"/>
      <point x="370" y="370" type="curve"/>
      <point x="376" y="395"/>
      <point x="382" y="420"/>
      <point x="390" y="445" type="curve"/>
    </contour>
    <contour>
      <point x="245" y="397" type="curve" smooth="yes"/>
      <point x="136" y="397"/>
      <point x="105" y="276"/>
      <point x="105" y="189" type="curve" smooth="yes"/>
      <point x="105" y="96"/>
      <point x="140" y="47"/>
      <point x="202" y="47" type="curve" smooth="yes"/>
      <point x="275" y="47"/>
      <point x="327" y="122"/>
      <point x="341" y="183" type="curve"/>
      <point x="354" y="281" type="line"/>
      <point x="353" y="348"/>
      <point x="309" y="397"/>
    </contour>
    <contour>
      <point x="288" y="514" type="curve" smooth="yes"/>
      <point x="359" y="514"/>
      <point x="397" y="562"/>
      <point x="397" y="617" type="curve" smooth="yes"/>
      <point x="397" y="665"/>
      <point x="366" y="698"/>
      <point x="310" y="698" type="curve" smooth="yes"/>
      <point x="243" y="698"/>
      <point x="202" y="656"/>
      <point x="202" y="595" type="curve" smooth="yes"/>
      <point x="202" y="547"/>
      <point x="231" y="514"/>
    </contour>
    <contour>
      <point x="293" y="554" type="curve" smooth="yes"/>
      <point x="263" y="554"/>
      <point x="251" y="571"/>
      <point x="251" y="598" type="curve" smooth="yes"/>
      <point x="251" y="634"/>
      <point x="270" y="658"/>
      <point x="305" y="658" type="curve" smooth="yes"/>
      <point x="338" y="658"/>
      <point x="349" y="638"/>
      <point x="349" y="614" type="curve" smooth="yes"/>
      <point x="349" y="578"/>
      <point x="329" y="554"/>
    </contour>
  </outline>
</glyph>
<glyph name="egrave" format="1">
  <advance width="437"/>
  <unicode hex="00E8"/>
  <outline>
    <contour>
      <point x="213" y="47" type="curve" smooth="yes"/>
      <point x="274" y="47"/>
      <point x="313" y="82"/>
      <point x="334" y="137" type="curve"/>
      <point x="389" y="124" type="line"/>
      <point x="370" y="50"/>
      <point x="305" y="-10"/>
      <point x="202" y="-10" type="curve" smooth="yes"/>
      <point x="94" y="-10"/>
      <point x="31" y="58"/>
      <point x="31" y="183" type="curve" smooth="yes"/>
      <point x="31" y="335"/>
      <point x="120" y="454"/>
      <point x="256" y="454" type="curve" smooth="yes"/>
      <point x="335" y="454"/>
      <point x="399" y="412"/>
      <point x="399" y="343" type="curve" smooth="yes"/>
      <point x="399" y="277"/>
      <point x="354" y="230"/>
      <point x="240" y="206" type="curve" smooth="yes"/>
      <point x="199" y="198"/>
      <point x="152" y="189"/>
      <point x="104" y="182" type="curve"/>
      <point x="105" y="98"/>
      <point x="134" y="47"/>
    </contour>
    <contour>
      <point x="211" y="248" type="curve"/>
      <point x="312" y="271"/>
      <point x="326" y="305"/>
      <point x="326" y="337" type="curve" smooth="yes"/>
      <point x="326" y="382"/>
      <point x="295" y="399"/>
      <point x="249" y="399" type="curve" smooth="yes"/>
      <point x="156" y="399"/>
      <point x="116" y="316"/>
      <point x="106" y="232" type="curve"/>
      <point x="152" y="238"/>
      <point x="185" y="243"/>
    </contour>
    <contour>
      <point x="304" y="520" type="line"/>
      <point x="323" y="551" type="line"/>
      <point x="157" y="683" type="line"/>
      <point x="122" y="624" type="line"/>
    </contour>
  </outline>
</glyph>
<glyph name="ecircumflex" format="1">
  <advance width="437"/>
  <unicode hex="00EA"/>
  <outline>
    <contour>
      <point x="213" y="47" type="curve" smooth="yes"/>
      <point x="274" y="47"/>
      <point x="313" y="82"/>
      <point x="334" y="137" type="curve"/>
      <point x="389" y="124" type="line"/>
      <point x="370" y="50"/>
      <point x="305" y="-10"/>
      <point x="202" y="-10" type="curve" smooth="yes"/>
      <point x="94" y="-10"/>
      <point x="31" y="58"/>
      <point x="31" y="183" type="curve" smooth="yes"/>
      <point x="31" y="335"/>
      <point x="120" y="454"/>
      <point x="256" y="454" type="curve" smooth="yes"/>
      <point x="335" y="454"/>
      <point x="399" y="412"/>
      <point x="399" y="343" type="curve" smooth="yes"/>
      <point x="399" y="277"/>
      <point x="354" y="230"/>
      <point x="240" y="206" type="curve" smooth="yes"/>
      <point x="199" y="198"/>
      <point x="152" y="189"/>
      <point x="104" y="182" type="curve"/>
      <point x="105" y="98"/>
      <point x="134" y="47"/>
    </contour>
    <contour>
      <point x="211" y="248" type="curve"/>
      <point x="312" y="271"/>
      <point x="326" y="305"/>
      <point x="326" y="337" type="curve" smooth="yes"/>
      <point x="326" y="382"/>
      <point x="295" y="399"/>
      <point x="249" y="399" type="curve" smooth="yes"/>
      <point x="156" y="399"/>
      <point x="116" y="316"/>
      <point x="106" y="232" type="curve"/>
      <point x="152" y="238"/>
      <point x="185" y="243"/>
    </contour>
    <contour>
      <point x="295" y="671" type="line"/>
      <point x="273" y="671" type="line"/>
      <point x="141" y="550" type="line"/>
      <point x="165" y="519" type="line"/>
      <point x="275" y="605" type="line"/>
      <point x="372" y="519" type="line"/>
      <point x="401" y="550" type="line"/>
    </contour>
  </outline>
</glyph>
<glyph name="igrave" format="1">
  <advance width="256"/>
  <unicode hex="00EC"/>
  <outline>
    <contour>
      <point x="36" y="426" type="line"/>
      <point x="57" y="445" type="line"/>
      <point x="183" y="445" type="line"/>
      <point x="136" y="57" type="line"/>
      <point x="211" y="57" type="line"/>
      <point x="206" y="17" type="line"/>
      <point x="184" y="0" type="line"/>
      <point x="61" y="0" type="line"/>
      <point x="108" y="388" type="line"/>
      <point x="31" y="388" type="line"/>
    </contour>
    <contour>
      <point x="199" y="520" type="line"/>
      <point x="218" y="551" type="line"/>
      <point x="52" y="683" type="line"/>
      <point x="17" y="624" type="line"/>
    </contour>
  </outline>
</glyph>
<glyph name="icircumflex" format="1">
  <advance width="256"/>
  <unicode hex="00EE"/>
  <outline>
    <contour>
      <point x="36" y="426" type="line"/>
      <point x="57" y="445" type="line"/>
      <point x="183" y="445" type="line"/>
      <point x="136" y="57" type="line"/>
      <point x="211" y="57" type="line"/>
      <point x="206" y="17" type="line"/>
      <point x="184" y="0" type="line"/>
      <point x="61" y="0" type="line"/>
      <point x="108" y="388" type="line"/>
      <point x="31" y="388" type="line"/>
    </contour>
    <contour>
      <point x="178" y="671" type="line"/>
      <point x="156" y="671" type="line"/>
      <point x="24" y="550" type="line"/>
      <point x="48" y="519" type="line"/>
      <point x="158" y="605" type="line"/>
      <point x="255" y="519" type="line"/>
      <point x="284" y="550" type="line"/>
    </contour>
  </outline>
</glyph>
<glyph name="idieresis" format="1">
  <advance width="255"/>
  <unicode hex="00EF"/>
  <outline>
    <contour>
      <point x="36" y="426" type="line"/>
      <point x="57" y="445" type="line"/>
      <point x="183" y="445" type="line"/>
      <point x="136" y="57" type="line"/>
      <point x="211" y="57" type="line"/>
      <point x="206" y="17" type="line"/>
      <point x="184" y="0" type="line"/>
      <point x="61" y="0" type="line"/>
      <point x="108" y="388" type="line"/>
      <point x="31" y="388" type="line"/>
    </contour>
    <contour>
      <point x="203" y="555" type="line"/>
      <point x="282" y="555" type="line"/>
      <point x="291" y="640" type="line"/>
      <point x="211" y="640" type="line"/>
    </contour>
    <contour>
      <point x="35" y="555" type="line"/>
      <point x="114" y="555" type="line"/>
      <point x="122" y="640" type="line"/>
      <point x="44" y="640" type="line"/>
    </contour>
  </outline>
</glyph>
<glyph name="ntilde" format="1">
  <advance width="523"/>
  <unicode hex="00F1"/>
  <outline>
    <contour>
      <point x="55" y="445" type="line"/>
      <point x="169" y="445" type="line"/>
      <point x="168" y="359" type="line"/>
      <point x="200" y="417"/>
      <point x="248" y="454"/>
      <point x="318" y="454" type="curve" smooth="yes"/>
      <point x="403" y="454"/>
      <point x="460" y="403"/>
      <point x="446" y="285" type="curve" smooth="yes"/>
      <point x="418" y="57" type="line"/>
      <point x="493" y="57" type="line"/>
      <point x="488" y="17" type="line"/>
      <point x="467" y="0" type="line"/>
      <point x="344" y="0" type="line"/>
      <point x="376" y="264" type="line" smooth="yes"/>
      <point x="387" y="360"/>
      <point x="354" y="397"/>
      <point x="290" y="397" type="curve" smooth="yes"/>
      <point x="218" y="397"/>
      <point x="172" y="338"/>
      <point x="160" y="274" type="curve"/>
      <point x="126" y="0" type="line"/>
      <point x="59" y="0" type="line"/>
      <point x="106" y="388" type="line"/>
      <point x="28" y="388" type="line"/>
      <point x="33" y="426" type="line"/>
    </contour>
    <contour>
      <point x="180" y="549" type="line"/>
      <point x="193" y="581"/>
      <point x="215" y="592"/>
      <point x="234" y="592" type="curve" smooth="yes"/>
      <point x="270" y="592"/>
      <point x="299" y="553"/>
      <point x="350" y="553" type="curve" smooth="yes"/>
      <point x="396" y="553"/>
      <point x="420" y="592"/>
      <point x="435" y="646" type="curve"/>
      <point x="400" y="655" type="line"/>
      <point x="387" y="619"/>
      <point x="369" y="612"/>
      <point x="351" y="612" type="curve" smooth="yes"/>
      <point x="304" y="612"/>
      <point x="281" y="649"/>
      <point x="238" y="649" type="curve" smooth="yes"/>
      <point x="188" y="649"/>
      <point x="156" y="596"/>
      <point x="148" y="561" type="curve"/>
    </contour>
  </outline>
</glyph>
<glyph name="ograve" format="1">
  <advance width="481"/>
  <unicode hex="00F2"/>
  <outline>
    <contour>
      <point x="31" y="189" type="curve" smooth="yes"/>
      <point x="31" y="329"/>
      <point x="109" y="454"/>
      <point x="260" y="454" type="curve" smooth="yes"/>
      <point x="388" y="454"/>
      <point x="437" y="364"/>
      <point x="437" y="252" type="curve" smooth="yes"/>
      <point x="437" y="104"/>
      <point x="352" y="-10"/>
      <point x="208" y="-10" type="curve" smooth="yes"/>
      <point x="87" y="-10"/>
      <point x="31" y="71"/>
    </contour>
    <contour>
      <point x="105" y="193" type="curve" smooth="yes"/>
      <point x="105" y="107"/>
      <point x="131" y="47"/>
      <point x="215" y="47" type="curve" smooth="yes"/>
      <point x="319" y="47"/>
      <point x="364" y="140"/>
      <point x="364" y="250" type="curve" smooth="yes"/>
      <point x="364" y="337"/>
      <point x="337" y="397"/>
      <point x="252" y="397" type="curve" smooth="yes"/>
      <point x="155" y="397"/>
      <point x="105" y="313"/>
    </contour>
    <contour>
      <point x="311" y="520" type="line"/>
      <point x="330" y="551" type="line"/>
      <point x="164" y="683" type="line"/>
      <point x="129" y="624" type="line"/>
    </contour>
  </outline>
</glyph>
<glyph name="otilde" format="1">
  <advance width="481"/>
  <unicode hex="00F5"/>
  <outline>
    <contour>
      <point x="31" y="189" type="curve" smooth="yes"/>
      <point x="31" y="329"/>
      <point x="109" y="454"/>
      <point x="260" y="454" type="curve" smooth="yes"/>
      <point x="388" y="454"/>
      <point x="437" y="364"/>
      <point x="437" y="252" type="curve" smooth="yes"/>
      <point x="437" y="104"/>
      <point x="352" y="-10"/>
      <point x="208" y="-10" type="curve" smooth="yes"/>
      <point x="87" y="-10"/>
      <point x="31" y="71"/>
    </contour>
    <contour>
      <point x="105" y="193" type="curve" smooth="yes"/>
      <point x="105" y="107"/>
      <point x="131" y="47"/>
      <point x="215" y="47" type="curve" smooth="yes"/>
      <point x="319" y="47"/>
      <point x="364" y="140"/>
      <point x="364" y="250" type="curve" smooth="yes"/>
      <point x="364" y="337"/>
      <point x="337" y="397"/>
      <point x="252" y="397" type="curve" smooth="yes"/>
      <point x="155" y="397"/>
      <point x="105" y="313"/>
    </contour>
    <contour>
      <point x="168" y="549" type="line"/>
      <point x="181" y="581"/>
      <point x="203" y="592"/>
      <point x="222" y="592" type="curve" smooth="yes"/>
      <point x="258" y="592"/>
      <point x="287" y="553"/>
      <point x="338" y="553" type="curve" smooth="yes"/>
      <point x="384" y="553"/>
      <point x="408" y="592"/>
      <point x="423" y="646" type="curve"/>
      <point x="388" y="655" type="line"/>
      <point x="375" y="619"/>
      <point x="357" y="612"/>
      <point x="339" y="612" type="curve" smooth="yes"/>
      <point x="292" y="612"/>
      <point x="269" y="649"/>
      <point x="226" y="649" type="curve" smooth="yes"/>
      <point x="176" y="649"/>
      <point x="144" y="596"/>
      <point x="136" y="561" type="curve"/>
    </contour>
  </outline>
</glyph>
<glyph name="divide" format="1">
  <advance width="437"/>
  <unicode hex="00F7"/>
  <outline>
    <contour>
      <point x="46" y="254" type="line"/>
      <point x="386" y="254" type="line"/>
      <point x="392" y="308" type="line"/>
      <point x="52" y="308" type="line"/>
    </contour>
    <contour>
      <point x="152" y="91" type="line"/>
      <point x="245" y="91" type="line"/>
      <point x="255" y="192" type="line"/>
      <point x="162" y="192" type="line"/>
    </contour>
    <contour>
      <point x="182" y="375" type="line"/>
      <point x="275" y="375" type="line"/>
      <point x="285" y="476" type="line"/>
      <point x="192" y="476" type="line"/>
    </contour>
  </outline>
</glyph>
<glyph name="oslash" format="1">
  <advance width="478"/>
  <unicode hex="00F8"/>
  <outline>
    <contour>
      <point x="30" y="189" type="curve" smooth="yes"/>
      <point x="30" y="329"/>
      <point x="108" y="454"/>
      <point x="259" y="454" type="curve" smooth="yes"/>
      <point x="302" y="454"/>
      <point x="336" y="444"/>
      <point x="363" y="426" type="curve"/>
      <point x="378" y="445" type="line"/>
      <point x="436" y="445" type="line"/>
      <point x="396" y="394" type="line"/>
      <point x="424" y="357"/>
      <point x="436" y="307"/>
      <point x="436" y="252" type="curve" smooth="yes"/>
      <point x="436" y="104"/>
      <point x="351" y="-10"/>
      <point x="207" y="-10" type="curve" smooth="yes"/>
      <point x="164" y="-10"/>
      <point x="129" y="0"/>
      <point x="102" y="19" type="curve"/>
      <point x="87" y="0" type="line"/>
      <point x="28" y="0" type="line"/>
      <point x="68" y="51" type="line"/>
      <point x="42" y="86"/>
      <point x="30" y="133"/>
    </contour>
    <contour>
      <point x="214" y="47" type="curve" smooth="yes"/>
      <point x="318" y="47"/>
      <point x="363" y="140"/>
      <point x="363" y="250" type="curve" smooth="yes"/>
      <point x="363" y="283"/>
      <point x="359" y="311"/>
      <point x="350" y="335" type="curve"/>
      <point x="142" y="70" type="line"/>
      <point x="159" y="55"/>
      <point x="182" y="47"/>
    </contour>
    <contour>
      <point x="104" y="193" type="curve" smooth="yes"/>
      <point x="104" y="162"/>
      <point x="107" y="134"/>
      <point x="115" y="111" type="curve"/>
      <point x="322" y="374" type="line"/>
      <point x="305" y="389"/>
      <point x="282" y="397"/>
      <point x="251" y="397" type="curve" smooth="yes"/>
      <point x="154" y="397"/>
      <point x="104" y="313"/>
    </contour>
  </outline>
</glyph>
<glyph name="ucircumflex" format="1">
  <advance width="522"/>
  <unicode hex="00FB"/>
  <outline>
    <contour>
      <point x="483" y="57" type="line"/>
      <point x="478" y="19" type="line"/>
      <point x="456" y="0" type="line"/>
      <point x="341" y="0" type="line"/>
      <point x="342" y="85" type="line"/>
      <point x="311" y="28"/>
      <point x="264" y="-9"/>
      <point x="195" y="-9" type="curve" smooth="yes"/>
      <point x="110" y="-9"/>
      <point x="54" y="42"/>
      <point x="67" y="160" type="curve"/>
      <point x="95" y="388" type="line"/>
      <point x="20" y="388" type="line"/>
      <point x="25" y="428" type="line"/>
      <point x="47" y="445" type="line"/>
      <point x="170" y="445" type="line"/>
      <point x="138" y="180" type="line" smooth="yes"/>
      <point x="126" y="85"/>
      <point x="155" y="48"/>
      <point x="223" y="48" type="curve" smooth="yes"/>
      <point x="293" y="48"/>
      <point x="336" y="103"/>
      <point x="349" y="164" type="curve"/>
      <point x="384" y="445" type="line"/>
      <point x="452" y="445" type="line"/>
      <point x="405" y="57" type="line"/>
    </contour>
    <contour>
      <point x="311" y="671" type="line"/>
      <point x="289" y="671" type="line"/>
      <point x="157" y="550" type="line"/>
      <point x="181" y="519" type="line"/>
      <point x="291" y="605" type="line"/>
      <point x="388" y="519" type="line"/>
      <point x="417" y="550" type="line"/>
    </contour>
  </outline>
</glyph>
<glyph name="amacron" format="1">
  <advance width="504"/>
  <unicode hex="0101"/>
  <outline>
    <contour>
      <point x="456" y="445" type="line"/>
      <point x="443" y="399"/>
      <point x="431" y="353"/>
      <point x="426" y="307" type="curve"/>
      <point x="394" y="57" type="line"/>
      <point x="461" y="57" type="line"/>
      <point x="457" y="17" type="line"/>
      <point x="436" y="0" type="line"/>
      <point x="331" y="0" type="line"/>
      <point x="333" y="90" type="line"/>
      <point x="304" y="36"/>
      <point x="259" y="-10"/>
      <point x="181" y="-10" type="curve" smooth="yes"/>
      <point x="84" y="-10"/>
      <point x="32" y="63"/>
      <point x="32" y="178" type="curve" smooth="yes"/>
      <point x="32" y="292"/>
      <point x="84" y="454"/>
      <point x="238" y="454" type="curve" smooth="yes"/>
      <point x="303" y="454"/>
      <point x="351" y="424"/>
      <point x="370" y="370" type="curve"/>
      <point x="376" y="395"/>
      <point x="382" y="420"/>
      <point x="390" y="445" type="curve"/>
    </contour>
    <contour>
      <point x="245" y="397" type="curve" smooth="yes"/>
      <point x="136" y="397"/>
      <point x="105" y="276"/>
      <point x="105" y="189" type="curve" smooth="yes"/>
      <point x="105" y="96"/>
      <point x="140" y="47"/>
      <point x="202" y="47" type="curve" smooth="yes"/>
      <point x="275" y="47"/>
      <point x="327" y="122"/>
      <point x="341" y="183" type="curve"/>
      <point x="354" y="281" type="line"/>
      <point x="353" y="348"/>
      <point x="309" y="397"/>
    </contour>
    <contour>
      <point x="176" y="621" type="line"/>
      <point x="416" y="621" type="line"/>
      <point x="410" y="564" type="line"/>
      <point x="170" y="564" type="line"/>
    </contour>
  </outline>
</glyph>
<glyph name="Abreve" format="1">
  <advance width="633"/>
  <unicode hex="0102"/>
  <outline>
    <contour>
      <point x="-18" y="64" type="line"/>
      <point x="42" y="64" type="line"/>
      <point x="304" y="586" type="line"/>
      <point x="203" y="586" type="line"/>
      <point x="209" y="650" type="line"/>
      <point x="389" y="650" type="line"/>
      <point x="556" y="64" type="line"/>
      <point x="618" y="64" type="line"/>
      <point x="611" y="0" type="line"/>
      <point x="388" y="0" type="line"/>
      <point x="394" y="64" type="line"/>
      <point x="479" y="64" type="line"/>
      <point x="446" y="189" type="line"/>
      <point x="176" y="189" type="line"/>
      <point x="115" y="64" type="line"/>
      <point x="205" y="64" type="line"/>
      <point x="199" y="0" type="line"/>
      <point x="-23" y="0" type="line"/>
    </contour>
    <contour>
      <point x="349" y="544" type="line"/>
      <point x="204" y="246" type="line"/>
      <point x="431" y="246" type="line"/>
      <point x="353" y="544" type="line"/>
    </contour>
    <contour>
      <point x="442" y="816" type="curve"/>
      <point x="500" y="816" type="line"/>
      <point x="491" y="733"/>
      <point x="443" y="699"/>
      <point x="367" y="699" type="curve" smooth="yes"/>
      <point x="291" y="699"/>
      <point x="252" y="735"/>
      <point x="260" y="816" type="curve"/>
      <point x="318" y="816" type="line"/>
      <point x="312" y="764"/>
      <point x="332" y="747"/>
      <point x="372" y="747" type="curve" smooth="yes"/>
      <point x="416" y="747"/>
      <point x="437" y="767"/>
    </contour>
  </outline>
</glyph>
<glyph name="Cacute" format="1">
  <advance width="630"/>
  <unicode hex="0106"/>
  <outline>
    <contour>
      <point x="540" y="50" type="line"/>
      <point x="487" y="10"/>
      <point x="403" y="-10"/>
      <point x="330" y="-10" type="curve" smooth="yes"/>
      <point x="145" y="-10"/>
      <point x="44" y="113"/>
      <point x="44" y="289" type="curve" smooth="yes"/>
      <point x="44" y="491"/>
      <point x="176" y="660"/>
      <point x="390" y="660" type="curve" smooth="yes"/>
      <point x="485" y="660"/>
      <point x="556" y="627"/>
      <point x="600" y="584" type="curve"/>
      <point x="604" y="459" type="line"/>
      <point x="542" y="453" type="line"/>
      <point x="534" y="548" type="line"/>
      <point x="496" y="576"/>
      <point x="449" y="594"/>
      <point x="386" y="594" type="curve" smooth="yes"/>
      <point x="228" y="594"/>
      <point x="118" y="479"/>
      <point x="118" y="295" type="curve" smooth="yes"/>
      <point x="118" y="141"/>
      <point x="196" y="56"/>
      <point x="344" y="56" type="curve" smooth="yes"/>
      <point x="396" y="56"/>
      <point x="444" y="66"/>
      <point x="481" y="85" type="curve"/>
      <point x="509" y="181" type="line"/>
      <point x="569" y="175" type="line"/>
    </contour>
    <contour>
      <point x="540" y="745" type="line"/>
      <point x="524" y="813" type="line"/>
      <point x="329" y="740" type="line"/>
      <point x="338" y="703" type="line"/>
    </contour>
  </outline>
</glyph>
<glyph name="Cdotaccent" format="1">
  <advance width="630"/>
  <unicode hex="010A"/>
  <outline>
    <contour>
      <point x="354" y="718" type="line"/>
      <point x="433" y="718" type="line"/>
      <point x="441" y="803" type="line"/>
      <point x="362" y="803" type="line"/>
    </contour>
    <contour>
      <point x="540" y="50" type="line"/>
      <point x="487" y="10"/>
      <point x="403" y="-10"/>
      <point x="330" y="-10" type="curve" smooth="yes"/>
      <point x="145" y="-10"/>
      <point x="44" y="113"/>
      <point x="44" y="289" type="curve" smooth="yes"/>
      <point x="44" y="491"/>
      <point x="176" y="660"/>
      <point x="390" y="660" type="curve" smooth="yes"/>
      <point x="485" y="660"/>
      <point x="556" y="627"/>
      <point x="600" y="584" type="curve"/>
      <point x="604" y="459" type="line"/>
      <point x="542" y="453" type="line"/>
      <point x="534" y="548" type="line"/>
      <point x="496" y="576"/>
      <point x="449" y="594"/>
      <point x="386" y="594" type="curve" smooth="yes"/>
      <point x="228" y="594"/>
      <point x="118" y="479"/>
      <point x="118" y="295" type="curve" smooth="yes"/>
      <point x="118" y="141"/>
      <point x="196" y="56"/>
      <point x="344" y="56" type="curve" smooth="yes"/>
      <point x="396" y="56"/>
      <point x="444" y="66"/>
      <point x="481" y="85" type="curve"/>
      <point x="509" y="181" type="line"/>
      <point x="569" y="175" type="line"/>
    </contour>
  </outline>
</glyph>
<glyph name="ccaron" format="1">
  <advance width="440"/>
  <unicode hex="010D"/>
  <outline>
    <contour>
      <point x="244" y="519" type="line"/>
      <point x="266" y="519" type="line"/>
      <point x="397" y="638" type="line"/>
      <point x="374" y="670" type="line"/>
      <point x="263" y="585" type="line"/>
      <point x="168" y="667" type="line"/>
      <point x="139" y="636" type="line"/>
    </contour>
    <contour>
      <point x="250" y="397" type="curve" smooth="yes"/>
      <point x="143" y="397"/>
      <point x="104" y="292"/>
      <point x="104" y="190" type="curve" smooth="yes"/>
      <point x="104" y="102"/>
      <point x="134" y="47"/>
      <point x="209" y="47" type="curve" smooth="yes"/>
      <point x="272" y="47"/>
      <point x="312" y="86"/>
      <point x="335" y="163" type="curve"/>
      <point x="390" y="150" type="line"/>
      <point x="371" y="71"/>
      <point x="315" y="-10"/>
      <point x="201" y="-10" type="curve" smooth="yes"/>
      <point x="93" y="-10"/>
      <point x="31" y="63"/>
      <point x="31" y="186" type="curve" smooth="yes"/>
      <point x="31" y="304"/>
      <point x="90" y="454"/>
      <point x="249" y="454" type="curve"/>
      <point x="306" y="454"/>
      <point x="351" y="441"/>
      <point x="392" y="409" type="curve"/>
      <point x="398" y="302" type="line"/>
      <point x="339" y="295" type="line"/>
      <point x="330" y="371" type="line"/>
      <point x="305" y="390"/>
      <point x="279" y="397"/>
    </contour>
  </outline>
</glyph>
<glyph name="Ebreve" format="1">
  <advance width="573"/>
  <unicode hex="0114"/>
  <outline>
    <contour>
      <point x="433" y="816" type="curve"/>
      <point x="491" y="816" type="line"/>
      <point x="482" y="733"/>
      <point x="434" y="699"/>
      <point x="358" y="699" type="curve" smooth="yes"/>
      <point x="282" y="699"/>
      <point x="243" y="735"/>
      <point x="251" y="816" type="curve"/>
      <point x="309" y="816" type="line"/>
      <point x="303" y="764"/>
      <point x="323" y="747"/>
      <point x="363" y="747" type="curve" smooth="yes"/>
      <point x="407" y="747"/>
      <point x="428" y="767"/>
    </contour>
    <contour>
      <point x="481" y="0" type="line"/>
      <point x="12" y="0" type="line"/>
      <point x="18" y="64" type="line"/>
      <point x="98" y="64" type="line"/>
      <point x="154" y="586" type="line"/>
      <point x="73" y="586" type="line"/>
      <point x="80" y="650" type="line"/>
      <point x="545" y="650" type="line"/>
      <point x="545" y="466" type="line"/>
      <point x="482" y="459" type="line"/>
      <point x="476" y="586" type="line"/>
      <point x="225" y="586" type="line"/>
      <point x="200" y="362" type="line"/>
      <point x="502" y="362" type="line"/>
      <point x="496" y="298" type="line"/>
      <point x="194" y="298" type="line"/>
      <point x="169" y="64" type="line"/>
      <point x="425" y="64" type="line"/>
      <point x="458" y="191" type="line"/>
      <point x="519" y="184" type="line"/>
    </contour>
  </outline>
</glyph>
<glyph name="Gbreve" format="1">
  <advance width="675"/>
  <unicode hex="011E"/>
  <outline>
    <contour>
      <point x="459" y="816" type="curve"/>
      <point x="517" y="816" type="line"/>
      <point x="508" y="733"/>
      <point x="460" y="699"/>
      <point x="384" y="699" type="curve" smooth="yes"/>
      <point x="308" y="699"/>
      <point x="269" y="735"/>
      <point x="277" y="816" type="curve"/>
      <point x="335" y="816" type="line"/>
      <point x="329" y="764"/>
      <point x="349" y="747"/>
      <point x="389" y="747" type="curve" smooth="yes"/>
      <point x="433" y="747"/>
      <point x="454" y="767"/>
    </contour>
    <contour>
      <point x="647" y="270" type="line"/>
      <point x="654" y="335" type="line"/>
      <point x="380" y="335" type="line"/>
      <point x="373" y="270" type="line"/>
      <point x="526" y="270" type="line"/>
      <point x="520" y="212" type="line" smooth="yes"/>
      <point x="511" y="134"/>
      <point x="440" y="56"/>
      <point x="321" y="56" type="curve" smooth="yes"/>
      <point x="196" y="56"/>
      <point x="117" y="143"/>
      <point x="117" y="296" type="curve" smooth="yes"/>
      <point x="117" y="477"/>
      <point x="229" y="594"/>
      <point x="389" y="594" type="curve" smooth="yes"/>
      <point x="462" y="594"/>
      <point x="510" y="570"/>
      <point x="541" y="547" type="curve"/>
      <point x="551" y="455" type="line"/>
      <point x="612" y="462" type="line"/>
      <point x="608" y="584" type="line"/>
      <point x="564" y="629"/>
      <point x="484" y="660"/>
      <point x="393" y="660" type="curve" smooth="yes"/>
      <point x="185" y="660"/>
      <point x="43" y="498"/>
      <point x="43" y="291" type="curve" smooth="yes"/>
      <point x="43" y="118"/>
      <point x="143" y="-10"/>
      <point x="304" y="-10" type="curve" smooth="yes"/>
      <point x="396" y="-10"/>
      <point x="472" y="32"/>
      <point x="514" y="89" type="curve"/>
      <point x="514" y="0" type="line"/>
      <point x="569" y="0" type="line"/>
      <point x="597" y="270" type="line"/>
    </contour>
  </outline>
</glyph>
<glyph name="gbreve" format="1">
  <advance width="513"/>
  <unicode hex="011F"/>
  <outline>
    <contour>
      <point x="392" y="445" type="line"/>
      <point x="519" y="445" type="line"/>
      <point x="515" y="406" type="line"/>
      <point x="493" y="388" type="line"/>
      <point x="442" y="388" type="line"/>
      <point x="395" y="6" type="line" smooth="yes"/>
      <point x="378" y="-127"/>
      <point x="315" y="-223"/>
      <point x="179" y="-223" type="curve" smooth="yes"/>
      <point x="90" y="-223"/>
      <point x="17" y="-178"/>
      <point x="4" y="-90" type="curve"/>
      <point x="56" y="-64" type="line"/>
      <point x="70" y="-134"/>
      <point x="126" y="-162"/>
      <point x="184" y="-162" type="curve" smooth="yes"/>
      <point x="266" y="-162"/>
      <point x="314" y="-104"/>
      <point x="327" y="9" type="curve" smooth="yes"/>
      <point x="336" y="87" type="line"/>
      <point x="305" y="34"/>
      <point x="256" y="-10"/>
      <point x="180" y="-10" type="curve" smooth="yes"/>
      <point x="83" y="-10"/>
      <point x="31" y="64"/>
      <point x="31" y="175" type="curve" smooth="yes"/>
      <point x="31" y="293"/>
      <point x="89" y="454"/>
      <point x="243" y="454" type="curve" smooth="yes"/>
      <point x="307" y="454"/>
      <point x="355" y="425"/>
      <point x="375" y="373" type="curve"/>
    </contour>
    <contour>
      <point x="249" y="397" type="curve" smooth="yes"/>
      <point x="142" y="397"/>
      <point x="104" y="278"/>
      <point x="104" y="185" type="curve" smooth="yes"/>
      <point x="104" y="97"/>
      <point x="136" y="47"/>
      <point x="200" y="47" type="curve" smooth="yes"/>
      <point x="276" y="47"/>
      <point x="333" y="122"/>
      <point x="348" y="184" type="curve"/>
      <point x="360" y="276" type="line"/>
      <point x="361" y="345"/>
      <point x="318" y="397"/>
    </contour>
    <contour>
      <point x="364" y="655" type="curve"/>
      <point x="422" y="655" type="line"/>
      <point x="413" y="572"/>
      <point x="366" y="532"/>
      <point x="289" y="532" type="curve" smooth="yes"/>
      <point x="213" y="532"/>
      <point x="174" y="574"/>
      <point x="183" y="655" type="curve"/>
      <point x="241" y="655" type="line"/>
      <point x="234" y="601"/>
      <point x="254" y="580"/>
      <point x="295" y="580" type="curve" smooth="yes"/>
      <point x="338" y="580"/>
      <point x="359" y="604"/>
    </contour>
  </outline>
</glyph>
<glyph name="Hbar" format="1">
  <advance width="734"/>
  <unicode hex="0126"/>
  <outline>
    <contour>
      <point x="442" y="64" type="line"/>
      <point x="520" y="64" type="line"/>
      <point x="545" y="300" type="line"/>
      <point x="194" y="300" type="line"/>
      <point x="169" y="64" type="line"/>
      <point x="249" y="64" type="line"/>
      <point x="243" y="0" type="line"/>
      <point x="14" y="0" type="line"/>
      <point x="20" y="64" type="line"/>
      <point x="99" y="64" type="line"/>
      <point x="141" y="462" type="line"/>
      <point x="66" y="462" type="line"/>
      <point x="70" y="510" type="line"/>
      <point x="146" y="510" type="line"/>
      <point x="154" y="586" type="line"/>
      <point x="75" y="586" type="line"/>
      <point x="82" y="650" type="line"/>
      <point x="311" y="650" type="line"/>
      <point x="304" y="586" type="line"/>
      <point x="224" y="586" type="line"/>
      <point x="216" y="510" type="line"/>
      <point x="567" y="510" type="line"/>
      <point x="575" y="586" type="line"/>
      <point x="496" y="586" type="line"/>
      <point x="503" y="650" type="line"/>
      <point x="732" y="650" type="line"/>
      <point x="725" y="586" type="line"/>
      <point x="646" y="586" type="line"/>
      <point x="638" y="510" type="line"/>
      <point x="714" y="510" type="line"/>
      <point x="709" y="462" type="line"/>
      <point x="633" y="462" type="line"/>
      <point x="591" y="64" type="line"/>
      <point x="671" y="64" type="line"/>
      <point x="664" y="0" type="line"/>
      <point x="435" y="0" type="line"/>
    </contour>
    <contour>
      <point x="201" y="362" type="line"/>
      <point x="552" y="362" type="line"/>
      <point x="562" y="462" type="line"/>
      <point x="211" y="462" type="line"/>
    </contour>
  </outline>
</glyph>
<glyph name="Itilde" format="1">
  <advance width="311"/>
  <unicode hex="0128"/>
  <outline>
    <contour>
      <point x="19" y="64" type="line"/>
      <point x="98" y="64" type="line"/>
      <point x="153" y="586" type="line"/>
      <point x="73" y="586" type="line"/>
      <point x="80" y="650" type="line"/>
      <point x="309" y="650" type="line"/>
      <point x="303" y="586" type="line"/>
      <point x="222" y="586" type="line"/>
      <point x="167" y="64" type="line"/>
      <point x="248" y="64" type="line"/>
      <point x="241" y="0" type="line"/>
      <point x="12" y="0" type="line"/>
    </contour>
    <contour>
      <point x="99" y="705" type="line"/>
      <point x="113" y="737"/>
      <point x="135" y="744"/>
      <point x="153" y="744" type="curve" smooth="yes"/>
      <point x="191" y="744"/>
      <point x="221" y="709"/>
      <point x="270" y="709" type="curve" smooth="yes"/>
      <point x="316" y="709"/>
      <point x="341" y="744"/>
      <point x="355" y="798" type="curve"/>
      <point x="321" y="807" type="line"/>
      <point x="306" y="770"/>
      <point x="288" y="765"/>
      <point x="271" y="765" type="curve" smooth="yes"/>
      <point x="224" y="765"/>
      <point x="201" y="800"/>
      <point x="157" y="800" type="curve" smooth="yes"/>
      <point x="107" y="800"/>
      <point x="77" y="752"/>
      <point x="68" y="718" type="curve"/>
    </contour>
  </outline>
</glyph>
<glyph name="Iogonek" format="1">
  <advance width="310"/>
  <unicode hex="012E"/>
  <outline>
    <contour>
      <point x="192" y="-189" type="line"/>
      <point x="169" y="-201"/>
      <point x="142" y="-209"/>
      <point x="112" y="-209" type="curve" smooth="yes"/>
      <point x="55" y="-209"/>
      <point x="19" y="-179"/>
      <point x="19" y="-126" type="curve" smooth="yes"/>
      <point x="19" y="-73"/>
      <point x="56" y="-27"/>
      <point x="103" y="0" type="curve"/>
      <point x="12" y="0" type="line"/>
      <point x="19" y="64" type="line"/>
      <point x="98" y="64" type="line"/>
      <point x="153" y="586" type="line"/>
      <point x="73" y="586" type="line"/>
      <point x="80" y="650" type="line"/>
      <point x="309" y="650" type="line"/>
      <point x="303" y="586" type="line"/>
      <point x="222" y="586" type="line"/>
      <point x="167" y="64" type="line"/>
      <point x="248" y="64" type="line"/>
      <point x="241" y="0" type="line"/>
      <point x="156" y="0" type="line"/>
      <point x="98" y="-33"/>
      <point x="82" y="-73"/>
      <point x="82" y="-106" type="curve" smooth="yes"/>
      <point x="82" y="-143"/>
      <point x="102" y="-155"/>
      <point x="134" y="-155" type="curve" smooth="yes"/>
      <point x="151" y="-155"/>
      <point x="169" y="-151"/>
      <point x="189" y="-140" type="curve"/>
    </contour>
  </outline>
</glyph>
<glyph name="ij" format="1">
  <advance width="500"/>
  <unicode hex="0133"/>
  <outline>
    <contour>
      <point x="279" y="426" type="line"/>
      <point x="301" y="445" type="line"/>
      <point x="448" y="445" type="line"/>
      <point x="391" y="-18" type="line" smooth="yes"/>
      <point x="375" y="-148"/>
      <point x="327" y="-219"/>
      <point x="254" y="-223" type="curve" smooth="yes"/>
      <point x="225" y="-224"/>
      <point x="199" y="-216"/>
      <point x="175" y="-205" type="curve"/>
      <point x="178" y="-154" type="line"/>
      <point x="247" y="-182"/>
      <point x="305" y="-162"/>
      <point x="323" y="-18" type="curve" smooth="yes"/>
      <point x="373" y="388" type="line"/>
      <point x="274" y="388" type="line"/>
    </contour>
    <contour>
      <point x="36" y="426" type="line"/>
      <point x="57" y="445" type="line"/>
      <point x="183" y="445" type="line"/>
      <point x="136" y="57" type="line"/>
      <point x="211" y="57" type="line"/>
      <point x="206" y="17" type="line"/>
      <point x="184" y="0" type="line"/>
      <point x="61" y="0" type="line"/>
      <point x="108" y="388" type="line"/>
      <point x="31" y="388" type="line"/>
    </contour>
    <contour>
      <point x="125" y="560" type="line"/>
      <point x="199" y="560" type="line"/>
      <point x="208" y="651" type="line"/>
      <point x="134" y="651" type="line"/>
    </contour>
    <contour>
      <point x="384" y="560" type="line"/>
      <point x="457" y="560" type="line"/>
      <point x="467" y="651" type="line"/>
      <point x="393" y="651" type="line"/>
    </contour>
  </outline>
</glyph>
<glyph name="Jcircumflex" format="1">
  <advance width="442"/>
  <unicode hex="0134"/>
  <outline>
    <contour>
      <point x="179" y="650" type="line"/>
      <point x="445" y="650" type="line"/>
      <point x="439" y="586" type="line"/>
      <point x="369" y="586" type="line"/>
      <point x="325" y="166" type="line" smooth="yes"/>
      <point x="313" y="48"/>
      <point x="245" y="-10"/>
      <point x="144" y="-10" type="curve" smooth="yes"/>
      <point x="60" y="-10"/>
      <point x="18" y="30"/>
      <point x="-3" y="89" type="curve"/>
      <point x="52" y="129" type="line"/>
      <point x="74" y="75"/>
      <point x="102" y="59"/>
      <point x="145" y="59" type="curve" smooth="yes"/>
      <point x="213" y="59"/>
      <point x="247" y="101"/>
      <point x="254" y="166" type="curve" smooth="yes"/>
      <point x="298" y="586" type="line"/>
      <point x="173" y="586" type="line"/>
    </contour>
    <contour>
      <point x="346" y="825" type="line"/>
      <point x="325" y="825" type="line"/>
      <point x="189" y="733" type="line"/>
      <point x="207" y="701" type="line"/>
      <point x="327" y="764" type="line"/>
      <point x="438" y="702" type="line"/>
      <point x="459" y="736" type="line"/>
    </contour>
  </outline>
</glyph>
<glyph name="Kcommaaccent" format="1">
  <advance width="622"/>
  <unicode hex="0136"/>
  <outline>
    <contour>
      <point x="19" y="64" type="line"/>
      <point x="97" y="64" type="line"/>
      <point x="152" y="586" type="line"/>
      <point x="73" y="586" type="line"/>
      <point x="79" y="650" type="line"/>
      <point x="304" y="650" type="line"/>
      <point x="297" y="586" type="line"/>
      <point x="223" y="586" type="line"/>
      <point x="199" y="362" type="line"/>
      <point x="302" y="362" type="line"/>
      <point x="486" y="587" type="line"/>
      <point x="414" y="587" type="line"/>
      <point x="421" y="651" type="line"/>
      <point x="643" y="651" type="line"/>
      <point x="636" y="587" type="line"/>
      <point x="566" y="587" type="line"/>
      <point x="356" y="338" type="line"/>
      <point x="523" y="64" type="line"/>
      <point x="594" y="64" type="line"/>
      <point x="587" y="0" type="line"/>
      <point x="359" y="0" type="line"/>
      <point x="367" y="64" type="line"/>
      <point x="440" y="64" type="line"/>
      <point x="298" y="299" type="line"/>
      <point x="193" y="299" type="line"/>
      <point x="168" y="64" type="line"/>
      <point x="241" y="64" type="line"/>
      <point x="234" y="0" type="line"/>
      <point x="11" y="0" type="line"/>
    </contour>
    <contour>
      <point x="324" y="-64" type="line"/>
      <point x="258" y="-64" type="line"/>
      <point x="234" y="-218" type="line"/>
      <point x="290" y="-218" type="line"/>
    </contour>
  </outline>
</glyph>
<glyph name="lcommaaccent" format="1">
  <advance width="239"/>
  <unicode hex="013C"/>
  <outline>
    <contour>
      <point x="52" y="669" type="line"/>
      <point x="72" y="688" type="line"/>
      <point x="199" y="688" type="line"/>
      <point x="122" y="57" type="line"/>
      <point x="196" y="57" type="line"/>
      <point x="191" y="17" type="line"/>
      <point x="170" y="0" type="line"/>
      <point x="47" y="0" type="line"/>
      <point x="124" y="631" type="line"/>
      <point x="47" y="631" type="line"/>
    </contour>
    <contour>
      <point x="137" y="-64" type="line"/>
      <point x="71" y="-64" type="line"/>
      <point x="47" y="-218" type="line"/>
      <point x="103" y="-218" type="line"/>
    </contour>
  </outline>
</glyph>
<glyph name="lslash" format="1">
  <advance width="261"/>
  <unicode hex="0142"/>
  <outline>
    <contour>
      <point x="25" y="313" type="line"/>
      <point x="107" y="350" type="line"/>
      <point x="142" y="631" type="line"/>
      <point x="65" y="631" type="line"/>
      <point x="70" y="669" type="line"/>
      <point x="90" y="688" type="line"/>
      <point x="217" y="688" type="line"/>
      <point x="179" y="383" type="line"/>
      <point x="263" y="421" type="line"/>
      <point x="256" y="362" type="line"/>
      <point x="172" y="324" type="line"/>
      <point x="140" y="57" type="line"/>
      <point x="214" y="57" type="line"/>
      <point x="209" y="17" type="line"/>
      <point x="188" y="0" type="line"/>
      <point x="65" y="0" type="line"/>
      <point x="100" y="291" type="line"/>
      <point x="18" y="254" type="line"/>
    </contour>
  </outline>
</glyph>
<glyph name="ncaron" format="1">
  <advance width="523"/>
  <unicode hex="0148"/>
  <outline>
    <contour>
      <point x="55" y="445" type="line"/>
      <point x="169" y="445" type="line"/>
      <point x="168" y="359" type="line"/>
      <point x="200" y="417"/>
      <point x="248" y="454"/>
      <point x="318" y="454" type="curve" smooth="yes"/>
      <point x="403" y="454"/>
      <point x="460" y="403"/>
      <point x="446" y="285" type="curve" smooth="yes"/>
      <point x="418" y="57" type="line"/>
      <point x="493" y="57" type="line"/>
      <point x="488" y="17" type="line"/>
      <point x="467" y="0" type="line"/>
      <point x="344" y="0" type="line"/>
      <point x="376" y="264" type="line" smooth="yes"/>
      <point x="387" y="360"/>
      <point x="354" y="397"/>
      <point x="290" y="397" type="curve" smooth="yes"/>
      <point x="218" y="397"/>
      <point x="172" y="338"/>
      <point x="160" y="274" type="curve"/>
      <point x="126" y="0" type="line"/>
      <point x="59" y="0" type="line"/>
      <point x="106" y="388" type="line"/>
      <point x="28" y="388" type="line"/>
      <point x="33" y="426" type="line"/>
    </contour>
    <contour>
      <point x="282" y="519" type="line"/>
      <point x="304" y="519" type="line"/>
      <point x="435" y="638" type="line"/>
      <point x="412" y="670" type="line"/>
      <point x="301" y="585" type="line"/>
      <point x="206" y="667" type="line"/>
      <point x="177" y="636" type="line"/>
    </contour>
  </outline>
</glyph>
<glyph name="obreve" format="1">
  <advance width="481"/>
  <unicode hex="014F"/>
  <outline>
    <contour>
      <point x="31" y="189" type="curve" smooth="yes"/>
      <point x="31" y="329"/>
      <point x="109" y="454"/>
      <point x="260" y="454" type="curve" smooth="yes"/>
      <point x="388" y="454"/>
      <point x="437" y="364"/>
      <point x="437" y="252" type="curve" smooth="yes"/>
      <point x="437" y="104"/>
      <point x="352" y="-10"/>
      <point x="208" y="-10" type="curve" smooth="yes"/>
      <point x="87" y="-10"/>
      <point x="31" y="71"/>
    </contour>
    <contour>
      <point x="105" y="193" type="curve" smooth="yes"/>
      <point x="105" y="107"/>
      <point x="131" y="47"/>
      <point x="215" y="47" type="curve" smooth="yes"/>
      <point x="319" y="47"/>
      <point x="364" y="140"/>
      <point x="364" y="250" type="curve" smooth="yes"/>
      <point x="364" y="337"/>
      <point x="337" y="397"/>
      <point x="252" y="397" type="curve" smooth="yes"/>
      <point x="155" y="397"/>
      <point x="105" y="313"/>
    </contour>
    <contour>
      <point x="346" y="655" type="curve"/>
      <point x="404" y="655" type="line"/>
      <point x="395" y="572"/>
      <point x="348" y="532"/>
      <point x="271" y="532" type="curve" smooth="yes"/>
      <point x="195" y="532"/>
      <point x="156" y="574"/>
      <point x="165" y="655" type="curve"/>
      <point x="223" y="655" type="line"/>
      <point x="216" y="601"/>
      <point x="236" y="580"/>
      <point x="277" y="580" type="curve" smooth="yes"/>
      <point x="320" y="580"/>
      <point x="341" y="604"/>
    </contour>
  </outline>
</glyph>
<glyph name="oe" format="1">
  <advance width="768"/>
  <unicode hex="0153"/>
  <outline>
    <contour>
      <point x="31" y="189" type="curve" smooth="yes"/>
      <point x="31" y="329"/>
      <point x="109" y="454"/>
      <point x="260" y="454" type="curve" smooth="yes"/>
      <point x="340" y="454"/>
      <point x="389" y="418"/>
      <point x="415" y="364" type="curve"/>
      <point x="454" y="419"/>
      <point x="514" y="454"/>
      <point x="587" y="454" type="curve" smooth="yes"/>
      <point x="666" y="454"/>
      <point x="730" y="412"/>
      <point x="730" y="343" type="curve" smooth="yes"/>
      <point x="730" y="277"/>
      <point x="685" y="230"/>
      <point x="571" y="206" type="curve" smooth="yes"/>
      <point x="530" y="198"/>
      <point x="483" y="189"/>
      <point x="435" y="182" type="curve"/>
      <point x="436" y="98"/>
      <point x="465" y="47"/>
      <point x="544" y="47" type="curve" smooth="yes"/>
      <point x="605" y="47"/>
      <point x="644" y="82"/>
      <point x="665" y="137" type="curve"/>
      <point x="720" y="124" type="line"/>
      <point x="701" y="50"/>
      <point x="636" y="-10"/>
      <point x="533" y="-10" type="curve" smooth="yes"/>
      <point x="462" y="-10"/>
      <point x="411" y="19"/>
      <point x="384" y="74" type="curve"/>
      <point x="344" y="22"/>
      <point x="284" y="-10"/>
      <point x="208" y="-10" type="curve" smooth="yes"/>
      <point x="87" y="-10"/>
      <point x="31" y="71"/>
    </contour>
    <contour>
      <point x="105" y="193" type="curve" smooth="yes"/>
      <point x="105" y="107"/>
      <point x="131" y="47"/>
      <point x="215" y="47" type="curve" smooth="yes"/>
      <point x="319" y="47"/>
      <point x="364" y="140"/>
      <point x="364" y="250" type="curve" smooth="yes"/>
      <point x="364" y="337"/>
      <point x="337" y="397"/>
      <point x="252" y="397" type="curve" smooth="yes"/>
      <point x="155" y="397"/>
      <point x="105" y="313"/>
    </contour>
    <contour>
      <point x="542" y="248" type="curve"/>
      <point x="643" y="271"/>
      <point x="657" y="305"/>
      <point x="657" y="337" type="curve" smooth="yes"/>
      <point x="657" y="382"/>
      <point x="626" y="399"/>
      <point x="580" y="399" type="curve" smooth="yes"/>
      <point x="487" y="399"/>
      <point x="447" y="316"/>
      <point x="437" y="232" type="curve"/>
      <point x="483" y="237"/>
      <point x="516" y="243"/>
    </contour>
  </outline>
</glyph>
<glyph name="Tcaron" format="1">
  <advance width="606"/>
  <unicode hex="0164"/>
  <outline>
    <contour>
      <point x="331" y="701" type="line"/>
      <point x="352" y="701" type="line"/>
      <point x="487" y="792" type="line"/>
      <point x="470" y="825" type="line"/>
      <point x="349" y="761" type="line"/>
      <point x="239" y="823" type="line"/>
      <point x="217" y="790" type="line"/>
    </contour>
    <contour>
      <point x="599" y="452" type="line"/>
      <point x="601" y="650" type="line"/>
      <point x="81" y="650" type="line"/>
      <point x="42" y="452" type="line"/>
      <point x="105" y="447" type="line"/>
      <point x="139" y="586" type="line"/>
      <point x="300" y="586" type="line"/>
      <point x="245" y="64" type="line"/>
      <point x="136" y="64" type="line"/>
      <point x="129" y="0" type="line"/>
      <point x="422" y="0" type="line"/>
      <point x="428" y="64" type="line"/>
      <point x="316" y="64" type="line"/>
      <point x="371" y="586" type="line"/>
      <point x="530" y="586" type="line"/>
      <point x="535" y="447" type="line"/>
    </contour>
  </outline>
</glyph>
<glyph name="Tbar" format="1">
  <advance width="609"/>
  <unicode hex="0166"/>
  <outline>
    <contour>
      <point x="600" y="452" type="line"/>
      <point x="602" y="650" type="line"/>
      <point x="82" y="650" type="line"/>
      <point x="43" y="452" type="line"/>
      <point x="106" y="447" type="line"/>
      <point x="140" y="586" type="line"/>
      <point x="301" y="586" type="line"/>
      <point x="273" y="325" type="line"/>
      <point x="125" y="325" type="line"/>
      <point x="120" y="278" type="line"/>
      <point x="268" y="278" type="line"/>
      <point x="246" y="64" type="line"/>
      <point x="137" y="64" type="line"/>
      <point x="130" y="0" type="line"/>
      <point x="423" y="0" type="line"/>
      <point x="429" y="64" type="line"/>
      <point x="317" y="64" type="line"/>
      <point x="339" y="278" type="line"/>
      <point x="486" y="278" type="line"/>
      <point x="491" y="325" type="line"/>
      <point x="344" y="325" type="line"/>
      <point x="372" y="586" type="line"/>
      <point x="531" y="586" type="line"/>
      <point x="536" y="447" type="line"/>
    </contour>
  </outline>
</glyph>
<glyph name="tbar" format="1">
  <advance width="345"/>
  <unicode hex="0167"/>
  <outline>
    <contour>
      <point x="30" y="425" type="line"/>
      <point x="53" y="445" type="line"/>
      <point x="107" y="445" type="line"/>
      <point x="122" y="565" type="line"/>
      <point x="146" y="588" type="line"/>
      <point x="193" y="588" type="line"/>
      <point x="175" y="445" type="line"/>
      <point x="327" y="445" type="line"/>
      <point x="322" y="409" type="line"/>
      <point x="299" y="388" type="line"/>
      <point x="168" y="388" type="line"/>
      <point x="155" y="278" type="line"/>
      <point x="308" y="278" type="line"/>
      <point x="303" y="253" type="line"/>
      <point x="281" y="233" type="line"/>
      <point x="149" y="233" type="line"/>
      <point x="138" y="137" type="line" smooth="yes"/>
      <point x="131" y="76"/>
      <point x="146" y="47"/>
      <point x="193" y="47" type="curve" smooth="yes"/>
      <point x="222" y="47"/>
      <point x="247" y="58"/>
      <point x="268" y="132" type="curve"/>
      <point x="318" y="115" type="line"/>
      <point x="295" y="29"/>
      <point x="258" y="-10"/>
      <point x="185" y="-10" type="curve" smooth="yes"/>
      <point x="102" y="-10"/>
      <point x="59" y="44"/>
      <point x="70" y="131" type="curve" smooth="yes"/>
      <point x="82" y="233" type="line"/>
      <point x="13" y="233" type="line"/>
      <point x="17" y="258" type="line"/>
      <point x="40" y="278" type="line"/>
      <point x="87" y="278" type="line"/>
      <point x="100" y="388" type="line"/>
      <point x="25" y="388" type="line"/>
    </contour>
  </outline>
</glyph>
<glyph name="ubreve" format="1">
  <advance width="522"/>
  <unicode hex="016D"/>
  <outline>
    <contour>
      <point x="483" y="57" type="line"/>
      <point x="478" y="19" type="line"/>
      <point x="456" y="0" type="line"/>
      <point x="341" y="0" type="line"/>
      <point x="342" y="85" type="line"/>
      <point x="311" y="28"/>
      <point x="264" y="-9"/>
      <point x="195" y="-9" type="curve" smooth="yes"/>
      <point x="110" y="-9"/>
      <point x="54" y="42"/>
      <point x="67" y="160" type="curve"/>
      <point x="95" y="388" type="line"/>
      <point x="20" y="388" type="line"/>
      <point x="25" y="428" type="line"/>
      <point x="47" y="445" type="line"/>
      <point x="170" y="445" type="line"/>
      <point x="138" y="180" type="line" smooth="yes"/>
      <point x="126" y="85"/>
      <point x="155" y="48"/>
      <point x="223" y="48" type="curve" smooth="yes"/>
      <point x="293" y="48"/>
      <point x="336" y="103"/>
      <point x="349" y="164" type="curve"/>
      <point x="384" y="445" type="line"/>
      <point x="452" y="445" type="line"/>
      <point x="405" y="57" type="line"/>
    </contour>
    <contour>
      <point x="351" y="655" type="curve"/>
      <point x="409" y="655" type="line"/>
      <point x="400" y="572"/>
      <point x="353" y="532"/>
      <point x="276" y="532" type="curve" smooth="yes"/>
      <point x="200" y="532"/>
      <point x="161" y="574"/>
      <point x="170" y="655" type="curve"/>
      <point x="228" y="655" type="line"/>
      <point x="221" y="601"/>
      <point x="241" y="580"/>
      <point x="282" y="580" type="curve" smooth="yes"/>
      <point x="325" y="580"/>
      <point x="346" y="604"/>
    </contour>
  </outline>
</glyph>
<glyph name="Uring" format="1">
  <advance width="696"/>
  <unicode hex="016E"/>
  <outline>
    <contour>
      <point x="482" y="650" type="line"/>
      <point x="699" y="650" type="line"/>
      <point x="693" y="586" type="line"/>
      <point x="631" y="586" type="line"/>
      <point x="598" y="267" type="line" smooth="yes"/>
      <point x="583" y="129"/>
      <point x="519" y="-10"/>
      <point x="324" y="-10" type="curve" smooth="yes"/>
      <point x="136" y="-10"/>
      <point x="82" y="116"/>
      <point x="97" y="256" type="curve" smooth="yes"/>
      <point x="132" y="586" type="line"/>
      <point x="67" y="586" type="line"/>
      <point x="73" y="650" type="line"/>
      <point x="298" y="650" type="line"/>
      <point x="290" y="586" type="line"/>
      <point x="203" y="586" type="line"/>
      <point x="169" y="258" type="line" smooth="yes"/>
      <point x="156" y="130"/>
      <point x="206" y="56"/>
      <point x="331" y="56" type="curve" smooth="yes"/>
      <point x="448" y="56"/>
      <point x="516" y="128"/>
      <point x="531" y="267" type="curve" smooth="yes"/>
      <point x="564" y="586" type="line"/>
      <point x="475" y="586" type="line"/>
    </contour>
    <contour>
      <point x="393" y="690" type="curve" smooth="yes"/>
      <point x="463" y="690"/>
      <point x="501" y="736"/>
      <point x="501" y="793" type="curve" smooth="yes"/>
      <point x="501" y="842"/>
      <point x="473" y="874"/>
      <point x="414" y="874" type="curve" smooth="yes"/>
      <point x="346" y="874"/>
      <point x="305" y="832"/>
      <point x="305" y="772" type="curve" smooth="yes"/>
      <point x="305" y="720"/>
      <point x="335" y="690"/>
    </contour>
    <contour>
      <point x="397" y="730" type="curve" smooth="yes"/>
      <point x="367" y="730"/>
      <point x="354" y="748"/>
      <point x="354" y="774" type="curve" smooth="yes"/>
      <point x="354" y="810"/>
      <point x="373" y="834"/>
      <point x="409" y="834" type="curve" smooth="yes"/>
      <point x="441" y="834"/>
      <point x="452" y="815"/>
      <point x="452" y="790" type="curve" smooth="yes"/>
      <point x="452" y="756"/>
      <point x="434" y="730"/>
    </contour>
  </outline>
</glyph>
<glyph name="Uhungarumlaut" format="1">
  <advance width="696"/>
  <unicode hex="0170"/>
  <outline>
    <contour>
      <point x="482" y="650" type="line"/>
      <point x="699" y="650" type="line"/>
      <point x="693" y="586" type="line"/>
      <point x="631" y="586" type="line"/>
      <point x="598" y="267" type="line" smooth="yes"/>
      <point x="583" y="129"/>
      <point x="519" y="-10"/>
      <point x="324" y="-10" type="curve" smooth="yes"/>
      <point x="136" y="-10"/>
      <point x="82" y="116"/>
      <point x="97" y="256" type="curve" smooth="yes"/>
      <point x="132" y="586" type="line"/>
      <point x="67" y="586" type="line"/>
      <point x="73" y="650" type="line"/>
      <point x="298" y="650" type="line"/>
      <point x="290" y="586" type="line"/>
      <point x="203" y="586" type="line"/>
      <point x="169" y="258" type="line" smooth="yes"/>
      <point x="156" y="130"/>
      <point x="206" y="56"/>
      <point x="331" y="56" type="curve" smooth="yes"/>
      <point x="448" y="56"/>
      <point x="516" y="128"/>
      <point x="531" y="267" type="curve" smooth="yes"/>
      <point x="564" y="586" type="line"/>
      <point x="475" y="586" type="line"/>
    </contour>
    <contour>
      <point x="613" y="745" type="line"/>
      <point x="598" y="812" type="line"/>
      <point x="408" y="739" type="line"/>
      <point x="416" y="703" type="line"/>
    </contour>
    <contour>
      <point x="474" y="834" type="line"/>
      <point x="432" y="882" type="line"/>
      <point x="284" y="729" type="line"/>
      <point x="308" y="704" type="line"/>
    </contour>
  </outline>
</glyph>
<glyph name="uogonek" format="1">
  <advance width="524"/>
  <unicode hex="0173"/>
  <outline>
    <contour>
      <point x="342" y="0" type="line"/>
      <point x="343" y="85" type="line"/>
      <point x="312" y="28"/>
      <point x="265" y="-9"/>
      <point x="196" y="-9" type="curve" smooth="yes"/>
      <point x="111" y="-9"/>
      <point x="55" y="42"/>
      <point x="68" y="160" type="curve"/>
      <point x="96" y="388" type="line"/>
      <point x="21" y="388" type="line"/>
      <point x="26" y="428" type="line"/>
      <point x="48" y="445" type="line"/>
      <point x="171" y="445" type="line"/>
      <point x="139" y="180" type="line" smooth="yes"/>
      <point x="127" y="85"/>
      <point x="156" y="48"/>
      <point x="224" y="48" type="curve" smooth="yes"/>
      <point x="294" y="48"/>
      <point x="337" y="103"/>
      <point x="350" y="164" type="curve"/>
      <point x="385" y="445" type="line"/>
      <point x="453" y="445" type="line"/>
      <point x="406" y="57" type="line"/>
      <point x="484" y="57" type="line"/>
      <point x="479" y="19" type="line"/>
      <point x="457" y="0" type="line"/>
      <point x="426" y="0" type="line"/>
      <point x="368" y="-33"/>
      <point x="352" y="-73"/>
      <point x="352" y="-106" type="curve" smooth="yes"/>
      <point x="352" y="-143"/>
      <point x="372" y="-155"/>
      <point x="404" y="-155" type="curve" smooth="yes"/>
      <point x="421" y="-155"/>
      <point x="439" y="-151"/>
      <point x="459" y="-140" type="curve"/>
      <point x="462" y="-189" type="line"/>
      <point x="439" y="-201"/>
      <point x="412" y="-209"/>
      <point x="382" y="-209" type="curve" smooth="yes"/>
      <point x="325" y="-209"/>
      <point x="289" y="-179"/>
      <point x="289" y="-126" type="curve" smooth="yes"/>
      <point x="289" y="-73"/>
      <point x="326" y="-27"/>
      <point x="373" y="0" type="curve"/>
    </contour>
  </outline>
</glyph>
<glyph name="wcircumflex" format="1">
  <advance width="714"/>
  <unicode hex="0175"/>
  <outline>
    <contour>
      <point x="488" y="82" type="line"/>
      <point x="492" y="82" type="line"/>
      <point x="572" y="179"/>
      <point x="607" y="259"/>
      <point x="607" y="354" type="curve" smooth="yes"/>
      <point x="607" y="387"/>
      <point x="603" y="415"/>
      <point x="591" y="445" type="curve"/>
      <point x="669" y="445" type="line"/>
      <point x="688" y="353"/>
      <point x="674" y="263"/>
      <point x="618" y="172" type="curve"/>
      <point x="588" y="120"/>
      <point x="531" y="49"/>
      <point x="479" y="0" type="curve"/>
      <point x="444" y="0" type="line"/>
      <point x="368" y="335" type="line"/>
      <point x="364" y="335" type="line"/>
      <point x="207" y="0" type="line"/>
      <point x="166" y="0" type="line"/>
      <point x="65" y="388" type="line"/>
      <point x="14" y="388" type="line"/>
      <point x="19" y="426" type="line"/>
      <point x="41" y="445" type="line"/>
      <point x="230" y="445" type="line"/>
      <point x="225" y="406" type="line"/>
      <point x="204" y="388" type="line"/>
      <point x="137" y="388" type="line"/>
      <point x="202" y="108" type="line"/>
      <point x="206" y="108" type="line"/>
      <point x="361" y="445" type="line"/>
      <point x="407" y="445" type="line"/>
    </contour>
    <contour>
      <point x="415" y="671" type="line"/>
      <point x="393" y="671" type="line"/>
      <point x="261" y="550" type="line"/>
      <point x="285" y="519" type="line"/>
      <point x="395" y="605" type="line"/>
      <point x="492" y="519" type="line"/>
      <point x="521" y="550" type="line"/>
    </contour>
  </outline>
</glyph>
<glyph name="Zacute" format="1">
  <advance width="563"/>
  <unicode hex="0179"/>
  <outline>
    <contour>
      <point x="480" y="0" type="line"/>
      <point x="525" y="193" type="line"/>
      <point x="464" y="202" type="line"/>
      <point x="422" y="64" type="line"/>
      <point x="109" y="64" type="line"/>
      <point x="110" y="67" type="line"/>
      <point x="543" y="610" type="line"/>
      <point x="538" y="650" type="line"/>
      <point x="104" y="650" type="line"/>
      <point x="60" y="462" type="line"/>
      <point x="119" y="453" type="line"/>
      <point x="160" y="586" type="line"/>
      <point x="437" y="586" type="line"/>
      <point x="437" y="583" type="line"/>
      <point x="6" y="44" type="line"/>
      <point x="5" y="0" type="line"/>
    </contour>
    <contour>
      <point x="478" y="745" type="line"/>
      <point x="462" y="813" type="line"/>
      <point x="267" y="740" type="line"/>
      <point x="276" y="703" type="line"/>
    </contour>
  </outline>
</glyph>
<glyph name="zacute" format="1">
  <advance width="449"/>
  <unicode hex="017A"/>
  <outline>
    <contour>
      <point x="403" y="624" type="line"/>
      <point x="368" y="683" type="line"/>
      <point x="203" y="551" type="line"/>
      <point x="221" y="520" type="line"/>
    </contour>
    <contour>
      <point x="372" y="0" type="line"/>
      <point x="410" y="138" type="line"/>
      <point x="355" y="147" type="line"/>
      <point x="322" y="57" type="line"/>
      <point x="100" y="57" type="line"/>
      <point x="414" y="403" type="line"/>
      <point x="401" y="445" type="line"/>
      <point x="73" y="445" type="line"/>
      <point x="46" y="306" type="line"/>
      <point x="101" y="299" type="line"/>
      <point x="123" y="388" type="line"/>
      <point x="325" y="388" type="line"/>
      <point x="7" y="43" type="line"/>
      <point x="16" y="0" type="line"/>
    </contour>
  </outline>
</glyph>
<glyph name="zcaron" format="1">
  <advance width="449"/>
  <unicode hex="017E"/>
  <outline>
    <contour>
      <point x="241" y="519" type="line"/>
      <point x="263" y="519" type="line"/>
      <point x="394" y="638" type="line"/>
      <point x="371" y="670" type="line"/>
      <point x="260" y="585" type="line"/>
      <point x="165" y="667" type="line"/>
      <point x="136" y="636" type="line"/>
    </contour>
    <contour>
      <point x="372" y="0" type="line"/>
      <point x="410" y="138" type="line"/>
      <point x="355" y="147" type="line"/>
      <point x="322" y="57" type="line"/>
      <point x="100" y="57" type="line"/>
      <point x="414" y="403" type="line"/>
      <point x="401" y="445" type="line"/>
      <point x="73" y="445" type="line"/>
      <point x="46" y="306" type="line"/>
      <point x="101" y="299" type="line"/>
      <point x="123" y="388" type="line"/>
      <point x="325" y="388" type="line"/>
      <point x="7" y="43" type="line"/>
      <point x="16" y="0" type="line"/>
    </contour>
  </outline>
</glyph>
<glyph name="uni018F" format="1">
  <advance width="672"/>
  <unicode hex="018F"/>
  <outline>
    <contour>
      <point x="135" y="435" type="line"/>
      <point x="159" y="541" type="line"/>
      <point x="214" y="575"/>
      <point x="284" y="594"/>
      <point x="348" y="594" type="curve" smooth="yes"/>
      <point x="495" y="594"/>
      <point x="567" y="494"/>
      <point x="561" y="346" type="curve"/>
      <point x="49" y="346" type="line"/>
      <point x="42" y="282" type="line" smooth="yes"/>
      <point x="23" y="98"/>
      <point x="129" y="-10"/>
      <point x="301" y="-10" type="curve" smooth="yes"/>
      <point x="523" y="-10"/>
      <point x="638" y="170"/>
      <point x="638" y="362" type="curve" smooth="yes"/>
      <point x="638" y="530"/>
      <point x="547" y="660"/>
      <point x="357" y="660" type="curve" smooth="yes"/>
      <point x="261" y="660"/>
      <point x="167" y="626"/>
      <point x="102" y="578" type="curve"/>
      <point x="78" y="442" type="line"/>
    </contour>
    <contour>
      <point x="556" y="288" type="line"/>
      <point x="536" y="162"/>
      <point x="465" y="56"/>
      <point x="311" y="56" type="curve" smooth="yes"/>
      <point x="154" y="56"/>
      <point x="104" y="168"/>
      <point x="120" y="282" type="curve" smooth="yes"/>
      <point x="121" y="288" type="line"/>
    </contour>
  </outline>
</glyph>
<glyph name="uni01C6" format="1">
  <advance width="959"/>
  <unicode hex="01C6"/>
  <outline>
    <contour>
      <point x="305" y="670" type="line"/>
      <point x="326" y="688" type="line"/>
      <point x="479" y="688" type="line"/>
      <point x="401" y="57" type="line"/>
      <point x="477" y="57" type="line"/>
      <point x="473" y="17" type="line"/>
      <point x="451" y="0" type="line"/>
      <point x="337" y="0" type="line"/>
      <point x="339" y="91" type="line"/>
      <point x="307" y="37"/>
      <point x="258" y="-10"/>
      <point x="180" y="-10" type="curve" smooth="yes"/>
      <point x="83" y="-10"/>
      <point x="31" y="64"/>
      <point x="31" y="176" type="curve" smooth="yes"/>
      <point x="31" y="293"/>
      <point x="89" y="454"/>
      <point x="243" y="454" type="curve" smooth="yes"/>
      <point x="304" y="454"/>
      <point x="351" y="427"/>
      <point x="372" y="380" type="curve"/>
      <point x="403" y="631" type="line"/>
      <point x="301" y="631" type="line"/>
    </contour>
    <contour>
      <point x="882" y="0" type="line"/>
      <point x="920" y="138" type="line"/>
      <point x="865" y="147" type="line"/>
      <point x="832" y="57" type="line"/>
      <point x="610" y="57" type="line"/>
      <point x="924" y="403" type="line"/>
      <point x="911" y="445" type="line"/>
      <point x="583" y="445" type="line"/>
      <point x="556" y="306" type="line"/>
      <point x="611" y="299" type="line"/>
      <point x="633" y="388" type="line"/>
      <point x="835" y="388" type="line"/>
      <point x="517" y="43" type="line"/>
      <point x="526" y="0" type="line"/>
    </contour>
    <contour>
      <point x="250" y="397" type="curve" smooth="yes"/>
      <point x="140" y="397"/>
      <point x="104" y="278"/>
      <point x="104" y="185" type="curve" smooth="yes"/>
      <point x="104" y="97"/>
      <point x="137" y="47"/>
      <point x="202" y="47" type="curve" smooth="yes"/>
      <point x="278" y="47"/>
      <point x="336" y="129"/>
      <point x="349" y="191" type="curve"/>
      <point x="361" y="287" type="line"/>
      <point x="358" y="351"/>
      <point x="311" y="397"/>
    </contour>
    <contour>
      <point x="752" y="519" type="line"/>
      <point x="774" y="519" type="line"/>
      <point x="905" y="638" type="line"/>
      <point x="882" y="670" type="line"/>
      <point x="771" y="585" type="line"/>
      <point x="676" y="667" type="line"/>
      <point x="647" y="636" type="line"/>
    </contour>
  </outline>
</glyph>
<glyph name="uni01C8" format="1">
  <advance width="772"/>
  <unicode hex="01C8"/>
  <outline>
    <contour>
      <point x="468" y="0" type="line"/>
      <point x="509" y="208" type="line"/>
      <point x="446" y="213" type="line"/>
      <point x="411" y="64" type="line"/>
      <point x="169" y="64" type="line"/>
      <point x="224" y="586" type="line"/>
      <point x="331" y="586" type="line"/>
      <point x="337" y="650" type="line"/>
      <point x="80" y="650" type="line"/>
      <point x="73" y="586" type="line"/>
      <point x="153" y="586" type="line"/>
      <point x="98" y="64" type="line"/>
      <point x="18" y="64" type="line"/>
      <point x="12" y="0" type="line"/>
    </contour>
    <contour>
      <point x="551" y="426" type="line"/>
      <point x="573" y="445" type="line"/>
      <point x="720" y="445" type="line"/>
      <point x="663" y="-18" type="line" smooth="yes"/>
      <point x="647" y="-148"/>
      <point x="599" y="-219"/>
      <point x="526" y="-223" type="curve" smooth="yes"/>
      <point x="497" y="-224"/>
      <point x="471" y="-216"/>
      <point x="447" y="-205" type="curve"/>
      <point x="450" y="-154" type="line"/>
      <point x="519" y="-182"/>
      <point x="577" y="-162"/>
      <point x="595" y="-18" type="curve" smooth="yes"/>
      <point x="645" y="388" type="line"/>
      <point x="546" y="388" type="line"/>
    </contour>
    <contour>
      <point x="656" y="560" type="line"/>
      <point x="729" y="560" type="line"/>
      <point x="739" y="651" type="line"/>
      <point x="665" y="651" type="line"/>
    </contour>
  </outline>
</glyph>
<glyph name="uni01C9" format="1">
  <advance width="484"/>
  <unicode hex="01C9"/>
  <outline>
    <contour>
      <point x="263" y="426" type="line"/>
      <point x="285" y="445" type="line"/>
      <point x="432" y="445" type="line"/>
      <point x="375" y="-18" type="line" smooth="yes"/>
      <point x="359" y="-148"/>
      <point x="311" y="-219"/>
      <point x="238" y="-223" type="curve" smooth="yes"/>
      <point x="209" y="-224"/>
      <point x="183" y="-216"/>
      <point x="159" y="-205" type="curve"/>
      <point x="162" y="-154" type="line"/>
      <point x="231" y="-182"/>
      <point x="289" y="-162"/>
      <point x="307" y="-18" type="curve" smooth="yes"/>
      <point x="357" y="388" type="line"/>
      <point x="258" y="388" type="line"/>
    </contour>
    <contour>
      <point x="52" y="669" type="line"/>
      <point x="72" y="688" type="line"/>
      <point x="199" y="688" type="line"/>
      <point x="122" y="57" type="line"/>
      <point x="196" y="57" type="line"/>
      <point x="191" y="17" type="line"/>
      <point x="170" y="0" type="line"/>
      <point x="47" y="0" type="line"/>
      <point x="124" y="631" type="line"/>
      <point x="47" y="631" type="line"/>
    </contour>
    <contour>
      <point x="368" y="560" type="line"/>
      <point x="441" y="560" type="line"/>
      <point x="451" y="651" type="line"/>
      <point x="377" y="651" type="line"/>
    </contour>
  </outline>
</glyph>
<glyph name="AEmacron" format="1">
  <advance width="904"/>
  <unicode hex="01E2"/>
  <outline>
    <contour>
      <point x="547" y="790" type="line"/>
      <point x="820" y="790" type="line"/>
      <point x="814" y="733" type="line"/>
      <point x="541" y="733" type="line"/>
    </contour>
    <contour>
      <point x="812" y="0" type="line"/>
      <point x="851" y="184" type="line"/>
      <point x="790" y="191" type="line"/>
      <point x="756" y="64" type="line"/>
      <point x="497" y="64" type="line"/>
      <point x="522" y="298" type="line"/>
      <point x="821" y="298" type="line"/>
      <point x="827" y="362" type="line"/>
      <point x="528" y="362" type="line"/>
      <point x="552" y="586" type="line"/>
      <point x="803" y="586" type="line"/>
      <point x="809" y="459" type="line"/>
      <point x="871" y="467" type="line"/>
      <point x="872" y="650" type="line"/>
      <point x="257" y="650" type="line"/>
      <point x="251" y="586" type="line"/>
      <point x="346" y="586" type="line"/>
      <point x="37" y="64" type="line"/>
      <point x="-27" y="64" type="line"/>
      <point x="-33" y="0" type="line"/>
      <point x="191" y="0" type="line"/>
      <point x="198" y="64" type="line"/>
      <point x="110" y="64" type="line"/>
      <point x="183" y="189" type="line"/>
      <point x="438" y="189" type="line"/>
      <point x="424" y="64" type="line"/>
      <point x="345" y="64" type="line"/>
      <point x="339" y="0" type="line"/>
    </contour>
    <contour>
      <point x="444" y="246" type="line"/>
      <point x="216" y="246" type="line"/>
      <point x="414" y="586" type="line"/>
      <point x="479" y="586" type="line"/>
    </contour>
  </outline>
</glyph>
<glyph name="AEacute" format="1">
  <advance width="904"/>
  <unicode hex="01FC"/>
  <outline>
    <contour>
      <point x="827" y="745" type="line"/>
      <point x="811" y="813" type="line"/>
      <point x="616" y="740" type="line"/>
      <point x="625" y="703" type="line"/>
    </contour>
    <contour>
      <point x="812" y="0" type="line"/>
      <point x="851" y="184" type="line"/>
      <point x="790" y="191" type="line"/>
      <point x="756" y="64" type="line"/>
      <point x="497" y="64" type="line"/>
      <point x="522" y="298" type="line"/>
      <point x="821" y="298" type="line"/>
      <point x="827" y="362" type="line"/>
      <point x="528" y="362" type="line"/>
      <point x="552" y="586" type="line"/>
      <point x="803" y="586" type="line"/>
      <point x="809" y="459" type="line"/>
      <point x="871" y="467" type="line"/>
      <point x="872" y="650" type="line"/>
      <point x="257" y="650" type="line"/>
      <point x="251" y="586" type="line"/>
      <point x="346" y="586" type="line"/>
      <point x="37" y="64" type="line"/>
      <point x="-27" y="64" type="line"/>
      <point x="-33" y="0" type="line"/>
      <point x="191" y="0" type="line"/>
      <point x="198" y="64" type="line"/>
      <point x="110" y="64" type="line"/>
      <point x="183" y="189" type="line"/>
      <point x="438" y="189" type="line"/>
      <point x="424" y="64" type="line"/>
      <point x="345" y="64" type="line"/>
      <point x="339" y="0" type="line"/>
    </contour>
    <contour>
      <point x="444" y="246" type="line"/>
      <point x="216" y="246" type="line"/>
      <point x="414" y="586" type="line"/>
      <point x="479" y="586" type="line"/>
    </contour>
  </outline>
</glyph>
<glyph name="aeacute" format="1">
  <advance width="705"/>
  <unicode hex="01FD"/>
  <outline>
    <contour>
      <point x="226" y="400" type="curve" smooth="yes"/>
      <point x="301" y="400"/>
      <point x="315" y="353"/>
      <point x="309" y="288" type="curve" smooth="yes"/>
      <point x="305" y="250" type="line" smooth="yes"/>
      <point x="305" y="248"/>
      <point x="304" y="247"/>
      <point x="304" y="246" type="curve"/>
      <point x="282" y="247"/>
      <point x="254" y="249"/>
      <point x="232" y="249" type="curve" smooth="yes"/>
      <point x="130" y="249"/>
      <point x="23" y="218"/>
      <point x="23" y="107" type="curve" smooth="yes"/>
      <point x="23" y="19"/>
      <point x="90" y="-10"/>
      <point x="152" y="-10" type="curve" smooth="yes"/>
      <point x="230" y="-10"/>
      <point x="284" y="38"/>
      <point x="314" y="87" type="curve"/>
      <point x="339" y="23"/>
      <point x="393" y="-10"/>
      <point x="469" y="-10" type="curve" smooth="yes"/>
      <point x="573" y="-10"/>
      <point x="638" y="50"/>
      <point x="657" y="124" type="curve"/>
      <point x="601" y="137" type="line"/>
      <point x="581" y="82"/>
      <point x="543" y="47"/>
      <point x="480" y="47" type="curve" smooth="yes"/>
      <point x="402" y="47"/>
      <point x="373" y="99"/>
      <point x="372" y="184" type="curve"/>
      <point x="421" y="190"/>
      <point x="469" y="198"/>
      <point x="509" y="206" type="curve" smooth="yes"/>
      <point x="623" y="230"/>
      <point x="667" y="278"/>
      <point x="667" y="340" type="curve" smooth="yes"/>
      <point x="667" y="414"/>
      <point x="603" y="454"/>
      <point x="523" y="454" type="curve" smooth="yes"/>
      <point x="461" y="454"/>
      <point x="409" y="429"/>
      <point x="370" y="387" type="curve"/>
      <point x="350" y="430"/>
      <point x="304" y="454"/>
      <point x="242" y="454" type="curve" smooth="yes"/>
      <point x="190" y="454"/>
      <point x="134" y="443"/>
      <point x="89" y="411" type="curve"/>
      <point x="63" y="308" type="line"/>
      <point x="118" y="301" type="line"/>
      <point x="143" y="378" type="line"/>
      <point x="171" y="391"/>
      <point x="196" y="400"/>
    </contour>
    <contour>
      <point x="169" y="45" type="curve" smooth="yes"/>
      <point x="131" y="45"/>
      <point x="97" y="62"/>
      <point x="97" y="117" type="curve" smooth="yes"/>
      <point x="97" y="188"/>
      <point x="155" y="209"/>
      <point x="227" y="209" type="curve" smooth="yes"/>
      <point x="247" y="209"/>
      <point x="276" y="208"/>
      <point x="299" y="205" type="curve"/>
      <point x="299" y="183" type="line" smooth="yes"/>
      <point x="299" y="174"/>
      <point x="299" y="166"/>
      <point x="300" y="158" type="curve"/>
      <point x="285" y="96"/>
      <point x="233" y="45"/>
    </contour>
    <contour>
      <point x="518" y="399" type="curve" smooth="yes"/>
      <point x="561" y="399"/>
      <point x="595" y="382"/>
      <point x="595" y="336" type="curve" smooth="yes"/>
      <point x="595" y="307"/>
      <point x="580" y="269"/>
      <point x="478" y="248" type="curve" smooth="yes"/>
      <point x="461" y="244"/>
      <point x="421" y="238"/>
      <point x="374" y="232" type="curve"/>
      <point x="384" y="316"/>
      <point x="424" y="399"/>
    </contour>
    <contour>
      <point x="572" y="624" type="line"/>
      <point x="537" y="683" type="line"/>
      <point x="372" y="551" type="line"/>
      <point x="390" y="520" type="line"/>
    </contour>
  </outline>
</glyph>
<glyph name="Oslashacute" format="1">
  <advance width="706"/>
  <unicode hex="01FE"/>
  <outline>
    <contour>
      <point x="392" y="660" type="curve" smooth="yes"/>
      <point x="193" y="660"/>
      <point x="41" y="494"/>
      <point x="41" y="291" type="curve" smooth="yes"/>
      <point x="41" y="210"/>
      <point x="66" y="136"/>
      <point x="112" y="82" type="curve"/>
      <point x="41" y="0" type="line"/>
      <point x="107" y="0" type="line"/>
      <point x="148" y="47" type="line"/>
      <point x="194" y="11"/>
      <point x="253" y="-10"/>
      <point x="324" y="-10" type="curve" smooth="yes"/>
      <point x="528" y="-10"/>
      <point x="677" y="159"/>
      <point x="677" y="359" type="curve" smooth="yes"/>
      <point x="677" y="440"/>
      <point x="651" y="513"/>
      <point x="605" y="567" type="curve"/>
      <point x="678" y="650" type="line"/>
      <point x="605" y="650" type="line"/>
      <point x="565" y="604" type="line"/>
      <point x="519" y="639"/>
      <point x="461" y="660"/>
    </contour>
    <contour>
      <point x="335" y="56" type="curve" smooth="yes"/>
      <point x="276" y="56"/>
      <point x="230" y="73"/>
      <point x="196" y="101" type="curve"/>
      <point x="556" y="511" type="line"/>
      <point x="585" y="470"/>
      <point x="601" y="416"/>
      <point x="601" y="354" type="curve" smooth="yes"/>
      <point x="601" y="196"/>
      <point x="499" y="56"/>
    </contour>
    <contour>
      <point x="117" y="297" type="curve" smooth="yes"/>
      <point x="117" y="458"/>
      <point x="225" y="594"/>
      <point x="384" y="594" type="curve" smooth="yes"/>
      <point x="439" y="594"/>
      <point x="484" y="578"/>
      <point x="519" y="551" type="curve"/>
      <point x="161" y="139" type="line"/>
      <point x="131" y="181"/>
      <point x="117" y="237"/>
    </contour>
    <contour>
      <point x="554" y="745" type="line"/>
      <point x="538" y="813" type="line"/>
      <point x="343" y="740" type="line"/>
      <point x="352" y="703" type="line"/>
    </contour>
  </outline>
</glyph>
<glyph name="Scommaaccent" format="1">
  <advance width="523"/>
  <unicode hex="0218"/>
  <outline>
    <contour>
      <point x="262" y="-64" type="line"/>
      <point x="196" y="-64" type="line"/>
      <point x="172" y="-218" type="line"/>
      <point x="228" y="-218" type="line"/>
    </contour>
    <contour>
      <point x="468" y="194" type="curve" smooth="yes"/>
      <point x="468" y="64"/>
      <point x="381" y="-10"/>
      <point x="228" y="-10" type="curve" smooth="yes"/>
      <point x="146" y="-10"/>
      <point x="62" y="11"/>
      <point x="24" y="43" type="curve"/>
      <point x="50" y="171" type="line"/>
      <point x="107" y="165" type="line"/>
      <point x="96" y="83" type="line"/>
      <point x="134" y="62"/>
      <point x="187" y="54"/>
      <point x="228" y="54" type="curve" smooth="yes"/>
      <point x="324" y="54"/>
      <point x="391" y="92"/>
      <point x="391" y="185" type="curve" smooth="yes"/>
      <point x="391" y="280"/>
      <point x="323" y="290"/>
      <point x="247" y="308" type="curve" smooth="yes"/>
      <point x="165" y="327"/>
      <point x="75" y="357"/>
      <point x="75" y="474" type="curve" smooth="yes"/>
      <point x="75" y="605"/>
      <point x="188" y="660"/>
      <point x="296" y="660" type="curve" smooth="yes"/>
      <point x="366" y="660"/>
      <point x="445" y="638"/>
      <point x="480" y="606" type="curve"/>
      <point x="473" y="477" type="line"/>
      <point x="413" y="471" type="line"/>
      <point x="413" y="568" type="line"/>
      <point x="375" y="590"/>
      <point x="331" y="595"/>
      <point x="299" y="595" type="curve" smooth="yes"/>
      <point x="208" y="595"/>
      <point x="151" y="553"/>
      <point x="151" y="480" type="curve" smooth="yes"/>
      <point x="151" y="405"/>
      <point x="209" y="390"/>
      <point x="280" y="372" type="curve" smooth="yes"/>
      <point x="380" y="348"/>
      <point x="468" y="325"/>
    </contour>
  </outline>
</glyph>
<glyph name="uni021A" format="1">
  <advance width="606"/>
  <unicode hex="021A"/>
  <outline>
    <contour>
      <point x="300" y="-64" type="line"/>
      <point x="234" y="-64" type="line"/>
      <point x="210" y="-218" type="line"/>
      <point x="266" y="-218" type="line"/>
    </contour>
    <contour>
      <point x="599" y="452" type="line"/>
      <point x="601" y="650" type="line"/>
      <point x="81" y="650" type="line"/>
      <point x="42" y="452" type="line"/>
      <point x="105" y="447" type="line"/>
      <point x="139" y="586" type="line"/>
      <point x="300" y="586" type="line"/>
      <point x="245" y="64" type="line"/>
      <point x="136" y="64" type="line"/>
      <point x="129" y="0" type="line"/>
      <point x="422" y="0" type="line"/>
      <point x="428" y="64" type="line"/>
      <point x="316" y="64" type="line"/>
      <point x="371" y="586" type="line"/>
      <point x="530" y="586" type="line"/>
      <point x="535" y="447" type="line"/>
    </contour>
  </outline>
</glyph>
<glyph name="uni021B" format="1">
  <advance width="342"/>
  <unicode hex="021B"/>
  <outline>
    <contour>
      <point x="28" y="425" type="line"/>
      <point x="51" y="445" type="line"/>
      <point x="106" y="445" type="line"/>
      <point x="120" y="565" type="line"/>
      <point x="144" y="588" type="line"/>
      <point x="191" y="588" type="line"/>
      <point x="173" y="445" type="line"/>
      <point x="325" y="445" type="line"/>
      <point x="320" y="409" type="line"/>
      <point x="297" y="388" type="line"/>
      <point x="166" y="388" type="line"/>
      <point x="136" y="137" type="line" smooth="yes"/>
      <point x="129" y="76"/>
      <point x="144" y="47"/>
      <point x="191" y="47" type="curve" smooth="yes"/>
      <point x="220" y="47"/>
      <point x="245" y="58"/>
      <point x="266" y="132" type="curve"/>
      <point x="316" y="115" type="line"/>
      <point x="293" y="29"/>
      <point x="256" y="-10"/>
      <point x="183" y="-10" type="curve" smooth="yes"/>
      <point x="100" y="-10"/>
      <point x="57" y="44"/>
      <point x="68" y="131" type="curve" smooth="yes"/>
      <point x="99" y="388" type="line"/>
      <point x="23" y="388" type="line"/>
    </contour>
    <contour>
      <point x="208" y="-64" type="line"/>
      <point x="142" y="-64" type="line"/>
      <point x="118" y="-218" type="line"/>
      <point x="174" y="-218" type="line"/>
    </contour>
  </outline>
</glyph>
<glyph name="Ymacron" format="1">
  <advance width="597"/>
  <unicode hex="0232"/>
  <outline>
    <contour>
      <point x="627" y="586" type="line"/>
      <point x="565" y="586" type="line"/>
      <point x="333" y="249" type="line"/>
      <point x="313" y="64" type="line"/>
      <point x="424" y="64" type="line"/>
      <point x="417" y="0" type="line"/>
      <point x="128" y="0" type="line"/>
      <point x="134" y="64" type="line"/>
      <point x="242" y="64" type="line"/>
      <point x="262" y="249" type="line"/>
      <point x="93" y="586" type="line"/>
      <point x="30" y="586" type="line"/>
      <point x="37" y="650" type="line"/>
      <point x="266" y="650" type="line"/>
      <point x="259" y="586" type="line"/>
      <point x="172" y="586" type="line"/>
      <point x="305" y="316" type="line"/>
      <point x="310" y="316" type="line"/>
      <point x="492" y="586" type="line"/>
      <point x="405" y="586" type="line"/>
      <point x="412" y="650" type="line"/>
      <point x="633" y="650" type="line"/>
    </contour>
    <contour>
      <point x="208" y="790" type="line"/>
      <point x="481" y="790" type="line"/>
      <point x="475" y="733" type="line"/>
      <point x="202" y="733" type="line"/>
    </contour>
  </outline>
</glyph>
<glyph name="schwa" format="1">
  <advance width="437"/>
  <unicode hex="0259"/>
  <outline>
    <contour>
      <point x="212" y="397" type="curve" smooth="yes"/>
      <point x="151" y="397"/>
      <point x="112" y="362"/>
      <point x="91" y="307" type="curve"/>
      <point x="36" y="320" type="line"/>
      <point x="55" y="394"/>
      <point x="120" y="454"/>
      <point x="223" y="454" type="curve" smooth="yes"/>
      <point x="331" y="454"/>
      <point x="394" y="386"/>
      <point x="394" y="261" type="curve" smooth="yes"/>
      <point x="394" y="109"/>
      <point x="305" y="-10"/>
      <point x="169" y="-10" type="curve" smooth="yes"/>
      <point x="90" y="-10"/>
      <point x="26" y="32"/>
      <point x="26" y="101" type="curve" smooth="yes"/>
      <point x="26" y="167"/>
      <point x="71" y="214"/>
      <point x="185" y="238" type="curve" smooth="yes"/>
      <point x="225" y="246"/>
      <point x="272" y="254"/>
      <point x="321" y="261" type="curve"/>
      <point x="320" y="345"/>
      <point x="290" y="397"/>
    </contour>
    <contour>
      <point x="214" y="196" type="curve"/>
      <point x="113" y="173"/>
      <point x="99" y="139"/>
      <point x="99" y="107" type="curve" smooth="yes"/>
      <point x="99" y="62"/>
      <point x="130" y="45"/>
      <point x="176" y="45" type="curve" smooth="yes"/>
      <point x="268" y="45"/>
      <point x="308" y="128"/>
      <point x="318" y="211" type="curve"/>
      <point x="273" y="206"/>
      <point x="239" y="200"/>
    </contour>
  </outline>
</glyph>
<glyph name="breve" format="1">
  <advance width="391"/>
  <unicode hex="02D8"/>
  <outline>
    <contour>
      <point x="324" y="655" type="curve"/>
      <point x="382" y="655" type="line"/>
      <point x="373" y="572"/>
      <point x="326" y="532"/>
      <point x="249" y="532" type="curve" smooth="yes"/>
      <point x="173" y="532"/>
      <point x="134" y="574"/>
      <point x="143" y="655" type="curve"/>
      <point x="201" y="655" type="line"/>
      <point x="194" y="601"/>
      <point x="214" y="580"/>
      <point x="255" y="580" type="curve" smooth="yes"/>
      <point x="298" y="580"/>
      <point x="319" y="604"/>
    </contour>
  </outline>
</glyph>
<glyph name="dotbelowcmb" format="1">
  <advance width="816"/>
  <unicode hex="0323"/>
  <outline>
    <contour>
      <point x="75" y="-174" type="line"/>
      <point x="150" y="-174" type="line"/>
      <point x="160" y="-84" type="line"/>
      <point x="85" y="-84" type="line"/>
    </contour>
  </outline>
</glyph>
<glyph name="uni0394" format="1">
  <advance width="480"/>
  <unicode hex="0394"/>
  <outline>
    <contour>
      <point x="-30" y="0" type="line"/>
      <point x="451" y="0" type="line"/>
      <point x="285" y="661" type="line"/>
    </contour>
    <contour>
      <point x="56" y="57" type="line"/>
      <point x="268" y="506" type="line"/>
      <point x="378" y="57" type="line"/>
    </contour>
  </outline>
</glyph>
<glyph name="pi" format="1">
  <advance width="572"/>
  <unicode hex="03C0"/>
  <outline>
    <contour>
      <point x="7" y="57" type="line"/>
      <point x="83" y="57" type="line"/>
      <point x="117" y="388" type="line"/>
      <point x="40" y="388" type="line"/>
      <point x="46" y="445" type="line"/>
      <point x="562" y="445" type="line"/>
      <point x="556" y="388" type="line"/>
      <point x="477" y="388" type="line"/>
      <point x="443" y="57" type="line"/>
      <point x="518" y="57" type="line"/>
      <point x="512" y="0" type="line"/>
      <point x="291" y="0" type="line"/>
      <point x="297" y="57" type="line"/>
      <point x="373" y="57" type="line"/>
      <point x="408" y="388" type="line"/>
      <point x="187" y="388" type="line"/>
      <point x="153" y="57" type="line"/>
      <point x="229" y="57" type="line"/>
      <point x="223" y="0" type="line"/>
      <point x="2" y="0" type="line"/>
    </contour>
  </outline>
</glyph>
<glyph name="Wgrave" format="1">
  <advance width="909"/>
  <unicode hex="1E80"/>
  <outline>
    <contour>
      <point x="936" y="586" type="line"/>
      <point x="882" y="586" type="line"/>
      <point x="652" y="0" type="line"/>
      <point x="594" y="0" type="line"/>
      <point x="485" y="520" type="line"/>
      <point x="480" y="520" type="line"/>
      <point x="264" y="0" type="line"/>
      <point x="205" y="0" type="line"/>
      <point x="88" y="586" type="line"/>
      <point x="34" y="586" type="line"/>
      <point x="40" y="650" type="line"/>
      <point x="258" y="650" type="line"/>
      <point x="251" y="586" type="line"/>
      <point x="161" y="586" type="line"/>
      <point x="246" y="120" type="line"/>
      <point x="251" y="120" type="line"/>
      <point x="446" y="586" type="line"/>
      <point x="382" y="586" type="line"/>
      <point x="389" y="650" type="line"/>
      <point x="607" y="650" type="line"/>
      <point x="600" y="586" type="line"/>
      <point x="536" y="586" type="line"/>
      <point x="633" y="117" type="line"/>
      <point x="639" y="117" type="line"/>
      <point x="809" y="586" type="line"/>
      <point x="719" y="586" type="line"/>
      <point x="726" y="650" type="line"/>
      <point x="942" y="650" type="line"/>
    </contour>
    <contour>
      <point x="576" y="703" type="line"/>
      <point x="585" y="740" type="line"/>
      <point x="390" y="813" type="line"/>
      <point x="373" y="745" type="line"/>
    </contour>
  </outline>
</glyph>
<glyph name="uni1EBC" format="1">
  <advance width="573"/>
  <unicode hex="1EBC"/>
  <outline>
    <contour>
      <point x="248" y="705" type="line"/>
      <point x="262" y="737"/>
      <point x="284" y="744"/>
      <point x="302" y="744" type="curve" smooth="yes"/>
      <point x="340" y="744"/>
      <point x="370" y="709"/>
      <point x="419" y="709" type="curve" smooth="yes"/>
      <point x="465" y="709"/>
      <point x="490" y="744"/>
      <point x="504" y="798" type="curve"/>
      <point x="470" y="807" type="line"/>
      <point x="455" y="770"/>
      <point x="437" y="765"/>
      <point x="420" y="765" type="curve" smooth="yes"/>
      <point x="373" y="765"/>
      <point x="350" y="800"/>
      <point x="306" y="800" type="curve" smooth="yes"/>
      <point x="256" y="800"/>
      <point x="226" y="752"/>
      <point x="217" y="718" type="curve"/>
    </contour>
    <contour>
      <point x="481" y="0" type="line"/>
      <point x="12" y="0" type="line"/>
      <point x="18" y="64" type="line"/>
      <point x="98" y="64" type="line"/>
      <point x="154" y="586" type="line"/>
      <point x="73" y="586" type="line"/>
      <point x="80" y="650" type="line"/>
      <point x="545" y="650" type="line"/>
      <point x="545" y="466" type="line"/>
      <point x="482" y="459" type="line"/>
      <point x="476" y="586" type="line"/>
      <point x="225" y="586" type="line"/>
      <point x="200" y="362" type="line"/>
      <point x="502" y="362" type="line"/>
      <point x="496" y="298" type="line"/>
      <point x="194" y="298" type="line"/>
      <point x="169" y="64" type="line"/>
      <point x="425" y="64" type="line"/>
      <point x="458" y="191" type="line"/>
      <point x="519" y="184" type="line"/>
    </contour>
  </outline>
</glyph>
<glyph name="emdash" format="1">
  <advance width="1055"/>
  <unicode hex="2014"/>
  <outline>
    <contour>
      <point x="70" y="257" type="line"/>
      <point x="991" y="257" type="line"/>
      <point x="985" y="206" type="line"/>
      <point x="64" y="206" type="line"/>
    </contour>
  </outline>
</glyph>
<glyph name="quoteleft" format="1">
  <advance width="204"/>
  <unicode hex="2018"/>
  <outline>
    <contour>
      <point x="205" y="656" type="line"/>
      <point x="137" y="656" type="line"/>
      <point x="63" y="440" type="line"/>
      <point x="131" y="440" type="line"/>
    </contour>
  </outline>
</glyph>
<glyph name="quoteright" format="1">
  <advance width="200"/>
  <unicode hex="2019"/>
  <outline>
    <contour>
      <point x="65" y="479" type="line"/>
      <point x="133" y="479" type="line"/>
      <point x="207" y="695" type="line"/>
      <point x="139" y="695" type="line"/>
    </contour>
  </outline>
</glyph>
<glyph name="quotedblleft" format="1">
  <advance width="362"/>
  <unicode hex="201C"/>
  <outline>
    <contour>
      <point x="207" y="668" type="line"/>
      <point x="139" y="668" type="line"/>
      <point x="65" y="452" type="line"/>
      <point x="133" y="452" type="line"/>
    </contour>
    <contour>
      <point x="368" y="668" type="line"/>
      <point x="300" y="668" type="line"/>
      <point x="226" y="452" type="line"/>
      <point x="294" y="452" type="line"/>
    </contour>
  </outline>
</glyph>
<glyph name="quotedblbase" format="1">
  <advance width="363"/>
  <unicode hex="201E"/>
  <outline>
    <contour>
      <point x="-15" y="-102" type="line"/>
      <point x="53" y="-102" type="line"/>
      <point x="127" y="114" type="line"/>
      <point x="59" y="114" type="line"/>
    </contour>
    <contour>
      <point x="148" y="-102" type="line"/>
      <point x="216" y="-102" type="line"/>
      <point x="290" y="114" type="line"/>
      <point x="222" y="114" type="line"/>
    </contour>
  </outline>
</glyph>
<glyph name="bullet" format="1">
  <advance width="350"/>
  <unicode hex="2022"/>
  <outline>
    <contour>
      <point x="64" y="234" type="curve" smooth="yes"/>
      <point x="64" y="178"/>
      <point x="103" y="134"/>
      <point x="160" y="134" type="curve" smooth="yes"/>
      <point x="222" y="134"/>
      <point x="279" y="187"/>
      <point x="279" y="254" type="curve" smooth="yes"/>
      <point x="279" y="310"/>
      <point x="239" y="355"/>
      <point x="182" y="355" type="curve" smooth="yes"/>
      <point x="119" y="355"/>
      <point x="64" y="300"/>
    </contour>
  </outline>
</glyph>
<glyph name="perthousand" format="1">
  <advance width="973"/>
  <unicode hex="2030"/>
  <outline>
    <contour>
      <point x="596" y="521" type="line"/>
      <point x="372" y="267" type="line"/>
      <point x="146" y="0" type="line"/>
      <point x="72" y="0" type="line"/>
      <point x="327" y="287" type="line"/>
      <point x="523" y="521" type="line"/>
    </contour>
    <contour>
      <point x="169" y="244" type="curve" smooth="yes"/>
      <point x="269" y="244"/>
      <point x="330" y="310"/>
      <point x="330" y="406" type="curve" smooth="yes"/>
      <point x="330" y="491"/>
      <point x="282" y="530"/>
      <point x="208" y="530" type="curve" smooth="yes"/>
      <point x="116" y="530"/>
      <point x="47" y="469"/>
      <point x="47" y="367" type="curve" smooth="yes"/>
      <point x="47" y="283"/>
      <point x="94" y="244"/>
    </contour>
    <contour>
      <point x="176" y="294" type="curve" smooth="yes"/>
      <point x="128" y="294"/>
      <point x="105" y="317"/>
      <point x="105" y="372" type="curve" smooth="yes"/>
      <point x="105" y="444"/>
      <point x="143" y="479"/>
      <point x="201" y="479" type="curve" smooth="yes"/>
      <point x="249" y="479"/>
      <point x="270" y="455"/>
      <point x="270" y="401" type="curve" smooth="yes"/>
      <point x="270" y="338"/>
      <point x="241" y="294"/>
    </contour>
    <contour>
      <point x="466" y="-10" type="curve" smooth="yes"/>
      <point x="566" y="-10"/>
      <point x="627" y="57"/>
      <point x="627" y="152" type="curve" smooth="yes"/>
      <point x="627" y="238"/>
      <point x="579" y="277"/>
      <point x="506" y="277" type="curve" smooth="yes"/>
      <point x="413" y="277"/>
      <point x="344" y="217"/>
      <point x="344" y="115" type="curve" smooth="yes"/>
      <point x="344" y="28"/>
      <point x="392" y="-10"/>
    </contour>
    <contour>
      <point x="473" y="40" type="curve" smooth="yes"/>
      <point x="425" y="40"/>
      <point x="403" y="64"/>
      <point x="403" y="119" type="curve" smooth="yes"/>
      <point x="403" y="191"/>
      <point x="440" y="227"/>
      <point x="498" y="227" type="curve" smooth="yes"/>
      <point x="547" y="227"/>
      <point x="569" y="202"/>
      <point x="569" y="148" type="curve" smooth="yes"/>
      <point x="569" y="85"/>
      <point x="538" y="40"/>
    </contour>
    <contour>
      <point x="768" y="-10" type="curve" smooth="yes"/>
      <point x="868" y="-10"/>
      <point x="929" y="57"/>
      <point x="929" y="152" type="curve" smooth="yes"/>
      <point x="929" y="238"/>
      <point x="880" y="277"/>
      <point x="806" y="277" type="curve" smooth="yes"/>
      <point x="715" y="277"/>
      <point x="645" y="217"/>
      <point x="645" y="114" type="curve" smooth="yes"/>
      <point x="645" y="28"/>
      <point x="694" y="-10"/>
    </contour>
    <contour>
      <point x="774" y="40" type="curve" smooth="yes"/>
      <point x="725" y="40"/>
      <point x="705" y="65"/>
      <point x="705" y="119" type="curve" smooth="yes"/>
      <point x="705" y="191"/>
      <point x="741" y="227"/>
      <point x="800" y="227" type="curve" smooth="yes"/>
      <point x="848" y="227"/>
      <point x="869" y="202"/>
      <point x="869" y="148" type="curve" smooth="yes"/>
      <point x="869" y="85"/>
      <point x="839" y="40"/>
    </contour>
  </outline>
</glyph>
<glyph name="guilsinglleft" format="1">
  <advance width="280"/>
  <unicode hex="2039"/>
  <outline>
    <contour>
      <point x="208" y="25" type="line"/>
      <point x="107" y="271" type="line"/>
      <point x="259" y="511" type="line"/>
      <point x="200" y="511" type="line"/>
      <point x="40" y="271" type="line"/>
      <point x="149" y="25" type="line"/>
    </contour>
  </outline>
</glyph>
<glyph name="guilsinglright" format="1">
  <advance width="281"/>
  <unicode hex="203A"/>
  <outline>
    <contour>
      <point x="80" y="25" type="line"/>
      <point x="241" y="271" type="line"/>
      <point x="131" y="511" type="line"/>
      <point x="71" y="511" type="line"/>
      <point x="172" y="271" type="line"/>
      <point x="20" y="25" type="line"/>
    </contour>
  </outline>
</glyph>
<glyph name="fraction" format="1">
  <advance width="136"/>
  <unicode hex="2044"/>
  <outline>
    <contour>
      <point x="315" y="650" type="line"/>
      <point x="96" y="325" type="line"/>
      <point x="-117" y="0" type="line"/>
      <point x="-169" y="0" type="line"/>
      <point x="58" y="337" type="line"/>
      <point x="264" y="650" type="line"/>
    </contour>
  </outline>
</glyph>
<glyph name="zerosuperior" format="1">
  <advance width="373"/>
  <unicode hex="2070"/>
  <outline>
    <contour>
      <point x="70" y="566" type="curve" smooth="yes"/>
      <point x="70" y="649"/>
      <point x="100" y="785"/>
      <point x="239" y="785" type="curve" smooth="yes"/>
      <point x="343" y="785"/>
      <point x="369" y="708"/>
      <point x="369" y="626" type="curve" smooth="yes"/>
      <point x="369" y="519"/>
      <point x="328" y="409"/>
      <point x="201" y="409" type="curve" smooth="yes"/>
      <point x="103" y="409"/>
      <point x="70" y="476"/>
    </contour>
    <contour>
      <point x="131" y="571" type="curve" smooth="yes"/>
      <point x="131" y="502"/>
      <point x="147" y="456"/>
      <point x="205" y="456" type="curve" smooth="yes"/>
      <point x="279" y="456"/>
      <point x="308" y="528"/>
      <point x="308" y="627" type="curve" smooth="yes"/>
      <point x="308" y="692"/>
      <point x="295" y="738"/>
      <point x="235" y="738" type="curve" smooth="yes"/>
      <point x="162" y="738"/>
      <point x="131" y="671"/>
    </contour>
  </outline>
</glyph>
<glyph name="fivesuperior" format="1">
  <advance width="329"/>
  <unicode hex="2075"/>
  <outline>
    <contour>
      <point x="322" y="530" type="curve" smooth="yes"/>
      <point x="322" y="615"/>
      <point x="253" y="639"/>
      <point x="172" y="639" type="curve" smooth="yes"/>
      <point x="146" y="639" type="line"/>
      <point x="156" y="734" type="line"/>
      <point x="276" y="734" type="line"/>
      <point x="276" y="684" type="line"/>
      <point x="322" y="689" type="line"/>
      <point x="327" y="779" type="line"/>
      <point x="326" y="778" type="line"/>
      <point x="326" y="779" type="line"/>
      <point x="107" y="779" type="line"/>
      <point x="91" y="610" type="line"/>
      <point x="108" y="594" type="line"/>
      <point x="125" y="595"/>
      <point x="142" y="597"/>
      <point x="159" y="597" type="curve" smooth="yes"/>
      <point x="216" y="597"/>
      <point x="261" y="584"/>
      <point x="261" y="527" type="curve" smooth="yes"/>
      <point x="261" y="480"/>
      <point x="232" y="453"/>
      <point x="183" y="453" type="curve" smooth="yes"/>
      <point x="132" y="453"/>
      <point x="102" y="484"/>
      <point x="99" y="517" type="curve"/>
      <point x="56" y="505" type="line"/>
      <point x="58" y="445"/>
      <point x="107" y="408"/>
      <point x="181" y="408" type="curve" smooth="yes"/>
      <point x="258" y="408"/>
      <point x="322" y="449"/>
    </contour>
  </outline>
</glyph>
<glyph name="ninesuperior" format="1">
  <advance width="343"/>
  <unicode hex="2079"/>
  <outline>
    <contour>
      <point x="171" y="454" type="curve" smooth="yes"/>
      <point x="150" y="454"/>
      <point x="124" y="462"/>
      <point x="103" y="492" type="curve"/>
      <point x="68" y="458" type="line"/>
      <point x="99" y="419"/>
      <point x="145" y="409"/>
      <point x="178" y="409" type="curve" smooth="yes"/>
      <point x="287" y="409"/>
      <point x="342" y="518"/>
      <point x="342" y="635" type="curve" smooth="yes"/>
      <point x="342" y="727"/>
      <point x="300" y="785"/>
      <point x="218" y="785" type="curve" smooth="yes"/>
      <point x="123" y="785"/>
      <point x="79" y="720"/>
      <point x="79" y="652" type="curve" smooth="yes"/>
      <point x="79" y="590"/>
      <point x="118" y="550"/>
      <point x="181" y="550" type="curve" smooth="yes"/>
      <point x="234" y="550"/>
      <point x="267" y="578"/>
      <point x="283" y="608" type="curve"/>
      <point x="278" y="522"/>
      <point x="249" y="454"/>
    </contour>
    <contour>
      <point x="197" y="594" type="curve" smooth="yes"/>
      <point x="159" y="594"/>
      <point x="139" y="617"/>
      <point x="139" y="656" type="curve" smooth="yes"/>
      <point x="139" y="702"/>
      <point x="157" y="738"/>
      <point x="213" y="738" type="curve" smooth="yes"/>
      <point x="262" y="738"/>
      <point x="279" y="708"/>
      <point x="283" y="660" type="curve"/>
      <point x="277" y="629"/>
      <point x="252" y="594"/>
    </contour>
  </outline>
</glyph>
<glyph name="minussuperior" format="1">
  <advance width="323"/>
  <unicode hex="207B"/>
  <outline>
    <contour>
      <point x="79" y="578" type="line"/>
      <point x="306" y="578" type="line"/>
      <point x="310" y="617" type="line"/>
      <point x="83" y="617" type="line"/>
    </contour>
  </outline>
</glyph>
<glyph name="equalsuperior" format="1">
  <advance width="387"/>
  <unicode hex="207C"/>
  <outline>
    <contour>
      <point x="85" y="645" type="line"/>
      <point x="376" y="645" type="line"/>
      <point x="381" y="685" type="line"/>
      <point x="90" y="685" type="line"/>
    </contour>
    <contour>
      <point x="72" y="510" type="line"/>
      <point x="363" y="510" type="line"/>
      <point x="366" y="549" type="line"/>
      <point x="75" y="549" type="line"/>
    </contour>
  </outline>
</glyph>
<glyph name="parenleftsuperior" format="1">
  <advance width="215"/>
  <unicode hex="207D"/>
  <outline>
    <contour>
      <point x="201" y="855" type="curve"/>
      <point x="252" y="855" type="line"/>
      <point x="163" y="757"/>
      <point x="116" y="657"/>
      <point x="116" y="547" type="curve" smooth="yes"/>
      <point x="116" y="464"/>
      <point x="142" y="375"/>
      <point x="194" y="304" type="curve"/>
      <point x="143" y="304" type="line"/>
      <point x="92" y="379"/>
      <point x="69" y="465"/>
      <point x="69" y="543" type="curve" smooth="yes"/>
      <point x="69" y="653"/>
      <point x="110" y="754"/>
    </contour>
  </outline>
</glyph>
<glyph name="parenrightsuperior" format="1">
  <advance width="214"/>
  <unicode hex="207E"/>
  <outline>
    <contour>
      <point x="76" y="303" type="curve"/>
      <point x="25" y="303" type="line"/>
      <point x="114" y="400"/>
      <point x="160" y="501"/>
      <point x="160" y="610" type="curve" smooth="yes"/>
      <point x="160" y="693"/>
      <point x="135" y="782"/>
      <point x="84" y="854" type="curve"/>
      <point x="135" y="854" type="line"/>
      <point x="186" y="778"/>
      <point x="208" y="692"/>
      <point x="208" y="613" type="curve" smooth="yes"/>
      <point x="208" y="504"/>
      <point x="165" y="403"/>
    </contour>
  </outline>
</glyph>
<glyph name="zeroinferior" format="1">
  <advance width="373"/>
  <unicode hex="2080"/>
  <outline>
    <contour>
      <point x="27" y="151" type="curve" smooth="yes"/>
      <point x="27" y="234"/>
      <point x="57" y="370"/>
      <point x="196" y="370" type="curve" smooth="yes"/>
      <point x="300" y="370"/>
      <point x="326" y="293"/>
      <point x="326" y="211" type="curve" smooth="yes"/>
      <point x="326" y="104"/>
      <point x="285" y="-6"/>
      <point x="158" y="-6" type="curve" smooth="yes"/>
      <point x="60" y="-6"/>
      <point x="27" y="61"/>
    </contour>
    <contour>
      <point x="88" y="156" type="curve" smooth="yes"/>
      <point x="88" y="87"/>
      <point x="104" y="41"/>
      <point x="162" y="41" type="curve" smooth="yes"/>
      <point x="236" y="41"/>
      <point x="265" y="113"/>
      <point x="265" y="212" type="curve" smooth="yes"/>
      <point x="265" y="277"/>
      <point x="252" y="323"/>
      <point x="192" y="323" type="curve" smooth="yes"/>
      <point x="119" y="323"/>
      <point x="88" y="256"/>
    </contour>
  </outline>
</glyph>
<glyph name="fourinferior" format="1">
  <advance width="349"/>
  <unicode hex="2084"/>
  <outline>
    <contour>
      <point x="176" y="0" type="line"/>
      <point x="232" y="0" type="line"/>
      <point x="242" y="94" type="line"/>
      <point x="298" y="94" type="line"/>
      <point x="308" y="136" type="line"/>
      <point x="246" y="136" type="line"/>
      <point x="270" y="364" type="line"/>
      <point x="159" y="364" type="line"/>
      <point x="8" y="138" type="line"/>
      <point x="9" y="94" type="line"/>
      <point x="186" y="94" type="line"/>
    </contour>
    <contour>
      <point x="181" y="319" type="line"/>
      <point x="210" y="319" type="line"/>
      <point x="190" y="136" type="line"/>
      <point x="59" y="136" type="line"/>
    </contour>
  </outline>
</glyph>
<glyph name="fiveinferior" format="1">
  <advance width="329"/>
  <unicode hex="2085"/>
  <outline>
    <contour>
      <point x="279" y="115" type="curve" smooth="yes"/>
      <point x="279" y="200"/>
      <point x="210" y="224"/>
      <point x="129" y="224" type="curve" smooth="yes"/>
      <point x="103" y="224" type="line"/>
      <point x="113" y="319" type="line"/>
      <point x="233" y="319" type="line"/>
      <point x="233" y="269" type="line"/>
      <point x="279" y="274" type="line"/>
      <point x="284" y="364" type="line"/>
      <point x="283" y="363" type="line"/>
      <point x="283" y="364" type="line"/>
      <point x="64" y="364" type="line"/>
      <point x="48" y="195" type="line"/>
      <point x="65" y="179" type="line"/>
      <point x="82" y="180"/>
      <point x="99" y="182"/>
      <point x="116" y="182" type="curve" smooth="yes"/>
      <point x="173" y="182"/>
      <point x="218" y="169"/>
      <point x="218" y="112" type="curve" smooth="yes"/>
      <point x="218" y="65"/>
      <point x="189" y="38"/>
      <point x="140" y="38" type="curve" smooth="yes"/>
      <point x="89" y="38"/>
      <point x="59" y="69"/>
      <point x="56" y="102" type="curve"/>
      <point x="13" y="90" type="line"/>
      <point x="15" y="30"/>
      <point x="64" y="-7"/>
      <point x="138" y="-7" type="curve" smooth="yes"/>
      <point x="215" y="-7"/>
      <point x="279" y="34"/>
    </contour>
  </outline>
</glyph>
<glyph name="seveninferior" format="1">
  <advance width="303"/>
  <unicode hex="2087"/>
  <outline>
    <contour>
      <point x="37" y="364" type="line"/>
      <point x="27" y="257" type="line"/>
      <point x="76" y="257" type="line"/>
      <point x="83" y="319" type="line"/>
      <point x="229" y="319" type="line"/>
      <point x="59" y="0" type="line"/>
      <point x="116" y="0" type="line"/>
      <point x="292" y="337" type="line"/>
      <point x="288" y="364" type="line"/>
    </contour>
  </outline>
</glyph>
<glyph name="equal.inferior" format="1">
  <advance width="387"/>
  <unicode hex="208C"/>
  <outline>
    <contour>
      <point x="42" y="230" type="line"/>
      <point x="333" y="230" type="line"/>
      <point x="338" y="270" type="line"/>
      <point x="47" y="270" type="line"/>
    </contour>
    <contour>
      <point x="29" y="95" type="line"/>
      <point x="320" y="95" type="line"/>
      <point x="323" y="134" type="line"/>
      <point x="32" y="134" type="line"/>
    </contour>
  </outline>
</glyph>
<glyph name="parenleft.inferior" format="1">
  <advance width="214"/>
  <unicode hex="208D"/>
  <outline>
    <contour>
      <point x="157" y="440" type="curve"/>
      <point x="208" y="440" type="line"/>
      <point x="119" y="342"/>
      <point x="72" y="242"/>
      <point x="72" y="132" type="curve" smooth="yes"/>
      <point x="72" y="49"/>
      <point x="98" y="-40"/>
      <point x="150" y="-111" type="curve"/>
      <point x="99" y="-111" type="line"/>
      <point x="48" y="-36"/>
      <point x="25" y="50"/>
      <point x="25" y="128" type="curve" smooth="yes"/>
      <point x="25" y="238"/>
      <point x="66" y="339"/>
    </contour>
  </outline>
</glyph>
<glyph name="a.inferior" format="1">
  <advance width="360"/>
  <unicode hex="2090"/>
  <outline>
    <contour>
      <point x="308" y="290" type="line"/>
      <point x="298" y="259"/>
      <point x="289" y="228"/>
      <point x="286" y="196" type="curve"/>
      <point x="266" y="45" type="line"/>
      <point x="309" y="45" type="line"/>
      <point x="307" y="13" type="line"/>
      <point x="291" y="0" type="line"/>
      <point x="216" y="0" type="line"/>
      <point x="217" y="60" type="line"/>
      <point x="198" y="24"/>
      <point x="167" y="-7"/>
      <point x="116" y="-7" type="curve" smooth="yes"/>
      <point x="50" y="-7"/>
      <point x="16" y="43"/>
      <point x="16" y="116" type="curve" smooth="yes"/>
      <point x="16" y="192"/>
      <point x="52" y="296"/>
      <point x="154" y="296" type="curve" smooth="yes"/>
      <point x="198" y="296"/>
      <point x="230" y="275"/>
      <point x="242" y="240" type="curve"/>
      <point x="246" y="257"/>
      <point x="251" y="273"/>
      <point x="256" y="290" type="curve"/>
    </contour>
    <contour>
      <point x="161" y="252" type="curve" smooth="yes"/>
      <point x="93" y="252"/>
      <point x="73" y="181"/>
      <point x="73" y="124" type="curve" smooth="yes"/>
      <point x="73" y="68"/>
      <point x="94" y="38"/>
      <point x="133" y="38" type="curve" smooth="yes"/>
      <point x="186" y="38"/>
      <point x="220" y="92"/>
      <point x="224" y="133" type="curve"/>
      <point x="224" y="132" type="line"/>
      <point x="230" y="182" type="line"/>
      <point x="230" y="225"/>
      <point x="201" y="252"/>
    </contour>
  </outline>
</glyph>
<glyph name="k.inferior" format="1">
  <advance width="322"/>
  <unicode hex="2096"/>
  <outline>
    <contour>
      <point x="31" y="433" type="line"/>
      <point x="46" y="447" type="line"/>
      <point x="134" y="447" type="line"/>
      <point x="98" y="171" type="line"/>
      <point x="151" y="171" type="line"/>
      <point x="190" y="206"/>
      <point x="214" y="243"/>
      <point x="218" y="290" type="curve"/>
      <point x="273" y="290" type="line"/>
      <point x="270" y="237"/>
      <point x="234" y="188"/>
      <point x="181" y="153" type="curve"/>
      <point x="242" y="45" type="line"/>
      <point x="286" y="45" type="line"/>
      <point x="282" y="13" type="line"/>
      <point x="267" y="0" type="line"/>
      <point x="210" y="0" type="line"/>
      <point x="139" y="131" type="line"/>
      <point x="93" y="131" type="line"/>
      <point x="77" y="0" type="line"/>
      <point x="24" y="0" type="line"/>
      <point x="74" y="402" type="line"/>
      <point x="27" y="402" type="line"/>
    </contour>
  </outline>
</glyph>
<glyph name="m.inferior" format="1">
  <advance width="552"/>
  <unicode hex="2098"/>
  <outline>
    <contour>
      <point x="35" y="290" type="line"/>
      <point x="116" y="290" type="line"/>
      <point x="116" y="237" type="line"/>
      <point x="137" y="272"/>
      <point x="167" y="296"/>
      <point x="213" y="296" type="curve" smooth="yes"/>
      <point x="257" y="296"/>
      <point x="287" y="276"/>
      <point x="295" y="233" type="curve"/>
      <point x="315" y="271"/>
      <point x="347" y="296"/>
      <point x="395" y="296" type="curve" smooth="yes"/>
      <point x="453" y="296"/>
      <point x="487" y="259"/>
      <point x="478" y="189" type="curve" smooth="yes"/>
      <point x="459" y="45" type="line"/>
      <point x="508" y="45" type="line"/>
      <point x="504" y="13" type="line"/>
      <point x="489" y="0" type="line"/>
      <point x="402" y="0" type="line"/>
      <point x="423" y="170" type="line" smooth="yes"/>
      <point x="430" y="227"/>
      <point x="413" y="252"/>
      <point x="370" y="252" type="curve" smooth="yes"/>
      <point x="325" y="252"/>
      <point x="303" y="222"/>
      <point x="294" y="186" type="curve"/>
      <point x="272" y="0" type="line"/>
      <point x="219" y="0" type="line"/>
      <point x="241" y="170" type="line"/>
      <point x="248" y="232"/>
      <point x="227" y="252"/>
      <point x="189" y="252" type="curve" smooth="yes"/>
      <point x="146" y="252"/>
      <point x="122" y="227"/>
      <point x="112" y="191" type="curve"/>
      <point x="88" y="0" type="line"/>
      <point x="35" y="0" type="line"/>
      <point x="65" y="246" type="line"/>
      <point x="16" y="246" type="line"/>
      <point x="20" y="276" type="line"/>
    </contour>
    <contour>
      <point x="160" y="368" type="move" name="top"/>
    </contour>
  </outline>
</glyph>
